<svg width="48" height="48" viewBox="0 0 48 48" fill="none" xmlns="http://www.w3.org/2000/svg">
<rect width="48" height="48" rx="16" fill="#F1F1FA"/>
<path d="M31.91 16.09C31.6104 16.0299 31.3056 15.9997 31 16H19C18.7348 16 18.4805 15.8946 18.2929 15.7071C18.1054 15.5196 18 15.2652 18 15C18 14.7348 18.1054 14.4804 18.2929 14.2929C18.4805 14.1054 18.7348 14 19 14H31C30.5343 13.379 29.9304 12.875 29.2361 12.5279C28.5418 12.1807 27.7763 12 27 12H17C16.2238 12 15.4583 12.1807 14.764 12.5279C14.0697 12.875 13.4658 13.379 13 14C12.347 14.8634 11.9957 15.9174 12 17V31C12 32.3261 12.5268 33.5979 13.4645 34.5355C14.4022 35.4732 15.674 36 17 36H31C32.3261 36 33.5979 35.4732 34.5356 34.5355C35.4733 33.5979 36 32.3261 36 31V21C35.9985 19.8329 35.5888 18.7031 34.8418 17.8063C34.0948 16.9096 33.0577 16.3024 31.91 16.09ZM29.24 29C29.1603 29.0096 29.0798 29.0096 29 29C28.2044 29 27.4413 28.6839 26.8787 28.1213C26.3161 27.5587 26 26.7956 26 26C26 25.2044 26.3161 24.4413 26.8787 23.8787C27.4413 23.3161 28.2044 23 29 23C29.3416 22.9978 29.6807 23.0589 30 23.18C30.6374 23.416 31.1757 23.8615 31.5268 24.4434C31.8779 25.0253 32.021 25.7092 31.9327 26.383C31.8444 27.0569 31.5299 27.6808 31.0408 28.1526C30.5516 28.6244 29.9167 28.9161 29.24 28.98V29Z" fill="#5233FF"/>
<path d="M29 27C29.5523 27 30 26.5523 30 26C30 25.4477 29.5523 25 29 25C28.4477 25 28 25.4477 28 26C28 26.5523 28.4477 27 29 27Z" fill="#FF64C8"/>
</svg>
