<svg width="60" height="60" viewBox="0 0 60 60" fill="none" xmlns="http://www.w3.org/2000/svg">
<path d="M44 0H16C7.16344 0 0 7.16344 0 16V44C0 52.8366 7.16344 60 16 60H44C52.8366 60 60 52.8366 60 44V16C60 7.16344 52.8366 0 44 0Z" fill="#FFCFCF"/>
<path d="M25.7472 15.2126C25.8258 15.2123 25.9044 15.212 25.983 15.2116C26.1951 15.2109 26.4072 15.2108 26.6193 15.211C26.797 15.211 26.9748 15.2108 27.1526 15.2105C27.5724 15.2098 27.9922 15.2098 28.412 15.2101C28.8435 15.2105 29.2749 15.2098 29.7064 15.2085C30.0783 15.2075 30.4501 15.2072 30.822 15.2073C31.0435 15.2074 31.2649 15.2073 31.4864 15.2065C31.6949 15.2057 31.9034 15.2059 32.1119 15.2066C32.2237 15.2068 32.3355 15.2062 32.4473 15.2055C33.2766 15.2105 33.9521 15.4013 34.5765 15.9611C35.0349 16.4427 35.2774 17.0677 35.2744 17.7255C35.2742 17.7986 35.274 17.8717 35.2738 17.947C35.2733 18.0228 35.2728 18.0986 35.2723 18.1766C35.2721 18.2536 35.2718 18.3305 35.2715 18.4098C35.2708 18.5994 35.2699 18.789 35.2687 18.9786C35.3019 18.9785 35.3351 18.9783 35.3694 18.9782C36.1803 18.9743 36.9913 18.9714 37.8022 18.9695C38.1944 18.9686 38.5866 18.9674 38.9788 18.9654C39.3575 18.9635 39.7363 18.9624 40.1151 18.962C40.2593 18.9616 40.4035 18.961 40.5477 18.9601C40.7503 18.9588 40.9529 18.9586 41.1556 18.9587C41.2146 18.9581 41.2737 18.9574 41.3345 18.9568C42.108 18.9601 42.7858 19.2074 43.3592 19.7314C43.8024 20.2278 44.017 20.793 44.0162 21.4536C44.0168 21.5233 44.0168 21.5233 44.0174 21.5944C44.0185 21.747 44.0187 21.8995 44.0188 22.0521C44.0192 22.159 44.0196 22.2659 44.02 22.3728C44.0207 22.5966 44.0209 22.8204 44.0209 23.0442C44.0208 23.3295 44.0224 23.6148 44.0245 23.9002C44.0258 24.1209 44.026 24.3417 44.0259 24.5625C44.0261 24.6676 44.0266 24.7727 44.0275 24.8778C44.0338 25.6823 43.965 26.3194 43.4132 26.9474C43.3838 26.9829 43.3544 27.0184 43.3242 27.055C43.0041 27.4116 42.5387 27.6777 42.0656 27.7677C41.9214 27.7731 41.7789 27.7754 41.6347 27.7748C41.5695 27.7748 41.5695 27.7748 41.5029 27.7749C41.3571 27.775 41.2112 27.7747 41.0654 27.7744C40.9609 27.7743 40.8564 27.7744 40.7518 27.7744C40.468 27.7744 40.1841 27.7741 39.9002 27.7736C39.6036 27.7733 39.307 27.7732 39.0104 27.7732C38.4487 27.773 37.8869 27.7725 37.3252 27.7719C36.6857 27.7713 36.0462 27.771 35.4067 27.7707C34.0912 27.77 32.7756 27.769 31.4601 27.7677C31.4586 27.7119 31.4571 27.6561 31.4555 27.5986C31.4522 27.5251 31.4489 27.4516 31.4454 27.3759C31.4427 27.3031 31.44 27.2304 31.4372 27.1554C31.3968 26.9201 31.3359 26.8205 31.1671 26.6544C30.9696 26.5886 30.8185 26.5876 30.6103 26.5864C30.5719 26.5861 30.5334 26.5858 30.4939 26.5855C30.3669 26.5847 30.2399 26.5843 30.1129 26.5839C30.0245 26.5836 29.9361 26.5833 29.8478 26.5829C29.6625 26.5823 29.4772 26.582 29.2919 26.5818C29.0547 26.5814 28.8176 26.58 28.5804 26.5784C28.3978 26.5773 28.2153 26.577 28.0327 26.5769C27.9453 26.5767 27.8579 26.5762 27.7705 26.5755C27.648 26.5745 27.5256 26.5746 27.4032 26.5749C27.3336 26.5747 27.264 26.5745 27.1923 26.5743C26.9862 26.5982 26.8785 26.6472 26.714 26.7716C26.5719 26.9847 26.5741 27.1148 26.5602 27.3685C26.5558 27.4431 26.5514 27.5176 26.5469 27.5944C26.544 27.6516 26.5412 27.7088 26.5382 27.7677C25.1666 27.7732 23.7949 27.7773 22.4233 27.7799C21.7863 27.7811 21.1494 27.7827 20.5125 27.7854C19.9572 27.7877 19.4019 27.7892 18.8466 27.7898C18.5527 27.7901 18.2589 27.7908 17.965 27.7925C17.688 27.7941 17.4111 27.7946 17.1341 27.7942C17.0328 27.7943 16.9315 27.7947 16.8302 27.7956C16.0489 27.8023 15.4245 27.7134 14.8195 27.1818C14.784 27.1524 14.7485 27.123 14.7119 27.0927C14.3555 26.7729 14.0885 26.3072 13.9991 25.8341C13.9927 25.6794 13.9893 25.5261 13.9888 25.3713C13.9884 25.3249 13.988 25.2784 13.9876 25.2306C13.9865 25.0771 13.9858 24.9236 13.9852 24.77C13.9849 24.7174 13.9847 24.6648 13.9845 24.6105C13.9832 24.3317 13.9824 24.0529 13.9819 23.774C13.9812 23.4873 13.9792 23.2006 13.9769 22.9139C13.9753 22.6924 13.9748 22.4708 13.9746 22.2493C13.9743 22.1437 13.9737 22.0381 13.9726 21.9325C13.9643 21.0802 14.0642 20.4088 14.6437 19.7404C15.2907 19.133 15.9607 18.9592 16.8294 18.9653C16.9255 18.9653 16.9255 18.9653 17.0236 18.9653C17.2338 18.9654 17.444 18.9663 17.6542 18.9672C17.8005 18.9674 17.9469 18.9676 18.0933 18.9677C18.4382 18.9681 18.783 18.969 19.1279 18.9702C19.5595 18.9716 19.991 18.9723 20.4226 18.9729C21.1916 18.9742 21.9606 18.9762 22.7296 18.9786C22.7282 18.9087 22.7282 18.9087 22.7268 18.8373C22.7231 18.6232 22.7209 18.4091 22.7186 18.195C22.7172 18.1216 22.7157 18.0483 22.7142 17.9727C22.7078 17.1586 22.9141 16.5243 23.4694 15.9171C24.1198 15.3027 24.8941 15.2108 25.7472 15.2126ZM25.2491 17.8068C25.2491 18.1935 25.2491 18.5802 25.2491 18.9786C27.7241 18.9786 30.1991 18.9786 32.7491 18.9786C32.7491 18.5919 32.7491 18.2052 32.7491 17.8068C30.2741 17.8068 27.7991 17.8068 25.2491 17.8068Z" fill="#FF2525"/>
<path d="M14.8833 28.819C15.0316 28.8896 15.155 28.9564 15.2898 29.0461C15.8987 29.4454 16.5345 29.4228 17.2375 29.4236C17.3392 29.4242 17.4409 29.4248 17.5426 29.4254C17.8173 29.427 18.0921 29.4279 18.3669 29.4287C18.6545 29.4296 18.9421 29.4311 19.2297 29.4326C19.7738 29.4354 20.3179 29.4375 20.862 29.4395C21.4816 29.4417 22.1013 29.4446 22.721 29.4476C23.9951 29.4536 25.2693 29.4588 26.5435 29.4635C26.5437 29.5259 26.544 29.5883 26.5442 29.6525C26.5455 29.8846 26.5487 30.1166 26.5524 30.3487C26.5538 30.449 26.5546 30.5493 26.555 30.6496C26.5555 30.7941 26.5579 30.9384 26.5607 31.0829C26.5603 31.1498 26.5603 31.1498 26.56 31.2181C26.5664 31.4551 26.5924 31.561 26.7441 31.7471C26.9918 31.9421 27.184 31.932 27.4938 31.9339C27.5675 31.9345 27.6412 31.935 27.7172 31.9356C27.7975 31.9359 27.8779 31.9362 27.9582 31.9364C28.041 31.9367 28.1237 31.9371 28.2065 31.9374C28.3799 31.938 28.5533 31.9383 28.7268 31.9386C28.9482 31.9389 29.1696 31.9403 29.3911 31.9419C29.562 31.943 29.733 31.9433 29.904 31.9434C29.9856 31.9436 30.0672 31.9441 30.1487 31.9449C30.7458 31.9592 30.7458 31.9592 31.2896 31.7487C31.4363 31.5286 31.4272 31.3497 31.431 31.0943C31.4322 31.0477 31.4333 31.0012 31.4345 30.9532C31.438 30.8045 31.4407 30.6559 31.4434 30.5072C31.4456 30.4064 31.4479 30.3056 31.4503 30.2048C31.4559 29.9577 31.4608 29.7106 31.4654 29.4635C31.5179 29.4634 31.5705 29.4633 31.6246 29.4631C32.905 29.4596 34.1854 29.4552 35.4657 29.4497C36.0849 29.4471 36.7041 29.4448 37.3233 29.4432C37.8631 29.4419 38.403 29.4399 38.9428 29.4372C39.2285 29.4358 39.5142 29.4347 39.7999 29.4344C40.0692 29.434 40.3384 29.4328 40.6077 29.4311C40.7062 29.4305 40.8046 29.4303 40.9031 29.4304C41.5828 29.4309 42.2028 29.4047 42.785 29.0131C43.0831 28.831 43.2483 28.7534 43.5943 28.819C43.9165 28.9948 43.9165 28.9948 44.0044 29.1706C44.0105 29.2953 44.0126 29.4202 44.0131 29.5451C44.0133 29.584 44.0135 29.6229 44.0137 29.663C44.0144 29.7939 44.0146 29.9248 44.0148 30.0558C44.0152 30.1494 44.0156 30.243 44.016 30.3367C44.0172 30.6449 44.0178 30.9532 44.0184 31.2614C44.0186 31.3676 44.0189 31.4737 44.0191 31.5799C44.0202 32.079 44.0211 32.5781 44.0216 33.0772C44.0221 33.6527 44.0237 34.2281 44.026 34.8036C44.0278 35.2487 44.0287 35.6938 44.0289 36.1388C44.029 36.4045 44.0295 36.6701 44.031 36.9358C44.0324 37.1861 44.0326 37.4364 44.032 37.6867C44.032 37.7782 44.0323 37.8697 44.0332 37.9612C44.0402 38.8092 43.8649 39.4215 43.3013 40.069C42.7956 40.5673 42.0965 40.7816 41.4014 40.7798C41.3362 40.78 41.3362 40.78 41.2697 40.7802C41.1235 40.7805 40.9774 40.7804 40.8313 40.7804C40.7256 40.7805 40.62 40.7807 40.5143 40.7809C40.2236 40.7814 39.9329 40.7815 39.6422 40.7815C39.3288 40.7816 39.0154 40.7821 38.702 40.7825C38.0166 40.7833 37.3311 40.7836 36.6457 40.7839C36.2177 40.784 35.7897 40.7843 35.3618 40.7845C34.1769 40.7852 32.9921 40.7859 31.8073 40.7861C31.6935 40.7861 31.6935 40.7861 31.5774 40.7861C31.4634 40.7861 31.4634 40.7861 31.3471 40.7861C31.193 40.7862 31.039 40.7862 30.8849 40.7862C30.7703 40.7862 30.7703 40.7862 30.6533 40.7862C29.4152 40.7865 28.177 40.7875 26.9388 40.7889C25.6678 40.7903 24.3967 40.791 23.1256 40.7911C22.4119 40.7911 21.6982 40.7914 20.9845 40.7925C20.3767 40.7934 19.769 40.7937 19.1612 40.7932C18.8511 40.793 18.5411 40.7931 18.2311 40.7939C17.947 40.7946 17.663 40.7945 17.379 40.7938C17.2764 40.7937 17.1739 40.7939 17.0713 40.7944C16.1735 40.7986 15.3803 40.6853 14.6897 40.0605C14.0786 39.3917 13.9779 38.7135 13.9798 37.8426C13.9794 37.7483 13.9789 37.6541 13.9783 37.5598C13.977 37.3051 13.9769 37.0504 13.977 36.7957C13.977 36.5828 13.9765 36.3699 13.976 36.157C13.9749 35.6549 13.9747 35.1528 13.9751 34.6507C13.9755 34.1329 13.9741 33.6151 13.972 33.0973C13.9702 32.6522 13.9695 32.2071 13.9697 31.7619C13.9698 31.4963 13.9695 31.2307 13.9681 30.965C13.9668 30.7155 13.9669 30.466 13.9681 30.2165C13.9683 30.125 13.968 30.0334 13.9671 29.9419C13.9661 29.8169 13.9668 29.6921 13.968 29.5671C13.968 29.4972 13.9679 29.4272 13.9679 29.3552C14.0151 29.1169 14.1129 29.0302 14.2974 28.8776C14.486 28.7833 14.6787 28.7926 14.8833 28.819Z" fill="#FF2525"/>
</svg>
