<svg width="60" height="60" viewBox="0 0 60 60" fill="none" xmlns="http://www.w3.org/2000/svg">
<path d="M44 0H16C7.16344 0 0 7.16344 0 16V44C0 52.8366 7.16344 60 16 60H44C52.8366 60 60 52.8366 60 44V16C60 7.16344 52.8366 0 44 0Z" fill="#C9FFE5"/>
<path d="M22.791 14.5315C22.8687 14.6734 22.9378 14.8132 23.005 14.96C23.2203 15.4069 23.4742 15.7902 23.7944 16.1721C23.8378 16.2255 23.8813 16.2789 23.926 16.3339C25.1804 17.7962 27.2034 18.6526 29.1064 18.8088C31.4282 18.9131 33.655 18.3447 35.4071 16.7654C36.1049 16.1119 36.609 15.3326 37.0155 14.4729C37.9291 14.7323 38.8238 15.274 39.4944 15.9378C39.5417 15.9845 39.5889 16.0313 39.6376 16.0794C39.9423 16.3996 40.1978 16.7522 40.4515 17.1124C40.6347 17.3722 40.8243 17.6273 41.0142 17.8823C41.0492 17.9293 41.0841 17.9763 41.1201 18.0247C41.2274 18.1689 41.3348 18.3131 41.4422 18.4573C42.5064 19.8866 42.5064 19.8866 42.9523 20.5116C43.0085 20.5881 43.0669 20.6629 43.1273 20.7361C43.2126 20.8422 43.2126 20.8422 43.3309 21.0354C43.2959 21.3325 43.0133 21.5976 42.8292 21.8264C42.7539 21.9212 42.6785 22.0161 42.6033 22.1109C42.5662 22.1573 42.5292 22.2037 42.4911 22.2515C42.3514 22.4273 42.2138 22.6045 42.0767 22.7822C42.0301 22.8424 41.9835 22.9026 41.9356 22.9647C41.8896 23.0241 41.8436 23.0835 41.7963 23.1448C41.6732 23.3037 41.55 23.4627 41.4268 23.6216C41.3067 23.7765 41.1867 23.9315 41.0668 24.0866C41.0203 24.1468 40.9737 24.207 40.9257 24.269C40.9024 24.2992 40.879 24.3294 40.8549 24.3606C40.7031 24.5565 40.5504 24.7517 40.397 24.9465C40.3406 25.0183 40.3406 25.0183 40.283 25.0916C40.2083 25.1866 40.1334 25.2815 40.0585 25.3763C40.0245 25.4196 39.9904 25.4629 39.9553 25.5075C39.9095 25.5656 39.9095 25.5656 39.8627 25.6249C39.7856 25.7223 39.7856 25.7223 39.7305 25.8401C39.5453 25.761 39.4484 25.681 39.3284 25.5215C39.104 25.2528 38.8731 25.1554 38.5242 25.1113C38.19 25.1521 37.9456 25.2737 37.7016 25.5032C37.4789 25.8774 37.4699 26.2796 37.4688 26.7026C37.4682 26.7576 37.4676 26.8125 37.467 26.8691C37.4652 27.0492 37.4642 27.2292 37.4632 27.4093C37.4621 27.5348 37.4609 27.6602 37.4597 27.7856C37.4567 28.1147 37.4544 28.4437 37.4522 28.7728C37.4498 29.109 37.4468 29.4452 37.4438 29.7814C37.4381 30.4403 37.4332 31.0992 37.4286 31.7581C37.3943 31.7583 37.36 31.7585 37.3246 31.7587C36.4865 31.7634 35.6484 31.7688 34.8103 31.7749C34.405 31.7778 33.9997 31.7806 33.5944 31.7828C33.2029 31.7849 32.8114 31.7877 32.4199 31.7908C32.2709 31.7918 32.1219 31.7927 31.9729 31.7934C31.7634 31.7944 31.554 31.7961 31.3445 31.798C31.2531 31.7982 31.2531 31.7982 31.1599 31.7984C30.2933 31.8081 29.5783 31.9585 28.9319 32.5605C28.4754 33.0717 28.3071 33.6579 28.3207 34.3273C28.3914 35.0352 28.7666 35.5726 29.2245 36.094C29.1802 36.1266 29.1359 36.1591 29.0903 36.1926C28.619 36.5901 28.389 37.1667 28.3228 37.7655C28.2898 38.5942 28.678 39.2498 29.2245 39.844C29.1587 39.8929 29.1587 39.8929 29.0917 39.9429C28.9244 40.0671 28.9244 40.0671 28.8394 40.2313C28.645 40.4176 28.5221 40.4058 28.2594 40.4078C28.2006 40.4067 28.1418 40.4057 28.0813 40.4046C28.0191 40.4046 27.9569 40.4047 27.8928 40.4047C27.6871 40.4045 27.4815 40.4022 27.2758 40.4C27.1332 40.3994 26.9906 40.399 26.8481 40.3987C26.4727 40.3976 26.0974 40.3947 25.7221 40.3915C25.3391 40.3885 24.9562 40.3871 24.5732 40.3856C23.8217 40.3825 23.0703 40.3776 22.3188 40.3713C22.3133 39.9444 22.3091 39.5175 22.3066 39.0906C22.3054 38.8923 22.3037 38.6939 22.301 38.4956C22.2796 36.8047 22.2796 36.8047 22.5549 36.0354C22.5785 35.9688 22.602 35.9021 22.6263 35.8335C22.7746 35.4342 22.9797 35.1219 23.2632 34.8049C23.2926 34.7689 23.3221 34.7329 23.3524 34.6958C23.8251 34.1627 24.5674 33.901 25.2651 33.8565C25.3515 33.851 25.3515 33.851 25.4396 33.8455C25.6369 33.8288 25.7289 33.8168 25.9008 33.7136C26.0105 33.5164 26.0101 33.386 25.9782 33.1643C25.8789 33.0178 25.7955 32.9438 25.6216 32.8987C25.4727 32.8754 25.3239 32.858 25.174 32.842C24.3235 32.732 23.6905 32.4611 23.1308 31.7892C22.9992 31.601 22.8871 31.4078 22.7799 31.2051C22.761 31.1706 22.742 31.1361 22.7225 31.1005C22.2368 30.1319 22.2834 29.0628 22.2821 28.0093C22.2817 27.7252 22.2801 27.4411 22.2777 27.1569C22.2765 27.0065 22.276 26.856 22.2761 26.7056C22.2724 26.0555 22.2724 26.0555 22.0126 25.4702C21.7723 25.2422 21.559 25.1528 21.2306 25.1113C20.7639 25.1682 20.5053 25.3852 20.2203 25.7458C20.1781 25.7925 20.1781 25.7925 20.135 25.8401C20.096 25.8401 20.0571 25.8401 20.0169 25.8401C19.9089 25.708 19.8074 25.575 19.7071 25.4373C19.6431 25.3509 19.579 25.2646 19.5148 25.1784C19.4811 25.1331 19.4475 25.0879 19.4128 25.0412C19.2413 24.8129 19.0648 24.5886 18.8881 24.3643C18.8182 24.2753 18.7482 24.1863 18.6783 24.0974C18.645 24.055 18.6117 24.0127 18.5774 23.969C18.3474 23.6759 18.12 23.3809 17.8921 23.0862C17.8185 22.9911 17.7449 22.8961 17.6712 22.8011C17.6221 22.7377 17.5729 22.6743 17.5238 22.6108C17.3713 22.4139 17.2185 22.2173 17.0654 22.0209C16.9907 21.9247 16.9165 21.8282 16.8424 21.7317C16.7647 21.6313 16.686 21.5318 16.6049 21.4341C16.5198 21.3284 16.5198 21.3284 16.4165 21.1526C16.4883 20.8467 16.7165 20.6002 16.9035 20.3543C16.9787 20.2541 17.054 20.1539 17.1292 20.0537C17.187 19.9771 17.187 19.9771 17.2459 19.899C17.4243 19.6621 17.6011 19.4241 17.7778 19.186C17.8119 19.14 17.8461 19.094 17.8813 19.0466C18.1131 18.7343 18.3425 18.4205 18.5709 18.1057C18.666 17.975 18.7611 17.8443 18.8562 17.7136C18.9236 17.6209 18.9908 17.5282 19.0579 17.4354C19.8796 16.2997 20.6698 15.424 21.9425 14.7842C22.0056 14.7524 22.0686 14.7207 22.1336 14.6879C22.193 14.6591 22.2525 14.6302 22.3137 14.6004C22.394 14.5613 22.394 14.5613 22.476 14.5215C22.6139 14.4729 22.6139 14.4729 22.791 14.5315ZM27.3576 21.2055C27.1659 21.4541 27.1546 21.6674 27.1255 21.9729C27.0162 22.8796 26.7818 23.7387 26.1553 24.4338C26.1553 24.4725 26.1553 24.5112 26.1553 24.551C26.1212 24.5669 26.0871 24.5828 26.052 24.5991C25.9185 24.6686 25.8047 24.7485 25.6831 24.8367C25.1848 25.1665 24.6509 25.2826 24.0611 25.3159C23.8399 25.334 23.7376 25.3695 23.5624 25.5089C23.425 25.6595 23.425 25.6595 23.3997 25.8694C23.4445 26.096 23.5087 26.1655 23.6887 26.3055C23.8676 26.4104 24.0437 26.4156 24.2481 26.4297C25.0171 26.5008 25.6986 26.7707 26.2143 27.3635C26.7534 28.0368 27.0407 28.8059 27.1262 29.6606C27.1305 29.7024 27.1348 29.7442 27.1393 29.7873C27.1507 29.9064 27.1601 30.0257 27.1693 30.1449C27.2277 30.3945 27.3122 30.4876 27.5128 30.6448C27.7472 30.6884 27.834 30.6666 28.0329 30.5349C28.2075 30.3666 28.2297 30.2639 28.2552 30.0307C28.3953 28.8382 28.6593 27.7017 29.6478 26.9092C30.1535 26.5731 30.789 26.4369 31.3899 26.3967C31.5776 26.3823 31.6523 26.3633 31.8252 26.2722C31.9793 26.0846 32.0028 25.964 31.9985 25.7229C31.8943 25.5587 31.8197 25.4583 31.6444 25.3713C31.5644 25.3594 31.4841 25.3498 31.4037 25.3416C30.6019 25.2491 29.7767 25.0784 29.2245 24.4338C28.6255 23.6267 28.356 22.7719 28.2644 21.7846C28.2355 21.4806 28.2355 21.4806 28.103 21.2112C27.8393 21.0366 27.6202 21.0168 27.3576 21.2055Z" fill="#13C06D"/>
<path d="M30.9021 40.2967C30.9577 40.2964 31.0132 40.2961 31.0705 40.2958C31.2564 40.2949 31.4424 40.2948 31.6283 40.2948C31.7617 40.2944 31.8952 40.2939 32.0286 40.2933C32.3909 40.292 32.7532 40.2915 33.1155 40.2912C33.342 40.291 33.5684 40.2906 33.7948 40.2902C34.4224 40.2891 35.0499 40.2881 35.6775 40.2879C35.7176 40.2879 35.7577 40.2879 35.799 40.2879C35.8804 40.2879 35.9617 40.2879 36.043 40.2878C36.0834 40.2878 36.1238 40.2878 36.1654 40.2878C36.226 40.2878 36.226 40.2878 36.2879 40.2878C36.9426 40.2876 37.5973 40.286 38.252 40.2838C38.925 40.2816 39.598 40.2805 40.2709 40.2804C40.6485 40.2804 41.026 40.2799 41.4036 40.2782C41.7588 40.2767 42.1139 40.2765 42.4692 40.2775C42.5993 40.2776 42.7294 40.2772 42.8596 40.2762C44.1655 40.2674 44.1655 40.2674 44.5704 40.6057C44.9429 41.0085 45.0053 41.3205 44.9997 41.8643C44.9695 42.2503 44.8289 42.4795 44.5445 42.7371C44.213 43.0105 43.8991 43.0252 43.4848 43.0237C43.4287 43.024 43.3726 43.0243 43.3148 43.0245C43.1268 43.0253 42.9388 43.0252 42.7507 43.0251C42.616 43.0254 42.4812 43.0258 42.3464 43.0263C41.9802 43.0273 41.614 43.0276 41.2478 43.0277C40.9421 43.0278 40.6365 43.0282 40.3308 43.0286C39.6508 43.0295 38.9708 43.0299 38.2908 43.0298C38.25 43.0298 38.2093 43.0298 38.1672 43.0298C38.1264 43.0298 38.0856 43.0298 38.0435 43.0298C37.3818 43.0297 36.7201 43.0308 36.0585 43.0325C35.3787 43.0342 34.6989 43.035 34.0191 43.0349C33.6376 43.0348 33.2561 43.0352 32.8746 43.0364C32.5158 43.0376 32.157 43.0376 31.7981 43.0367C31.6665 43.0366 31.5349 43.0369 31.4033 43.0376C31.2234 43.0385 31.0436 43.0379 30.8638 43.037C30.8118 43.0376 30.7599 43.0382 30.7064 43.0389C30.3088 43.0345 30.0079 42.9286 29.6973 42.6796C29.4072 42.3356 29.2591 41.9934 29.2872 41.5396C29.3535 41.0923 29.5296 40.7927 29.8751 40.5018C30.2035 40.2995 30.5287 40.2957 30.9021 40.2967Z" fill="#13C06D"/>
<path d="M30.9021 36.5467C30.9577 36.5464 31.0132 36.5461 31.0705 36.5458C31.2564 36.5449 31.4424 36.5448 31.6283 36.5448C31.7617 36.5444 31.8952 36.5439 32.0286 36.5433C32.3909 36.542 32.7532 36.5415 33.1155 36.5412C33.342 36.541 33.5684 36.5406 33.7948 36.5402C34.4224 36.5391 35.0499 36.5381 35.6775 36.5379C35.7176 36.5379 35.7577 36.5379 35.799 36.5379C35.8804 36.5379 35.9617 36.5379 36.043 36.5378C36.0834 36.5378 36.1238 36.5378 36.1654 36.5378C36.226 36.5378 36.226 36.5378 36.2879 36.5378C36.9426 36.5376 37.5973 36.536 38.252 36.5338C38.925 36.5316 39.598 36.5305 40.2709 36.5304C40.6485 36.5304 41.026 36.5299 41.4036 36.5282C41.7588 36.5267 42.1139 36.5265 42.4692 36.5275C42.5993 36.5276 42.7294 36.5272 42.8596 36.5262C44.1655 36.5174 44.1655 36.5174 44.5704 36.8557C44.9429 37.2585 45.0053 37.5705 44.9997 38.1143C44.9695 38.5003 44.8289 38.7295 44.5445 38.9871C44.213 39.2605 43.8991 39.2752 43.4848 39.2737C43.4287 39.274 43.3726 39.2743 43.3148 39.2745C43.1268 39.2753 42.9388 39.2752 42.7507 39.2751C42.616 39.2754 42.4812 39.2758 42.3464 39.2763C41.9802 39.2773 41.614 39.2776 41.2478 39.2777C40.9421 39.2778 40.6365 39.2782 40.3308 39.2786C39.6508 39.2795 38.9708 39.2799 38.2908 39.2798C38.25 39.2798 38.2093 39.2798 38.1672 39.2798C38.1264 39.2798 38.0856 39.2798 38.0435 39.2798C37.3818 39.2797 36.7201 39.2808 36.0585 39.2825C35.3787 39.2842 34.6989 39.285 34.0191 39.2849C33.6376 39.2848 33.2561 39.2852 32.8746 39.2864C32.5158 39.2876 32.157 39.2876 31.7981 39.2867C31.6665 39.2866 31.5349 39.2869 31.4033 39.2876C31.2234 39.2885 31.0436 39.2879 30.8638 39.287C30.8118 39.2876 30.7599 39.2882 30.7064 39.2889C30.3088 39.2845 30.0079 39.1786 29.6973 38.9296C29.4072 38.5856 29.2591 38.2434 29.2872 37.7896C29.3535 37.3423 29.5296 37.0427 29.8751 36.7518C30.2035 36.5495 30.5287 36.5457 30.9021 36.5467Z" fill="#13C06D"/>
<path d="M30.9021 32.7967C30.9577 32.7964 31.0132 32.7961 31.0705 32.7958C31.2564 32.7949 31.4424 32.7948 31.6283 32.7948C31.7617 32.7944 31.8952 32.7939 32.0286 32.7933C32.3909 32.792 32.7532 32.7915 33.1155 32.7912C33.342 32.791 33.5684 32.7906 33.7948 32.7902C34.4224 32.7891 35.0499 32.7881 35.6775 32.7879C35.7176 32.7879 35.7577 32.7879 35.799 32.7879C35.8804 32.7879 35.9617 32.7879 36.043 32.7878C36.0834 32.7878 36.1238 32.7878 36.1654 32.7878C36.226 32.7878 36.226 32.7878 36.2879 32.7878C36.9426 32.7876 37.5973 32.786 38.252 32.7838C38.925 32.7816 39.598 32.7805 40.2709 32.7804C40.6485 32.7804 41.026 32.7799 41.4036 32.7782C41.7588 32.7767 42.1139 32.7765 42.4692 32.7775C42.5993 32.7776 42.7294 32.7772 42.8596 32.7762C44.1655 32.7674 44.1655 32.7674 44.5704 33.1057C44.9429 33.5085 45.0053 33.8205 44.9997 34.3643C44.9695 34.7503 44.8289 34.9795 44.5445 35.2371C44.213 35.5105 43.8991 35.5252 43.4848 35.5237C43.4287 35.524 43.3726 35.5243 43.3148 35.5245C43.1268 35.5253 42.9388 35.5252 42.7507 35.5251C42.616 35.5254 42.4812 35.5258 42.3464 35.5263C41.9802 35.5273 41.614 35.5276 41.2478 35.5277C40.9421 35.5278 40.6365 35.5282 40.3308 35.5286C39.6508 35.5295 38.9708 35.5299 38.2908 35.5298C38.25 35.5298 38.2093 35.5298 38.1672 35.5298C38.1264 35.5298 38.0856 35.5298 38.0435 35.5298C37.3818 35.5297 36.7201 35.5308 36.0585 35.5325C35.3787 35.5342 34.6989 35.535 34.0191 35.5349C33.6376 35.5348 33.2561 35.5352 32.8746 35.5364C32.5158 35.5376 32.157 35.5376 31.7981 35.5367C31.6665 35.5366 31.5349 35.5369 31.4033 35.5376C31.2234 35.5385 31.0436 35.5379 30.8638 35.537C30.8118 35.5376 30.7599 35.5382 30.7064 35.5389C30.3088 35.5345 30.0079 35.4286 29.6973 35.1796C29.4072 34.8356 29.2591 34.4934 29.2872 34.0396C29.3535 33.5923 29.5296 33.2927 29.8751 33.0018C30.2035 32.7995 30.5287 32.7957 30.9021 32.7967Z" fill="#13C06D"/>
<path d="M26.0692 13.0006C26.1388 13.0005 26.2083 13.0003 26.2799 13.0001C26.3949 13.0003 26.3949 13.0003 26.5122 13.0005C26.5934 13.0004 26.6747 13.0003 26.7559 13.0002C26.9769 12.9999 27.1978 13 27.4188 13.0002C27.6497 13.0003 27.8806 13.0002 28.1115 13.0001C28.4993 13 28.8871 13.0001 29.275 13.0004C29.7238 13.0007 30.1725 13.0006 30.6213 13.0003C31.0062 13.0001 31.3911 13 31.7759 13.0002C32.006 13.0003 32.2361 13.0003 32.4661 13.0001C32.6824 12.9999 32.8986 13 33.1149 13.0004C33.2324 13.0005 33.35 13.0003 33.4675 13.0001C33.5718 13.0004 33.5718 13.0004 33.6782 13.0006C33.7389 13.0006 33.7995 13.0007 33.8621 13.0007C34.0053 13.0081 34.0053 13.0081 34.1234 13.0667C34.0384 13.7424 33.6022 14.2715 33.0978 14.7036C32.455 15.1964 31.7257 15.4808 30.9361 15.6448C30.883 15.656 30.8299 15.6671 30.7752 15.6787C29.3962 15.8551 27.9419 15.6465 26.8105 14.8032C26.7696 14.7715 26.7287 14.7399 26.6865 14.7073C26.6256 14.6638 26.5648 14.6203 26.502 14.5754C26.117 14.2098 25.7863 13.7509 25.6241 13.2424C25.6241 13.1844 25.6241 13.1264 25.6241 13.0667C25.7796 12.9895 25.895 13.0007 26.0692 13.0006Z" fill="#13C06D"/>
<path d="M24.6207 13.4768C24.7511 13.6062 24.8084 13.737 24.884 13.902C25.3449 14.8943 26.1182 15.5699 27.0997 16.0549C27.1464 16.0802 27.1932 16.1054 27.2414 16.1314C28.6262 16.8307 30.4097 16.8547 31.8694 16.3913C32.7456 16.0972 33.4628 15.6423 34.1234 15.0003C34.1603 14.9657 34.1972 14.9312 34.2352 14.8957C34.5473 14.5774 34.7197 14.1912 34.9084 13.794C35.0087 13.594 35.0087 13.594 35.1267 13.4768C35.2831 13.5521 35.4392 13.6278 35.5952 13.7039C35.6398 13.7252 35.6843 13.7466 35.7302 13.7686C35.7938 13.7998 35.7938 13.7998 35.8588 13.8316C35.9176 13.8601 35.9176 13.8601 35.9777 13.8892C36.0711 13.9456 36.0711 13.9456 36.1301 14.0628C36.0703 14.2107 36.0068 14.3493 35.9346 14.4912C35.9133 14.5331 35.8921 14.575 35.8702 14.6181C35.1146 16.0557 33.751 17.0309 32.2175 17.5229C30.2886 18.1106 28.2025 17.9678 26.396 17.0648C25.157 16.4119 24.066 15.3404 23.6173 14.0042C23.9484 13.8301 24.2795 13.6561 24.6207 13.4768Z" fill="#13C06D"/>
<path d="M22.3188 41.3674C24.3055 41.3674 26.2922 41.3674 28.3391 41.3674C28.3391 41.5801 28.3391 41.7928 28.3391 42.012C28.4278 42.3639 28.5488 42.6752 28.6933 43.0081C27.9057 43.0148 27.1182 43.0201 26.3306 43.0232C25.9649 43.0248 25.5992 43.0268 25.2336 43.0302C24.8807 43.0333 24.5279 43.0351 24.175 43.0359C24.0403 43.0364 23.9057 43.0375 23.771 43.039C23.5825 43.0412 23.394 43.0415 23.2055 43.0413C23.1497 43.0424 23.0939 43.0434 23.0364 43.0445C22.9849 43.0441 22.9333 43.0437 22.8802 43.0433C22.8357 43.0436 22.7911 43.0438 22.7452 43.0441C22.6139 43.0081 22.6139 43.0081 22.3188 42.7151C22.3188 42.2704 22.3188 41.8256 22.3188 41.3674Z" fill="#13C06D"/>
<path d="M43.9211 21.9729C44.1635 22.0531 44.2573 22.2177 44.4007 22.416C44.4275 22.451 44.4544 22.4859 44.4821 22.5219C44.6763 22.7888 44.7521 22.9884 44.7474 23.3206C44.6554 23.4982 44.6554 23.4982 44.5113 23.6721C44.4846 23.7057 44.4578 23.7393 44.4302 23.774C44.3393 23.8877 44.2466 23.9997 44.1535 24.1116C43.9056 24.4119 43.66 24.7136 43.4194 25.0198C43.1553 25.3556 42.8857 25.6865 42.6142 26.0165C42.3672 26.3173 42.1248 26.6214 41.8856 26.9283C41.5559 27.3492 41.5559 27.3492 41.3057 27.4148C41.043 27.4236 40.9484 27.3972 40.7339 27.2463C40.5855 27.0778 40.4511 26.9016 40.3207 26.719C40.4142 26.5137 40.5378 26.3451 40.6749 26.166C40.6982 26.1355 40.7215 26.1049 40.7456 26.0734C40.8201 25.9759 40.895 25.8787 40.97 25.7815C40.9941 25.7502 41.0182 25.719 41.043 25.6867C41.1901 25.4962 41.3377 25.306 41.4855 25.1159C41.6089 24.9571 41.7321 24.798 41.8553 24.6389C41.9045 24.5754 41.9537 24.512 42.0029 24.4485C42.0272 24.4171 42.0516 24.3857 42.0767 24.3533C42.6915 23.5598 43.3063 22.7664 43.9211 21.9729Z" fill="#13C06D"/>
<path d="M15.7083 21.9729C15.9429 22.0622 16.0433 22.2015 16.1878 22.4014C16.2347 22.4653 16.2817 22.5293 16.3287 22.5932C16.3528 22.6262 16.377 22.6593 16.4019 22.6934C16.5208 22.8545 16.6439 23.0124 16.767 23.1704C16.8167 23.2344 16.8664 23.2984 16.9162 23.3624C16.9532 23.4101 16.9532 23.4101 16.9911 23.4588C17.1145 23.6176 17.2377 23.7767 17.3609 23.9358C17.4101 23.9993 17.4593 24.0628 17.5085 24.1262C17.9511 24.6975 17.9511 24.6975 18.3938 25.2688C18.4182 25.3003 18.4426 25.3317 18.4678 25.3641C18.5165 25.4271 18.5651 25.4902 18.6136 25.5534C18.7422 25.7208 18.8733 25.8852 19.0089 26.047C19.0508 26.098 19.0508 26.098 19.0935 26.1501C19.1472 26.2154 19.2018 26.2801 19.2572 26.344C19.3299 26.4334 19.3299 26.4334 19.4267 26.6018C19.3533 26.9308 19.1201 27.175 18.8439 27.3599C18.5966 27.4433 18.4955 27.4516 18.2462 27.3635C18.0451 27.1877 17.8818 26.9853 17.715 26.7776C17.6904 26.7469 17.6657 26.7163 17.6403 26.6847C17.5057 26.5168 17.3726 26.3479 17.2401 26.1784C17.0576 25.9456 16.8701 25.717 16.6821 25.4885C16.386 25.1281 16.0932 24.7654 15.8058 24.3981C15.699 24.2617 15.5901 24.1272 15.4798 23.9935C15.4256 23.9266 15.3714 23.8598 15.3172 23.793C15.269 23.7344 15.2208 23.6759 15.1711 23.6156C15.0424 23.4113 15.0099 23.2671 15 23.0276C15.0706 22.869 15.1361 22.7566 15.2361 22.6174C15.276 22.5616 15.316 22.5058 15.3571 22.4483C15.4729 22.2889 15.59 22.1305 15.7083 21.9729Z" fill="#13C06D"/>
<path d="M21.7837 31.7269C21.9647 31.7581 21.9647 31.7581 22.0751 31.8846C22.1056 31.9408 22.1361 31.9969 22.1676 32.0547C22.4561 32.5424 22.753 32.8158 23.2609 33.0732C23.3812 33.1643 23.3812 33.1643 23.4389 33.3103C23.4402 33.4573 23.4402 33.4573 23.3708 33.5536C23.2555 33.6387 23.1382 33.7156 23.016 33.7905C22.5723 34.0809 22.2545 34.4217 21.9953 34.8818C21.9057 34.9807 21.9057 34.9807 21.7602 35.0139C21.6105 34.9807 21.6105 34.9807 21.5059 34.8541C21.4591 34.77 21.4591 34.77 21.4113 34.6841C21.1065 34.1769 20.7832 33.905 20.2625 33.6198C20.135 33.5159 20.135 33.5159 20.096 33.3708C20.135 33.2229 20.135 33.2229 20.2733 33.1103C20.3348 33.0749 20.3963 33.0396 20.4596 33.0032C20.9416 32.7034 21.2783 32.3507 21.528 31.8421C21.6105 31.7581 21.6105 31.7581 21.7837 31.7269Z" fill="#13C06D"/>
<path d="M27.7175 24.2265C27.8669 24.2581 27.8669 24.2581 27.9758 24.3739C28.008 24.4251 28.0403 24.4763 28.0735 24.5291C28.1092 24.5828 28.1449 24.6366 28.1817 24.692C28.2304 24.7673 28.2304 24.7673 28.2801 24.844C28.5114 25.172 28.794 25.3528 29.1332 25.5684C29.2835 25.6643 29.2835 25.6643 29.3425 25.7229C29.3686 25.8573 29.3686 25.8573 29.3425 26.0159C29.2233 26.115 29.1164 26.1899 28.9847 26.2686C28.5168 26.5688 28.2014 26.8986 27.9458 27.3947C27.8669 27.4807 27.8669 27.4807 27.7233 27.5102C27.5718 27.4807 27.5718 27.4807 27.4651 27.367C27.4334 27.3163 27.4016 27.2656 27.3689 27.2134C27.3333 27.1597 27.2977 27.106 27.261 27.0506C27.2273 26.9992 27.1935 26.9478 27.1587 26.8948C26.911 26.5437 26.6101 26.3488 26.2387 26.1326C26.0963 26.0159 26.0963 26.0159 26.0564 25.8698C26.1136 25.6591 26.2207 25.6067 26.4024 25.4885C26.8544 25.181 27.1905 24.8257 27.4755 24.3608C27.5718 24.2581 27.5718 24.2581 27.7175 24.2265Z" fill="#13C06D"/>
</svg>
