<svg width="60" height="60" viewBox="0 0 60 60" fill="none" xmlns="http://www.w3.org/2000/svg">
<path d="M0 16C0 7.16344 7.16345 0 16 0H44C52.8366 0 60 7.16345 60 16V44C60 52.8366 52.8366 60 44 60H16C7.16344 60 0 52.8366 0 44V16Z" fill="#D5F0FF"/>
<path d="M14.9141 42.8476C25.2008 42.8476 35.4875 42.8476 46.0859 42.8476C46.0859 44.8779 46.0859 46.9082 46.0859 49C35.7992 49 25.5125 49 14.9141 49C14.9141 46.9697 14.9141 44.9394 14.9141 42.8476Z" fill="#18AEFF"/>
<path d="M30.2755 13.9646C30.4007 13.9639 30.4007 13.9639 30.5285 13.9632C30.7552 13.9622 30.9818 13.9624 31.2086 13.9633C31.4473 13.964 31.686 13.9633 31.9248 13.9629C32.3256 13.9624 32.7263 13.963 33.1271 13.9643C33.5885 13.9658 34.0498 13.9653 34.5112 13.9638C34.9093 13.9626 35.3075 13.9624 35.7056 13.9631C35.9425 13.9636 36.1794 13.9636 36.4163 13.9627C36.6808 13.9618 36.9453 13.9631 37.2097 13.9646C37.2868 13.9641 37.3638 13.9635 37.4432 13.9629C38.1429 13.9703 38.7591 14.1603 39.3613 14.513C39.4392 14.558 39.5171 14.6031 39.5973 14.6495C39.6766 14.6965 39.756 14.7434 39.8353 14.7904C39.9504 14.8573 39.9504 14.8573 40.0678 14.9256C40.1066 14.9483 40.1455 14.971 40.1855 14.9944C40.2666 15.0415 40.3479 15.0881 40.4295 15.1344C40.663 15.2681 40.8834 15.4094 41.1008 15.568C42.0803 16.2517 43.0208 16.2198 44.1847 16.2003C44.8121 16.1961 45.4395 16.1918 46.0859 16.1875C46.0859 18.7817 46.0859 21.376 46.0859 24.0488C44.2103 24.0232 44.2103 24.0232 43.6302 24.0076C42.4184 23.9978 41.6048 24.2765 40.6019 24.9494C40.2866 25.1567 39.958 25.3404 39.6302 25.5271C39.5192 25.592 39.4082 25.657 39.2973 25.722C38.782 26.0108 38.2542 26.2436 37.6581 26.2464C37.5849 26.2469 37.5117 26.2474 37.4363 26.2479C37.3163 26.2481 37.3163 26.2481 37.1939 26.2484C37.1094 26.2489 37.0249 26.2493 36.9379 26.2498C36.6579 26.2511 36.378 26.2519 36.098 26.2526C36.0014 26.2529 35.9049 26.2532 35.8083 26.2535C35.3545 26.2548 34.9008 26.2557 34.447 26.2563C33.9241 26.257 33.4011 26.2588 32.8782 26.2615C32.4734 26.2636 32.0687 26.2646 31.6639 26.2648C31.4224 26.265 31.1809 26.2656 30.9395 26.2673C30.6698 26.2692 30.4002 26.2689 30.1305 26.2684C30.0114 26.2698 30.0114 26.2698 29.8898 26.2711C29.3661 26.2677 28.9726 26.2057 28.5819 25.8262C28.5508 25.781 28.5197 25.7359 28.4877 25.6894C28.4553 25.6443 28.423 25.5992 28.3897 25.5527C28.2096 25.2337 28.2102 24.885 28.2441 24.5273C28.3835 24.1093 28.5675 23.7812 28.9544 23.557C29.3346 23.3736 29.6863 23.4414 30.0941 23.4881C32.0994 23.6833 32.0994 23.6833 33.897 22.9371C35.2971 21.7555 35.2971 21.7555 36.1284 20.1956C36.1293 20.139 36.1302 20.0824 36.1311 20.0242C36.133 19.9679 36.135 19.9117 36.137 19.8538C36.0613 19.4215 35.6782 19.0657 35.4048 18.7339C35.3258 18.6372 35.2469 18.5406 35.1679 18.4439C35.0617 18.3142 34.9554 18.1845 34.8488 18.055C34.7704 17.9597 34.6924 17.864 34.6144 17.7683C34.5716 17.7163 34.5289 17.6643 34.4849 17.6108C34.3965 17.4863 34.3965 17.4863 34.3965 17.3496C32.8726 17.0958 30.7884 16.7566 29.4366 17.6959C28.311 18.5451 27.3571 19.6591 26.4711 20.7491C26.0712 21.2385 25.7067 21.6574 25.0374 21.7409C24.5445 21.7579 24.1038 21.6546 23.7244 21.3257C23.3235 20.8914 23.2231 20.5094 23.2374 19.9248C23.3155 19.063 24.265 18.3762 24.8425 17.7955C24.8857 17.7521 24.9289 17.7086 24.9734 17.6638C25.2018 17.4339 25.4304 17.2043 25.6592 16.9749C25.894 16.7394 26.128 16.503 26.3618 16.2665C26.5432 16.0833 26.7252 15.9007 26.9074 15.7183C26.9939 15.6315 27.0801 15.5445 27.1661 15.4572C28.0771 14.5335 28.9327 13.955 30.2755 13.9646Z" fill="#18AEFF"/>
<path d="M19.3574 34.5078C19.5498 34.4835 19.7276 34.4727 19.9206 34.4704C20.008 34.4682 20.008 34.4682 20.0971 34.466C20.2906 34.4616 20.4841 34.4589 20.6776 34.4565C20.7438 34.4556 20.8099 34.4547 20.878 34.4537C21.2285 34.4491 21.579 34.4458 21.9295 34.4435C22.2907 34.4409 22.6515 34.4331 23.0126 34.4242C23.2909 34.4183 23.5692 34.4164 23.8476 34.4155C23.9806 34.4144 24.1136 34.4118 24.2466 34.4076C25.2602 34.3776 25.2602 34.3776 25.5618 34.5943C25.737 34.7695 25.8679 34.9598 25.9923 35.1733C26.6349 36.2543 28.0696 36.8181 29.23 37.1193C30.8764 37.486 32.5006 37.0951 33.918 36.2168C34.4762 35.8192 35.0758 35.3243 35.3941 34.7064C35.5586 34.5078 35.5586 34.5078 35.8178 34.4507C35.9243 34.4459 36.0308 34.4435 36.1373 34.4428C36.1956 34.4409 36.2538 34.4389 36.3139 34.437C36.5067 34.4313 36.6993 34.4289 36.8921 34.4269C37.0265 34.4247 37.1609 34.4225 37.2953 34.4203C37.5772 34.4163 37.8591 34.4142 38.141 34.413C38.5012 34.4112 38.8608 34.402 39.2208 34.3911C39.4986 34.384 39.7762 34.3821 40.0541 34.3816C40.1867 34.3805 40.3194 34.3774 40.4519 34.3724C41.459 34.337 41.459 34.337 41.7637 34.6206C41.9795 34.8987 42.1266 35.2025 42.2629 35.5255C42.3567 35.7395 42.4739 35.9344 42.5937 36.1348C42.6784 36.2831 42.7629 36.4315 42.8474 36.5799C42.8941 36.6619 42.9409 36.7438 42.9876 36.8257C43.084 36.9947 43.1803 37.1636 43.2766 37.3326C43.4159 37.577 43.5554 37.8212 43.695 38.0654C43.7175 38.1048 43.74 38.1442 43.7631 38.1847C43.8759 38.3819 43.9886 38.5791 44.1013 38.7763C44.3155 39.151 44.5296 39.5258 44.7433 39.9008C44.8445 40.0784 44.9459 40.2559 45.0472 40.4335C45.0956 40.5184 45.1439 40.6033 45.1923 40.6882C45.2592 40.8057 45.3262 40.9232 45.3933 41.0407C45.4314 41.1076 45.4696 41.1745 45.5089 41.2435C45.5831 41.3706 45.6625 41.4947 45.7441 41.6172C45.7441 41.6849 45.7441 41.7525 45.7441 41.8223C35.683 41.8223 25.6219 41.8223 15.2559 41.8223C15.3193 41.5683 15.3954 41.4022 15.5216 41.176C15.5627 41.1021 15.6038 41.0282 15.6461 40.952C15.6912 40.8718 15.7363 40.7916 15.7814 40.7114C15.8279 40.6281 15.8745 40.5448 15.921 40.4615C16.2573 39.861 16.6023 39.2658 16.951 38.6724C17.2354 38.1877 17.5119 37.6991 17.7852 37.208C18.1153 36.6149 18.4513 36.0255 18.7935 35.4392C18.8343 35.3693 18.8751 35.2994 18.9171 35.2273C19.2015 34.7416 19.2015 34.7416 19.3574 34.5078ZM24.5527 38.6094C24.4224 38.7832 24.4156 38.873 24.4246 39.0922C24.4961 39.3322 24.5428 39.3765 24.7578 39.498C24.9764 39.5293 24.9764 39.5293 25.2244 39.525C25.2947 39.5256 25.2947 39.5256 25.3665 39.5263C25.5235 39.5274 25.6806 39.5271 25.8377 39.5267C25.9503 39.5272 26.0629 39.5278 26.1756 39.5285C26.4815 39.53 26.7874 39.5302 27.0933 39.5301C27.3486 39.5301 27.604 39.5307 27.8593 39.5312C28.4617 39.5325 29.064 39.5327 29.6663 39.5323C30.2879 39.5318 30.9094 39.5334 31.5309 39.5359C32.0644 39.538 32.5979 39.5388 33.1315 39.5385C33.4502 39.5384 33.7689 39.5388 34.0875 39.5404C34.3872 39.542 34.6869 39.5418 34.9866 39.5404C35.0966 39.5402 35.2065 39.5406 35.3165 39.5415C35.4667 39.5428 35.6167 39.5419 35.7669 39.5405C35.851 39.5406 35.935 39.5406 36.0215 39.5407C36.305 39.4859 36.4088 39.3815 36.584 39.1562C36.584 38.9262 36.5607 38.803 36.4174 38.6222C36.1878 38.4477 36.0134 38.4639 35.7284 38.4635C35.6822 38.4633 35.6359 38.4632 35.5882 38.463C35.4325 38.4626 35.2767 38.4627 35.121 38.4627C35.0096 38.4625 34.8982 38.4623 34.7868 38.462C34.4837 38.4614 34.1806 38.4613 33.8775 38.4612C33.6248 38.4611 33.372 38.4609 33.1192 38.4607C32.5229 38.4601 31.9266 38.4599 31.3303 38.46C30.7147 38.46 30.0991 38.4593 29.4834 38.4582C28.9554 38.4573 28.4273 38.457 27.8992 38.457C27.5836 38.457 27.268 38.4568 26.9524 38.4561C26.6556 38.4554 26.3588 38.4554 26.062 38.4559C25.953 38.456 25.844 38.4558 25.735 38.4554C25.5863 38.4549 25.4376 38.4552 25.2889 38.4557C25.2057 38.4557 25.1224 38.4557 25.0367 38.4556C24.8338 38.472 24.7209 38.4985 24.5527 38.6094Z" fill="#18AEFF"/>
<path d="M28.1758 26.8014C28.3123 26.8515 28.43 26.9118 28.556 26.984C29.1813 27.3008 29.8779 27.279 30.5628 27.2732C30.6983 27.2735 30.8338 27.2738 30.9693 27.2742C31.2997 27.2752 31.6301 27.2751 31.9606 27.2723C32.1473 27.2707 32.3339 27.2705 32.5206 27.2716C32.6953 27.2726 32.8701 27.2718 33.0449 27.2689C33.4512 27.2735 33.7185 27.2897 34.0334 27.5611C34.1112 27.6414 34.187 27.7238 34.2598 27.8086C34.3445 27.9015 34.3445 27.9015 34.4309 27.9963C35.1871 28.985 35.6799 30.2344 35.5586 31.5C35.5522 31.5712 35.5459 31.6424 35.5394 31.7157C35.3794 33.1062 34.748 34.2945 33.683 35.1957C32.5 36.0673 31.146 36.4214 29.684 36.2287C28.3347 36.0121 27.1439 35.2518 26.3429 34.1489C25.5159 32.8825 25.2734 31.5012 25.5714 30.0268C25.8689 28.7254 26.6966 27.6506 27.7955 26.9071C28.0391 26.7832 28.0391 26.7832 28.1758 26.8014ZM28.1074 28.9707C27.7498 29.3856 27.6095 29.8879 27.6372 30.4327C27.7178 30.9091 27.9577 31.3197 28.3299 31.6274C28.7629 31.9263 29.1463 32.0561 29.6797 31.9785C30.0976 31.8565 30.5078 31.6901 30.9033 31.5088C31.2558 31.3482 31.4282 31.339 31.7988 31.4316C31.9883 31.6263 32.0348 31.7737 32.0381 32.0426C32.0286 32.2905 32.0071 32.3833 31.8757 32.6023C31.5752 32.7826 31.3209 32.7934 30.9785 32.7305C30.8406 32.6412 30.7037 32.5502 30.5684 32.457C30.3065 32.457 30.158 32.47 29.9531 32.6365C29.8474 32.8876 29.8684 33.0186 29.9531 33.2773C30.3066 33.6711 30.818 33.8719 31.3398 33.9014C31.8656 33.8708 32.3656 33.6402 32.7174 33.2474C33.0539 32.8036 33.1792 32.3994 33.166 31.8418C33.0561 31.2602 32.7597 30.8178 32.2773 30.4746C31.9048 30.2777 31.5325 30.2004 31.1152 30.2695C30.7445 30.3869 30.3892 30.5385 30.0346 30.6973C29.6847 30.8496 29.4455 30.9383 29.0645 30.8164C28.8978 30.7181 28.8978 30.7181 28.791 30.543C28.7297 30.2007 28.7388 29.9464 28.9192 29.6457C29.22 29.4652 29.4737 29.4552 29.8164 29.5176C30.0386 29.6543 30.0386 29.6543 30.2266 29.791C30.4813 29.8318 30.5855 29.826 30.7991 29.6799C30.9462 29.4649 30.9563 29.3636 30.9102 29.1074C30.6433 28.6769 30.2831 28.5082 29.8007 28.3848C29.1556 28.2775 28.5673 28.52 28.1074 28.9707Z" fill="#18AEFF"/>
<path d="M32.0639 18.4065C32.1118 18.4186 32.1597 18.4308 32.209 18.4433C31.9262 18.7801 31.6328 19.0988 31.3222 19.41C31.2781 19.4543 31.2339 19.4987 31.1885 19.5444C31.0959 19.6373 31.0032 19.7301 30.9105 19.8229C30.769 19.9646 30.628 20.1068 30.487 20.249C30.3966 20.3396 30.3061 20.4303 30.2156 20.5208C30.1529 20.5843 30.1529 20.5843 30.0889 20.649C29.6987 21.0372 29.3666 21.2506 28.8081 21.2674C28.4415 21.2658 28.2149 21.1579 27.9023 20.9726C27.9023 20.7339 27.9337 20.7051 28.0842 20.5309C28.1244 20.4844 28.1646 20.4379 28.2061 20.39C28.4472 20.1205 28.6913 19.8546 28.9406 19.5926C28.9924 19.5381 29.0442 19.4836 29.0976 19.4274C30.0349 18.4631 30.7142 18.114 32.0639 18.4065Z" fill="#18AEFF"/>
<path d="M33.82 18.4552C34.0601 18.5368 34.1617 18.6794 34.3196 18.8749C34.3744 18.9409 34.4292 19.0069 34.4857 19.0749C34.6016 19.2637 34.6016 19.2637 34.5922 19.3926C34.4565 19.7248 34.138 19.9672 33.8881 20.2164C33.8289 20.2775 33.7697 20.3386 33.7088 20.4016C33.2538 20.8579 32.7969 21.2422 32.1321 21.2845C31.7865 21.2676 31.547 21.1475 31.252 20.9726C31.3445 20.7669 31.4486 20.6211 31.6059 20.46C31.6499 20.4146 31.694 20.3693 31.7393 20.3225C31.8107 20.2503 31.8107 20.2503 31.8835 20.1766C31.9325 20.1268 31.9816 20.0769 32.0322 20.0256C32.1359 19.9205 32.2399 19.8157 32.344 19.711C32.5034 19.5503 32.6614 19.3881 32.8193 19.2259C32.9203 19.124 33.0213 19.0222 33.1225 18.9205C33.1696 18.8717 33.2168 18.8229 33.2654 18.7725C33.3101 18.7282 33.3548 18.684 33.4008 18.6383C33.4397 18.5989 33.4786 18.5595 33.5187 18.5189C33.6445 18.4433 33.6445 18.4433 33.82 18.4552Z" fill="#18AEFF"/>
</svg>
