<svg width="60" height="60" viewBox="0 0 60 60" fill="none" xmlns="http://www.w3.org/2000/svg">
<g clip-path="url(#clip0_4_48)">
<path d="M0 16C0 7.16344 7.16345 0 16 0H44C52.8366 0 60 7.16345 60 16V44C60 52.8366 52.8366 60 44 60H16C7.16344 60 0 52.8366 0 44V16Z" fill="#B3FFBB"/>
<path d="M31.0748 10.3266C31.1439 10.3541 31.213 10.3815 31.2842 10.4098C31.5154 10.5018 31.7464 10.5944 31.9773 10.6871C32.1431 10.7532 32.3089 10.8193 32.4747 10.8853C32.9247 11.0647 33.3744 11.2447 33.8241 11.4247C34.1992 11.5749 34.5745 11.7247 34.9497 11.8744C38.1724 13.1607 41.3922 14.4543 44.6111 15.7502C44.7838 15.8197 44.9566 15.8893 45.1293 15.9588C45.4499 16.0879 45.7705 16.217 46.091 16.3462C46.2329 16.4033 46.3747 16.4604 46.5165 16.5175C46.5806 16.5434 46.6447 16.5692 46.7107 16.5959C46.9428 16.6892 47.1736 16.7804 47.411 16.8596C47.411 16.9111 47.411 16.9627 47.411 17.0158C45.7868 17.6603 44.1625 18.3049 42.4891 18.9689C42.7351 19.133 42.9643 19.2226 43.2411 19.3254C43.7309 19.5076 43.7309 19.5076 43.8172 19.5939C43.8241 19.7966 43.8262 19.9971 43.8249 20.1997C43.8247 20.2906 43.8247 20.2906 43.8245 20.3833C43.8241 20.5775 43.8231 20.7718 43.8221 20.966C43.8217 21.0974 43.8214 21.2288 43.821 21.3601C43.8202 21.6829 43.8188 22.0056 43.8172 22.3283C43.9038 22.3519 43.9904 22.3754 44.0796 22.3997C44.6024 22.5556 44.9468 22.9146 45.2235 23.3781C45.4886 23.9687 45.5011 24.6996 45.2967 25.3111C45.1673 25.5769 45.0422 25.7908 44.8329 26.0002C44.8503 26.231 44.8781 26.4503 44.915 26.6783C44.9314 26.7859 44.9314 26.7859 44.9481 26.8956C44.9866 27.1442 45.0267 27.3925 45.0672 27.6408C45.0823 27.733 45.0973 27.8252 45.1127 27.9201C45.2303 28.638 45.3512 29.3553 45.4725 30.0725C45.5268 30.3934 45.581 30.7143 45.635 31.0352C45.6683 31.2332 45.7017 31.4312 45.7354 31.6292C45.7503 31.7177 45.7652 31.8062 45.7805 31.8974C45.7937 31.9752 45.8068 32.0531 45.8204 32.1332C45.8485 32.3283 45.8485 32.3283 45.8485 32.5627C45.1782 32.5627 44.5079 32.5627 43.8172 32.5627C43.8172 33.001 43.8172 33.4393 43.8172 33.8908C43.9461 33.9424 44.075 33.9939 44.2079 34.0471C44.549 34.2839 44.8919 34.5659 45.0376 34.9666C45.0798 35.2145 45.0744 35.4557 45.0721 35.7069C45.0714 35.8057 45.0707 35.9044 45.07 36.0061C45.0691 36.0815 45.0682 36.1569 45.0672 36.2346C45.1118 36.2349 45.1565 36.2351 45.2024 36.2354C45.6689 36.2387 46.1353 36.2441 46.6017 36.2508C46.7755 36.253 46.9493 36.2546 47.1232 36.2557C47.3738 36.2574 47.6243 36.2611 47.8749 36.2651C47.9905 36.2652 47.9905 36.2652 48.1085 36.2654C48.6807 36.2774 49.1044 36.3976 49.5393 36.7787C49.5814 36.8296 49.6235 36.8804 49.6668 36.9328C49.7101 36.9835 49.7535 37.0341 49.7981 37.0863C50.148 37.5942 50.1199 38.1386 50.0672 38.7346C49.9367 39.2516 49.5637 39.614 49.1297 39.9064C49.0266 39.9322 48.9235 39.958 48.8172 39.9846C48.8172 41.8924 48.8172 43.8002 48.8172 45.7658C48.9719 45.8174 49.1266 45.8689 49.286 45.9221C49.6556 46.194 49.9766 46.5576 50.0672 47.0158C50.1261 47.6322 50.1585 48.2319 49.7547 48.7346C49.3804 49.1277 49.0374 49.415 48.4796 49.4575C48.3798 49.4576 48.28 49.4577 48.1772 49.4578C48.0932 49.4582 48.0932 49.4582 48.0075 49.4586C47.8193 49.4593 47.6312 49.459 47.443 49.4586C47.3069 49.4589 47.1708 49.4592 47.0348 49.4597C46.6604 49.4606 46.286 49.4606 45.9116 49.4604C45.508 49.4604 45.1043 49.4612 44.7007 49.462C43.9095 49.4633 43.1184 49.4637 42.3272 49.4638C41.6839 49.4639 41.0405 49.4642 40.3972 49.4647C38.5728 49.4661 36.7484 49.4668 34.9239 49.4667C34.7764 49.4667 34.7764 49.4667 34.6258 49.4666C34.5273 49.4666 34.4287 49.4666 34.3272 49.4666C32.7322 49.4666 31.1372 49.4681 29.5421 49.4703C27.9039 49.4725 26.2657 49.4736 24.6276 49.4734C23.708 49.4734 22.7885 49.4738 21.8689 49.4755C21.0856 49.4769 20.3023 49.4773 19.519 49.4762C19.1196 49.4757 18.7203 49.4757 18.3209 49.477C17.9546 49.4783 17.5883 49.478 17.2219 49.4767C17.0901 49.4764 16.9583 49.4767 16.8265 49.4776C15.7419 49.4843 14.6861 49.3581 13.7147 48.8322C13.6633 48.8053 13.6119 48.7784 13.5589 48.7507C11.9575 47.8916 10.8937 46.5797 10.287 44.8811C9.77987 43.1961 9.95032 41.3565 10.7547 39.8017C11.6104 38.2248 12.8515 37.29 14.4422 36.5471C14.3978 36.511 14.3534 36.475 14.3077 36.4378C13.3922 35.6645 12.7492 34.6188 12.5672 33.4221C12.5451 33.1401 12.5411 32.8601 12.5428 32.5773C12.5433 32.5015 12.5437 32.4257 12.5442 32.3476C12.5675 30.9652 13.1016 29.8642 14.0614 28.8762C15.7875 27.2487 17.7346 27.5627 20.0672 27.5627C20.0286 23.7728 20.0286 23.7728 19.9891 19.9064C17.5915 18.9525 15.1938 17.9986 12.7235 17.0158C12.7235 16.9643 12.7235 16.9127 12.7235 16.8596C12.8106 16.8249 12.8978 16.7903 12.9876 16.7546C14.1317 16.3 15.2758 15.845 16.4198 15.3898C16.5129 15.3528 16.606 15.3157 16.7019 15.2776C20.8169 13.6402 24.9269 11.9904 29.035 10.3361C29.1488 10.2903 29.2627 10.2448 29.3767 10.1996C29.4959 10.1508 29.6127 10.0965 29.7287 10.0408C30.1861 9.89972 30.6531 10.1565 31.0748 10.3266ZM29.6887 11.5042C29.6259 11.5294 29.563 11.5546 29.4982 11.5806C29.429 11.6087 29.3597 11.6368 29.2883 11.6657C29.2152 11.6951 29.1421 11.7246 29.0667 11.7549C28.8217 11.8535 28.5769 11.9525 28.332 12.0515C28.1591 12.1212 27.9862 12.1908 27.8133 12.2605C27.4445 12.409 27.0757 12.5577 26.707 12.7065C25.8465 13.0538 24.9857 13.4003 24.1249 13.7468C23.9335 13.8238 23.742 13.9009 23.5506 13.978C21.8526 14.6616 20.1527 15.3405 18.451 16.0148C18.3946 16.0372 18.3383 16.0595 18.2802 16.0826C17.626 16.3419 16.9717 16.6009 16.3172 16.8596C16.3172 16.9111 16.3172 16.9627 16.3172 17.0158C16.4584 17.0719 16.4584 17.0719 16.6023 17.1292C17.2363 17.3812 17.8702 17.6333 18.5041 17.8855C18.5936 17.9211 18.6832 17.9567 18.7754 17.9934C18.9625 18.0679 19.1496 18.1423 19.3367 18.2168C19.8692 18.4287 20.4019 18.6404 20.9346 18.8518C21.4669 19.0631 21.9991 19.2746 22.5312 19.4862C22.6033 19.5149 22.6033 19.5149 22.6767 19.5441C23.8755 20.0209 25.0721 20.5021 26.2637 20.9966C26.452 21.0746 26.6404 21.1524 26.8289 21.2301C26.9479 21.2792 27.0668 21.3282 27.1858 21.3773C27.2426 21.4007 27.2993 21.4241 27.3578 21.4482C27.6856 21.5836 28.0124 21.7209 28.3387 21.8598C28.4896 21.9236 28.6408 21.9864 28.7922 22.0488C28.9711 22.1225 29.1495 22.1979 29.3269 22.2753C29.4436 22.3226 29.4436 22.3226 29.5627 22.3708C29.6287 22.3987 29.6946 22.4266 29.7626 22.4553C30.1084 22.5 30.373 22.3765 30.6922 22.2502C30.7543 22.2264 30.8163 22.2027 30.8802 22.1782C31.0839 22.0993 31.2866 22.0182 31.4892 21.9367C31.5655 21.9062 31.6418 21.8757 31.7204 21.8442C31.9703 21.7443 32.2201 21.644 32.4699 21.5437C32.644 21.474 32.8182 21.4042 32.9923 21.3345C33.449 21.1517 33.9056 20.9686 34.3621 20.7855C34.8287 20.5984 35.2953 20.4115 35.762 20.2246C36.6763 19.8583 37.5906 19.4919 38.5047 19.1252C38.5047 19.0736 38.5047 19.0221 38.5047 18.9689C36.4158 18.1628 34.3239 17.3648 32.2305 16.5704C31.457 16.2769 30.684 15.9824 29.911 15.6877C29.9678 15.2559 30.0934 14.8518 30.2235 14.4377C30.785 14.6508 31.3466 14.8641 31.9081 15.0773C31.9942 15.1101 32.0804 15.1428 32.1692 15.1765C33.2065 15.5706 34.2435 15.9652 35.2799 16.3612C35.4215 16.4153 35.4215 16.4153 35.566 16.4705C36.1068 16.6772 36.6476 16.884 37.1884 17.0909C37.4368 17.1858 37.6855 17.2801 37.9341 17.3745C38.2739 17.5036 38.6123 17.6358 38.9502 17.7698C39.1189 17.8357 39.2876 17.9015 39.4563 17.9674C39.5719 18.0142 39.5719 18.0142 39.6898 18.062C40.4024 18.3375 40.866 18.2021 41.5513 17.9237C41.649 17.8849 41.649 17.8849 41.7486 17.8452C41.955 17.763 42.161 17.68 42.367 17.5969C42.5076 17.5407 42.6481 17.4846 42.7886 17.4286C43.1318 17.2916 43.4746 17.1539 43.8172 17.0158C43.8172 16.9643 43.8172 16.9127 43.8172 16.8596C43.7232 16.8222 43.6291 16.7848 43.5321 16.7462C42.4273 16.307 41.3225 15.8675 40.2178 15.428C40.0237 15.3507 39.8296 15.2735 39.6355 15.1963C35.555 13.5729 35.555 13.5729 33.6595 12.8074C33.5966 12.782 33.5337 12.7566 33.4689 12.7305C32.896 12.4991 32.3232 12.2674 31.7508 12.0348C31.5977 11.9726 31.4444 11.9105 31.2912 11.8485C31.1093 11.7748 30.9274 11.7008 30.7457 11.6266C30.6678 11.5951 30.5899 11.5636 30.5097 11.5311C30.4425 11.5038 30.3753 11.4765 30.3061 11.4483C30.0558 11.3588 29.9279 11.4076 29.6887 11.5042ZM40.0672 19.9064C40.0672 22.433 40.0672 24.9596 40.0672 27.5627C40.5055 27.5627 40.9438 27.5627 41.3954 27.5627C41.4558 27.2436 41.4558 27.2436 41.5174 26.9182C41.5304 26.8517 41.5433 26.7852 41.5567 26.7167C41.5664 26.6635 41.5761 26.6104 41.5861 26.5556C41.5963 26.5016 41.6066 26.4476 41.6171 26.392C41.6425 26.0752 41.5276 25.8631 41.3563 25.6047C41.0002 25.0653 41.012 24.4405 41.0829 23.8127C41.2351 23.2769 41.5447 22.8552 42.0204 22.5627C42.2008 22.4853 42.3813 22.408 42.5672 22.3283C42.5672 21.7353 42.5672 21.1424 42.5672 20.5314C42.1926 20.3816 42.1926 20.3816 41.8104 20.2287C41.0047 19.9064 41.0047 19.9064 40.8003 19.8188C40.4799 19.7007 40.3797 19.7502 40.0672 19.9064ZM21.3172 20.4533C21.2918 21.4163 21.2724 22.3792 21.2606 23.3424C21.2549 23.7898 21.2472 24.2369 21.2347 24.6841C21.2228 25.1163 21.2163 25.5481 21.2135 25.9804C21.2115 26.1448 21.2075 26.3092 21.2016 26.4735C21.1438 27.3271 21.1438 27.3271 21.4238 28.1064C21.7138 28.4081 22.0468 28.6114 22.411 28.8127C22.5357 28.8911 22.6603 28.9696 22.7848 29.0483C22.8954 29.108 23.0068 29.1662 23.119 29.2228C23.1806 29.2545 23.2423 29.2861 23.3058 29.3187C26.8912 31.0967 31.6425 31.117 35.3999 29.9101C36.5093 29.5286 37.5283 29.0252 38.4266 28.2658C38.494 28.2259 38.5613 28.1861 38.6307 28.145C38.8687 27.9005 38.863 27.7689 38.8658 27.4385C38.8637 27.335 38.8637 27.335 38.8616 27.2294C38.8616 27.1562 38.8617 27.083 38.8618 27.0076C38.8615 26.7657 38.8584 26.524 38.8554 26.2822C38.8547 26.1145 38.8541 25.9468 38.8537 25.7791C38.8522 25.3377 38.8484 24.8965 38.8441 24.4551C38.8401 24.0048 38.8383 23.5544 38.8363 23.1041C38.8321 22.2205 38.8255 21.3369 38.8172 20.4533C38.5541 20.4999 38.3187 20.5653 38.0714 20.6659C37.968 20.7077 37.968 20.7077 37.8626 20.7503C37.7881 20.7808 37.7135 20.8113 37.6367 20.8428C37.5574 20.8749 37.4781 20.907 37.3963 20.9402C37.2243 21.0099 37.0524 21.0798 36.8805 21.1498C36.6084 21.2604 36.3361 21.3706 36.0638 21.4805C35.2896 21.7931 34.5155 22.1062 33.7421 22.421C33.269 22.6136 32.7953 22.805 32.3214 22.9957C32.1409 23.0686 31.9605 23.1419 31.7803 23.2157C31.5284 23.3187 31.2761 23.4203 31.0235 23.5216C30.9491 23.5524 30.8747 23.5833 30.798 23.615C30.0786 23.9002 29.6438 23.7061 28.9522 23.4245C28.8725 23.3925 28.7928 23.3605 28.7107 23.3275C28.5381 23.2581 28.3656 23.1884 28.1932 23.1186C27.9205 23.0082 27.6476 22.8984 27.3747 22.7888C26.845 22.5759 26.3155 22.3623 25.7861 22.1486C25.0657 21.8579 24.3451 21.5674 23.6243 21.2777C23.355 21.1694 23.0859 21.0605 22.8168 20.9516C22.6525 20.8855 22.4882 20.8194 22.3238 20.7533C22.2487 20.7227 22.1735 20.6922 22.0961 20.6607C22.0275 20.6332 21.9588 20.6057 21.8881 20.5774C21.8284 20.5533 21.7687 20.5292 21.7073 20.5043C21.5418 20.4411 21.5418 20.4411 21.3172 20.4533ZM42.5672 23.7346C42.3463 24.0028 42.2874 24.2455 42.2993 24.5939C42.3599 24.876 42.5196 25.0199 42.7235 25.2189C42.9757 25.3451 43.2321 25.3436 43.5047 25.2971C43.7411 25.1614 43.928 24.9974 44.0516 24.7502C44.0991 24.3499 44.0991 24.3499 43.9698 23.9827C43.8306 23.8136 43.7019 23.6769 43.5047 23.5783C43.0065 23.539 43.0065 23.539 42.5672 23.7346ZM42.8797 26.6252C42.6719 27.6669 42.4885 28.7123 42.3133 29.76C42.3027 29.8233 42.292 29.8867 42.281 29.952C42.2505 30.1339 42.2202 30.3159 42.19 30.4979C42.1808 30.553 42.1715 30.6081 42.162 30.6649C42.1259 30.8841 42.0985 31.09 42.0985 31.3127C42.8204 31.3127 43.5422 31.3127 44.286 31.3127C44.1431 30.2648 43.9808 29.2212 43.8075 28.1779C43.797 28.1146 43.7865 28.0512 43.7758 27.9859C43.7457 27.8039 43.7153 27.622 43.6848 27.44C43.6757 27.3849 43.6666 27.3298 43.6572 27.273C43.6194 27.0492 43.5767 26.841 43.5047 26.6252C43.2985 26.6252 43.0922 26.6252 42.8797 26.6252ZM14.7352 30.1652C13.9927 31.0335 13.8248 31.9886 13.8804 33.0956C13.9605 34.0093 14.4981 34.7897 15.1502 35.4069C16.1861 36.259 17.3323 36.3246 18.6215 36.3237C18.7274 36.3239 18.8334 36.3241 18.9394 36.3244C19.229 36.325 19.5187 36.3251 19.8084 36.3252C20.1214 36.3253 20.4343 36.3259 20.7473 36.3265C21.4307 36.3275 22.1141 36.328 22.7975 36.3283C23.2243 36.3285 23.6511 36.3289 24.0779 36.3292C25.2599 36.3302 26.4419 36.331 27.624 36.3313C27.7373 36.3313 27.7373 36.3313 27.8529 36.3313C27.9286 36.3313 28.0043 36.3313 28.0824 36.3314C28.2358 36.3314 28.3893 36.3314 28.5427 36.3315C28.6188 36.3315 28.6949 36.3315 28.7734 36.3315C30.0082 36.3318 31.2431 36.3332 32.4779 36.335C33.7462 36.3369 35.0145 36.3378 36.2828 36.3379C36.9947 36.338 37.7066 36.3384 38.4185 36.3399C39.0243 36.3411 39.6301 36.3415 40.2359 36.3408C40.5449 36.3405 40.854 36.3406 41.1631 36.3417C41.446 36.3427 41.7289 36.3426 42.0118 36.3416C42.1626 36.3414 42.3135 36.3423 42.4643 36.3433C43.1013 36.345 43.1013 36.345 43.661 36.0783C43.772 35.8564 43.7637 35.699 43.7391 35.4533C43.5647 35.2308 43.4618 35.1525 43.1922 35.0627C43.0468 35.0554 42.9012 35.0528 42.7556 35.0527C42.6642 35.0525 42.5728 35.0523 42.4786 35.052C42.3272 35.0522 42.3272 35.0522 42.1728 35.0524C42.0648 35.0523 41.9569 35.0521 41.849 35.0519C41.6139 35.0516 41.3788 35.0515 41.1437 35.0515C40.7612 35.0517 40.3787 35.0513 39.9962 35.0508C39.4408 35.0502 38.8854 35.0498 38.3299 35.0495C37.4518 35.0491 36.5737 35.0478 35.6956 35.0463C35.3953 35.0458 35.0949 35.0453 34.7945 35.0448C34.7195 35.0447 34.6444 35.0446 34.567 35.0444C33.7121 35.043 32.8572 35.0418 32.0023 35.0406C31.9241 35.0405 31.8459 35.0404 31.7654 35.0403C30.4994 35.0385 29.2334 35.0377 27.9674 35.0371C26.6677 35.0365 25.368 35.0347 24.0683 35.0318C23.2667 35.0301 22.4651 35.0293 21.6634 35.0298C21.1137 35.0301 20.5641 35.0292 20.0144 35.0274C19.6974 35.0264 19.3803 35.0259 19.0633 35.0268C18.7727 35.0276 18.4822 35.027 18.1916 35.0252C18.0374 35.0246 17.8832 35.0256 17.729 35.0266C17.0473 35.0204 16.4578 34.913 15.9022 34.4963C15.3091 33.8893 15.1138 33.254 15.1166 32.4158C15.1333 31.7284 15.3548 31.1702 15.8485 30.6877C16.347 30.3172 16.8191 30.1235 17.4473 30.1159C17.595 30.1136 17.595 30.1136 17.7458 30.1112C17.8521 30.1103 17.9584 30.1094 18.0647 30.1085C18.1744 30.107 18.284 30.1055 18.3937 30.1039C18.6811 30.0999 18.9686 30.0968 19.256 30.0939C19.5498 30.0907 19.8436 30.0867 20.1374 30.0828C20.713 30.0753 21.2885 30.0687 21.8641 30.0627C21.8025 30.0135 21.7408 29.9642 21.6773 29.9135C21.5218 29.7889 21.368 29.6632 21.2159 29.5344C21.1717 29.497 21.1275 29.4596 21.0819 29.4211C21.0371 29.383 20.9923 29.345 20.9461 29.3059C20.9001 29.2669 20.8541 29.228 20.8067 29.1879C20.4683 28.9013 20.4683 28.9013 20.3797 28.8127C20.1833 28.8038 19.9891 28.7999 19.7926 28.7996C19.7327 28.7993 19.6728 28.799 19.611 28.7988C19.4834 28.7984 19.3557 28.7982 19.228 28.7982C19.0361 28.798 18.8443 28.7966 18.6524 28.7951C17.0847 28.7894 15.8494 28.9843 14.7352 30.1652ZM39.1447 29.3284C38.9233 29.5708 38.6735 29.7267 38.3967 29.8991C38.355 29.9273 38.3133 29.9555 38.2704 29.9846C38.2704 30.0103 38.2704 30.0361 38.2704 30.0627C39.1469 30.0627 40.0235 30.0627 40.9266 30.0627C41.0623 29.5947 41.0623 29.5947 41.1317 29.1301C41.1415 29.0243 41.1512 28.9185 41.161 28.8127C40.0367 28.7045 40.0367 28.7045 39.1447 29.3284ZM16.6297 31.7863C16.362 32.1796 16.344 32.4829 16.3954 32.9533C16.5788 33.3343 16.8085 33.5317 17.1766 33.7346C17.4564 33.806 17.7176 33.8224 18.0057 33.8223C18.1375 33.8225 18.1375 33.8225 18.272 33.8228C18.4162 33.8224 18.4162 33.8224 18.5633 33.8221C18.7169 33.8222 18.7169 33.8222 18.8737 33.8223C19.1578 33.8225 19.442 33.8221 19.7261 33.8218C20.0326 33.8214 20.3391 33.8215 20.6456 33.8216C21.1765 33.8216 21.7075 33.8214 22.2384 33.821C23.0061 33.8203 23.7738 33.8201 24.5414 33.82C25.7869 33.8198 27.0324 33.8193 28.2779 33.8186C29.4878 33.8179 30.6976 33.8173 31.9075 33.817C32.0194 33.817 32.0194 33.817 32.1335 33.8169C32.5076 33.8168 32.8817 33.8167 33.2558 33.8166C36.3596 33.8158 39.4634 33.8144 42.5672 33.8127C42.5672 33.4002 42.5672 32.9877 42.5672 32.5627C41.8969 32.5627 41.2266 32.5627 40.536 32.5627C40.652 31.9439 40.652 31.9439 40.7704 31.3127C40.0693 31.3038 39.3683 31.2966 38.6673 31.2924C38.3415 31.2904 38.0158 31.2877 37.6901 31.2832C36.2306 31.2636 34.8825 31.298 33.458 31.6581C32.3687 31.9205 31.2338 31.8906 30.1209 31.8889C30.0346 31.8889 29.9483 31.8889 29.8594 31.889C28.4969 31.8873 27.1209 31.8706 25.8009 31.488C24.9699 31.2588 24.147 31.2786 23.2911 31.2816C23.1278 31.2814 22.9646 31.2812 22.8013 31.2809C22.4609 31.2805 22.1205 31.281 21.7802 31.2821C21.3452 31.2835 20.9104 31.2827 20.4754 31.2813C20.139 31.2804 19.8025 31.2807 19.4661 31.2813C19.3057 31.2815 19.1454 31.2813 18.985 31.2807C18.7608 31.2801 18.5365 31.2811 18.3122 31.2824C18.247 31.2819 18.1817 31.2814 18.1144 31.2809C17.5718 31.2867 16.9987 31.3523 16.6297 31.7863ZM12.6454 39.3596C11.5568 40.6728 11.2882 42.0747 11.3954 43.7346C11.551 45.0244 12.324 46.1594 13.285 46.9963C14.6666 48.073 16.1559 48.1997 17.8436 48.1987C17.9745 48.1989 18.1053 48.1991 18.2362 48.1994C18.5942 48.2 18.9523 48.2001 19.3104 48.2002C19.6971 48.2003 20.0839 48.2009 20.4706 48.2015C21.3153 48.2025 22.1599 48.203 23.0046 48.2033C23.5319 48.2035 24.0593 48.2039 24.5867 48.2042C26.047 48.2052 27.5074 48.206 28.9678 48.2062C29.0611 48.2063 29.1545 48.2063 29.2507 48.2063C29.3443 48.2063 29.4378 48.2063 29.5343 48.2064C29.7239 48.2064 29.9135 48.2064 30.1031 48.2065C30.2442 48.2065 30.2442 48.2065 30.3882 48.2065C31.9143 48.2068 33.4403 48.2082 34.9664 48.21C36.5335 48.2119 38.1005 48.2128 39.6675 48.2129C40.5473 48.213 41.4271 48.2134 42.3068 48.2149C43.0554 48.2161 43.804 48.2165 44.5526 48.2158C44.9346 48.2155 45.3166 48.2156 45.6987 48.2167C46.0482 48.2177 46.3978 48.2176 46.7473 48.2166C46.8739 48.2165 47.0005 48.2167 47.1271 48.2174C47.2989 48.2183 47.4707 48.2177 47.6426 48.2167C47.7859 48.2168 47.7859 48.2168 47.932 48.2169C48.2228 48.1843 48.4122 48.1052 48.661 47.9533C48.772 47.7314 48.7637 47.574 48.7391 47.3283C48.5647 47.1058 48.4618 47.0275 48.1922 46.9377C48.0144 46.9303 47.8364 46.9278 47.6584 46.9277C47.5762 46.9275 47.5762 46.9275 47.4922 46.9273C47.307 46.927 47.1218 46.9272 46.9365 46.9274C46.8029 46.9273 46.6694 46.9271 46.5358 46.9269C46.2446 46.9266 45.9534 46.9265 45.6622 46.9265C45.1885 46.9267 44.7147 46.9263 44.241 46.9258C43.5531 46.9252 42.8652 46.9248 42.1772 46.9245C41.0897 46.9241 40.0022 46.9228 38.9147 46.9213C38.5427 46.9208 38.1708 46.9203 37.7988 46.9198C37.7058 46.9197 37.6129 46.9196 37.5171 46.9194C36.4582 46.918 35.3994 46.9168 34.3406 46.9156C34.1953 46.9154 34.1953 46.9154 34.0472 46.9153C32.4792 46.9135 30.9112 46.9127 29.3432 46.9121C27.7336 46.9115 26.1241 46.9097 24.5145 46.9068C23.5216 46.9051 22.5288 46.9043 21.5359 46.9048C20.8551 46.9051 20.1743 46.9042 19.4936 46.9024C19.1009 46.9014 18.7082 46.9009 18.3155 46.9018C17.9557 46.9026 17.5958 46.902 17.236 46.9002C17.1061 46.8998 16.9763 46.8999 16.8465 46.9006C15.5604 46.9072 14.548 46.5968 13.5682 45.7316C12.7655 44.8842 12.4482 43.7423 12.4702 42.6054C12.5428 41.5421 12.9909 40.5556 13.777 39.8283C14.7972 39.0172 15.7555 38.8556 17.0169 38.8612C17.1513 38.861 17.2856 38.8606 17.42 38.8602C17.7879 38.8592 18.1558 38.8597 18.5237 38.8604C18.921 38.861 19.3183 38.8602 19.7155 38.8595C20.4035 38.8585 21.0914 38.8583 21.7794 38.8587C22.7745 38.8593 23.7697 38.8583 24.7649 38.8569C26.3802 38.8547 27.9956 38.8533 29.6109 38.8526C29.7076 38.8526 29.8042 38.8526 29.9037 38.8525C30.688 38.8522 31.4722 38.8519 32.2564 38.8517C32.9424 38.8514 33.6283 38.8512 34.3143 38.8509C34.4109 38.8508 34.5075 38.8508 34.607 38.8508C36.2168 38.8501 37.8266 38.8485 39.4363 38.8462C40.4293 38.8449 41.4222 38.8444 42.4152 38.8449C43.0951 38.8453 43.7749 38.8448 44.4548 38.8436C44.8473 38.843 45.2397 38.8427 45.6322 38.8435C45.9913 38.8442 46.3503 38.8439 46.7094 38.8426C46.8395 38.8424 46.9696 38.8425 47.0996 38.8431C47.2761 38.8439 47.4526 38.8432 47.6292 38.8421C47.7273 38.8421 47.8254 38.8421 47.9265 38.842C48.2203 38.8096 48.41 38.7322 48.661 38.5783C48.772 38.3564 48.7637 38.199 48.7391 37.9533C48.5647 37.7308 48.4618 37.6525 48.1922 37.5627C48.0191 37.5553 47.8458 37.5527 47.6725 37.5526C47.5925 37.5524 47.5925 37.5524 47.5109 37.5522C47.3308 37.5519 47.1508 37.5521 46.9707 37.5522C46.8409 37.5521 46.711 37.5519 46.5811 37.5517C46.2231 37.5512 45.8652 37.5512 45.5072 37.5513C45.1215 37.5513 44.7358 37.5509 44.3501 37.5505C43.5939 37.5499 42.8376 37.5497 42.0814 37.5496C41.4664 37.5496 40.8514 37.5494 40.2364 37.5492C38.4928 37.5485 36.7492 37.5481 35.0057 37.5482C34.9116 37.5482 34.8175 37.5482 34.7206 37.5482C34.6264 37.5482 34.5322 37.5482 34.4352 37.5482C32.9105 37.5483 31.3859 37.5475 29.8613 37.5464C28.2958 37.5453 26.7302 37.5447 25.1647 37.5448C24.2858 37.5448 23.4069 37.5446 22.5281 37.5438C21.7793 37.5431 21.0305 37.5429 20.2817 37.5434C19.8999 37.5437 19.5181 37.5437 19.1364 37.543C18.7862 37.5424 18.436 37.5425 18.0858 37.5432C17.9598 37.5433 17.8337 37.5432 17.7077 37.5427C15.7459 37.5364 14.0622 37.8845 12.6454 39.3596ZM14.4081 41.0246C13.8573 41.6938 13.673 42.4109 13.7391 43.2658C13.8625 43.9961 14.2409 44.6269 14.8182 45.092C15.5 45.5584 16.2093 45.6976 17.0264 45.6973C17.1061 45.6974 17.1061 45.6974 17.1874 45.6976C17.3648 45.6978 17.5423 45.6974 17.7197 45.6971C17.8484 45.6971 17.9771 45.6972 18.1059 45.6973C18.4592 45.6975 18.8124 45.6972 19.1657 45.6968C19.5469 45.6964 19.928 45.6965 20.3091 45.6966C20.9693 45.6966 21.6295 45.6964 22.2897 45.6959C23.2443 45.6953 24.1988 45.6951 25.1534 45.695C26.7021 45.6948 28.2507 45.6943 29.7994 45.6936C31.3038 45.6929 32.8082 45.6923 34.3126 45.692C34.4053 45.692 34.4981 45.6919 34.5936 45.6919C35.0588 45.6918 35.524 45.6917 35.9893 45.6916C39.8486 45.6908 43.7079 45.6894 47.5672 45.6877C47.5672 44.6564 47.5672 43.6252 47.5672 42.5627C43.8547 42.5627 40.1422 42.5627 36.3172 42.5627C36.3172 42.1502 36.3172 41.7377 36.3172 41.3127C40.0297 41.3127 43.7422 41.3127 47.5672 41.3127C47.5672 40.9002 47.5672 40.4877 47.5672 40.0627C43.6207 40.0591 39.6742 40.0564 35.7276 40.0547C35.2617 40.0545 34.7957 40.0543 34.3298 40.0541C34.1906 40.054 34.1906 40.054 34.0487 40.054C32.5468 40.0533 31.0449 40.0521 29.543 40.0506C28.0019 40.0492 26.4607 40.0483 24.9196 40.048C23.9687 40.0478 23.0178 40.0471 22.0669 40.0458C21.4147 40.045 20.7626 40.0448 20.1104 40.045C19.7342 40.0451 19.358 40.0449 18.9818 40.0441C18.6371 40.0433 18.2924 40.0433 17.9476 40.0438C17.8232 40.0439 17.6988 40.0437 17.5744 40.0432C16.3689 40.0387 15.2825 40.0983 14.4081 41.0246Z" fill="#040204"/>
<path d="M16.3174 43.1877C22.0924 43.1877 27.8674 43.1877 33.8174 43.1877C33.8174 43.6002 33.8174 44.0127 33.8174 44.4377C28.0424 44.4377 22.2674 44.4377 16.3174 44.4377C16.3174 44.0252 16.3174 43.6127 16.3174 43.1877Z" fill="#040204"/>
<path d="M31.0748 10.3266C31.1439 10.3541 31.213 10.3815 31.2842 10.4098C31.5154 10.5018 31.7464 10.5944 31.9773 10.6871C32.1431 10.7532 32.3089 10.8193 32.4747 10.8853C32.9247 11.0647 33.3744 11.2447 33.8241 11.4247C34.1992 11.5749 34.5745 11.7247 34.9497 11.8744C38.1724 13.1607 41.3922 14.4543 44.6111 15.7502C44.7838 15.8197 44.9566 15.8893 45.1293 15.9588C45.4499 16.0879 45.7705 16.217 46.091 16.3462C46.2329 16.4033 46.3747 16.4604 46.5165 16.5175C46.5806 16.5434 46.6447 16.5692 46.7107 16.5959C46.9428 16.6892 47.1736 16.7804 47.411 16.8596C47.411 16.9111 47.411 16.9627 47.411 17.0158C45.7868 17.6603 44.1625 18.3049 42.4891 18.9689C42.7351 19.133 42.9643 19.2226 43.2411 19.3254C43.7309 19.5076 43.7309 19.5076 43.8172 19.5939C43.8241 19.7966 43.8262 19.9971 43.8249 20.1997C43.8247 20.2906 43.8247 20.2906 43.8245 20.3833C43.8241 20.5775 43.8231 20.7718 43.8221 20.966C43.8217 21.0974 43.8214 21.2288 43.821 21.3601C43.8202 21.6829 43.8188 22.0056 43.8172 22.3283C43.9038 22.3519 43.9904 22.3754 44.0796 22.3997C44.6024 22.5556 44.9468 22.9146 45.2235 23.3781C45.4886 23.9687 45.5011 24.6996 45.2967 25.3111C45.1673 25.5769 45.0422 25.7908 44.8329 26.0002C44.8503 26.231 44.8781 26.4503 44.915 26.6783C44.9314 26.7859 44.9314 26.7859 44.9481 26.8956C44.9866 27.1442 45.0267 27.3925 45.0672 27.6408C45.0823 27.733 45.0973 27.8252 45.1127 27.9201C45.2303 28.638 45.3512 29.3553 45.4725 30.0725C45.5268 30.3934 45.581 30.7143 45.635 31.0352C45.6683 31.2332 45.7017 31.4312 45.7354 31.6292C45.7503 31.7177 45.7652 31.8062 45.7805 31.8974C45.7937 31.9752 45.8068 32.0531 45.8204 32.1332C45.8485 32.3283 45.8485 32.3283 45.8485 32.5627C45.1782 32.5627 44.5079 32.5627 43.8172 32.5627C43.8172 33.001 43.8172 33.4393 43.8172 33.8908C43.9461 33.9424 44.075 33.9939 44.2079 34.0471C44.549 34.2839 44.8919 34.5659 45.0376 34.9666C45.0798 35.2145 45.0744 35.4557 45.0721 35.7069C45.0714 35.8057 45.0707 35.9044 45.07 36.0061C45.0691 36.0815 45.0682 36.1569 45.0672 36.2346C45.1118 36.2349 45.1565 36.2351 45.2024 36.2354C45.6689 36.2387 46.1353 36.2441 46.6017 36.2508C46.7755 36.253 46.9493 36.2546 47.1232 36.2557C47.3738 36.2574 47.6243 36.2611 47.8749 36.2651C47.9905 36.2652 47.9905 36.2652 48.1085 36.2654C48.6807 36.2774 49.1044 36.3976 49.5393 36.7787C49.5814 36.8296 49.6235 36.8804 49.6668 36.9328C49.7101 36.9835 49.7535 37.0341 49.7981 37.0863C50.148 37.5942 50.1199 38.1386 50.0672 38.7346C49.9367 39.2516 49.5637 39.614 49.1297 39.9064C49.0266 39.9322 48.9235 39.958 48.8172 39.9846C48.8172 41.8924 48.8172 43.8002 48.8172 45.7658C48.9719 45.8174 49.1266 45.8689 49.286 45.9221C49.6556 46.194 49.9766 46.5576 50.0672 47.0158C50.1261 47.6322 50.1585 48.2319 49.7547 48.7346C49.3804 49.1277 49.0374 49.415 48.4796 49.4575C48.3798 49.4576 48.28 49.4577 48.1772 49.4578C48.0932 49.4582 48.0932 49.4582 48.0075 49.4586C47.8193 49.4593 47.6312 49.459 47.443 49.4586C47.3069 49.4589 47.1708 49.4592 47.0348 49.4597C46.6604 49.4606 46.286 49.4606 45.9116 49.4604C45.508 49.4604 45.1043 49.4612 44.7007 49.462C43.9095 49.4633 43.1184 49.4637 42.3272 49.4638C41.6839 49.4639 41.0405 49.4642 40.3972 49.4647C38.5728 49.4661 36.7484 49.4668 34.9239 49.4667C34.7764 49.4667 34.7764 49.4667 34.6258 49.4666C34.5273 49.4666 34.4287 49.4666 34.3272 49.4666C32.7322 49.4666 31.1372 49.4681 29.5421 49.4703C27.9039 49.4725 26.2657 49.4736 24.6276 49.4734C23.708 49.4734 22.7885 49.4738 21.8689 49.4755C21.0856 49.4769 20.3023 49.4773 19.519 49.4762C19.1196 49.4757 18.7203 49.4757 18.3209 49.477C17.9546 49.4783 17.5883 49.478 17.2219 49.4767C17.0901 49.4764 16.9583 49.4767 16.8265 49.4776C15.7419 49.4843 14.6861 49.3581 13.7147 48.8322C13.6633 48.8053 13.6119 48.7784 13.5589 48.7507C11.9575 47.8916 10.8937 46.5797 10.287 44.8811C9.77987 43.1961 9.95032 41.3565 10.7547 39.8017C11.6104 38.2248 12.8515 37.29 14.4422 36.5471C14.3978 36.511 14.3534 36.475 14.3077 36.4378C13.3922 35.6645 12.7492 34.6188 12.5672 33.4221C12.5451 33.1401 12.5411 32.8601 12.5428 32.5773C12.5433 32.5015 12.5437 32.4257 12.5442 32.3476C12.5675 30.9652 13.1016 29.8642 14.0614 28.8762C15.7875 27.2487 17.7346 27.5627 20.0672 27.5627C20.0286 23.7728 20.0286 23.7728 19.9891 19.9064C17.5915 18.9525 15.1938 17.9986 12.7235 17.0158C12.7235 16.9643 12.7235 16.9127 12.7235 16.8596C12.8106 16.8249 12.8978 16.7903 12.9876 16.7546C14.1317 16.3 15.2758 15.845 16.4198 15.3898C16.5129 15.3528 16.606 15.3157 16.7019 15.2776C20.8169 13.6402 24.9269 11.9904 29.035 10.3361C29.1488 10.2903 29.2627 10.2448 29.3767 10.1996C29.4959 10.1508 29.6127 10.0965 29.7287 10.0408C30.1861 9.89972 30.6531 10.1565 31.0748 10.3266ZM29.6887 11.5042C29.6259 11.5294 29.563 11.5546 29.4982 11.5806C29.429 11.6087 29.3597 11.6368 29.2883 11.6657C29.2152 11.6951 29.1421 11.7246 29.0667 11.7549C28.8217 11.8535 28.5769 11.9525 28.332 12.0515C28.1591 12.1212 27.9862 12.1908 27.8133 12.2605C27.4445 12.409 27.0757 12.5577 26.707 12.7065C25.8465 13.0538 24.9857 13.4003 24.1249 13.7468C23.9335 13.8238 23.742 13.9009 23.5506 13.978C21.8526 14.6616 20.1527 15.3405 18.451 16.0148C18.3946 16.0372 18.3383 16.0595 18.2802 16.0826C17.626 16.3419 16.9717 16.6009 16.3172 16.8596C16.3172 16.9111 16.3172 16.9627 16.3172 17.0158C16.4584 17.0719 16.4584 17.0719 16.6023 17.1292C17.2363 17.3812 17.8702 17.6333 18.5041 17.8855C18.5936 17.9211 18.6832 17.9567 18.7754 17.9934C18.9625 18.0679 19.1496 18.1423 19.3367 18.2168C19.8692 18.4287 20.4019 18.6404 20.9346 18.8518C21.4669 19.0631 21.9991 19.2746 22.5312 19.4862C22.6033 19.5149 22.6033 19.5149 22.6767 19.5441C23.8755 20.0209 25.0721 20.5021 26.2637 20.9966C26.452 21.0746 26.6404 21.1524 26.8289 21.2301C26.9479 21.2792 27.0668 21.3282 27.1858 21.3773C27.2426 21.4007 27.2993 21.4241 27.3578 21.4482C27.6856 21.5836 28.0124 21.7209 28.3387 21.8598C28.4896 21.9236 28.6408 21.9864 28.7922 22.0488C28.9711 22.1225 29.1495 22.1979 29.3269 22.2753C29.4436 22.3226 29.4436 22.3226 29.5627 22.3708C29.6287 22.3987 29.6946 22.4266 29.7626 22.4553C30.1084 22.5 30.373 22.3765 30.6922 22.2502C30.7543 22.2264 30.8163 22.2027 30.8802 22.1782C31.0839 22.0993 31.2866 22.0182 31.4892 21.9367C31.5655 21.9062 31.6418 21.8757 31.7204 21.8442C31.9703 21.7443 32.2201 21.644 32.4699 21.5437C32.644 21.474 32.8182 21.4042 32.9923 21.3345C33.449 21.1517 33.9056 20.9686 34.3621 20.7855C34.8287 20.5984 35.2953 20.4115 35.762 20.2246C36.6763 19.8583 37.5906 19.4919 38.5047 19.1252C38.5047 19.0736 38.5047 19.0221 38.5047 18.9689C36.4158 18.1628 34.3239 17.3648 32.2305 16.5704C31.457 16.2769 30.684 15.9824 29.911 15.6877C29.9678 15.2559 30.0934 14.8518 30.2235 14.4377C30.785 14.6508 31.3466 14.8641 31.9081 15.0773C31.9942 15.1101 32.0804 15.1428 32.1692 15.1765C33.2065 15.5706 34.2435 15.9652 35.2799 16.3612C35.4215 16.4153 35.4215 16.4153 35.566 16.4705C36.1068 16.6772 36.6476 16.884 37.1884 17.0909C37.4368 17.1858 37.6855 17.2801 37.9341 17.3745C38.2739 17.5036 38.6123 17.6358 38.9502 17.7698C39.1189 17.8357 39.2876 17.9015 39.4563 17.9674C39.5719 18.0142 39.5719 18.0142 39.6898 18.062C40.4024 18.3375 40.866 18.2021 41.5513 17.9237C41.649 17.8849 41.649 17.8849 41.7486 17.8452C41.955 17.763 42.161 17.68 42.367 17.5969C42.5076 17.5407 42.6481 17.4846 42.7886 17.4286C43.1318 17.2916 43.4746 17.1539 43.8172 17.0158C43.8172 16.9643 43.8172 16.9127 43.8172 16.8596C43.7232 16.8222 43.6291 16.7848 43.5321 16.7462C42.4273 16.307 41.3225 15.8675 40.2178 15.428C40.0237 15.3507 39.8296 15.2735 39.6355 15.1963C35.555 13.5729 35.555 13.5729 33.6595 12.8074C33.5966 12.782 33.5337 12.7566 33.4689 12.7305C32.896 12.4991 32.3232 12.2674 31.7508 12.0348C31.5977 11.9726 31.4444 11.9105 31.2912 11.8485C31.1093 11.7748 30.9274 11.7008 30.7457 11.6266C30.6678 11.5951 30.5899 11.5636 30.5097 11.5311C30.4425 11.5038 30.3753 11.4765 30.3061 11.4483C30.0558 11.3588 29.9279 11.4076 29.6887 11.5042ZM40.0672 19.9064C40.0672 22.433 40.0672 24.9596 40.0672 27.5627C40.5055 27.5627 40.9438 27.5627 41.3954 27.5627C41.4558 27.2436 41.4558 27.2436 41.5174 26.9182C41.5304 26.8517 41.5433 26.7852 41.5567 26.7167C41.5664 26.6635 41.5761 26.6104 41.5861 26.5556C41.5963 26.5016 41.6066 26.4476 41.6171 26.392C41.6425 26.0752 41.5276 25.8631 41.3563 25.6047C41.0002 25.0653 41.012 24.4405 41.0829 23.8127C41.2351 23.2769 41.5447 22.8552 42.0204 22.5627C42.2008 22.4853 42.3813 22.408 42.5672 22.3283C42.5672 21.7353 42.5672 21.1424 42.5672 20.5314C42.1926 20.3816 42.1926 20.3816 41.8104 20.2287C41.0047 19.9064 41.0047 19.9064 40.8003 19.8188C40.4799 19.7007 40.3797 19.7502 40.0672 19.9064ZM21.3172 20.4533C21.2918 21.4163 21.2724 22.3792 21.2606 23.3424C21.2549 23.7898 21.2472 24.2369 21.2347 24.6841C21.2228 25.1163 21.2163 25.5481 21.2135 25.9804C21.2115 26.1448 21.2075 26.3092 21.2016 26.4735C21.1438 27.3271 21.1438 27.3271 21.4238 28.1064C21.7138 28.4081 22.0468 28.6114 22.411 28.8127C22.5357 28.8911 22.6603 28.9696 22.7848 29.0483C22.8954 29.108 23.0068 29.1662 23.119 29.2228C23.1806 29.2545 23.2423 29.2861 23.3058 29.3187C26.8912 31.0967 31.6425 31.117 35.3999 29.9101C36.5093 29.5286 37.5283 29.0252 38.4266 28.2658C38.494 28.2259 38.5613 28.1861 38.6307 28.145C38.8687 27.9005 38.863 27.7689 38.8658 27.4385C38.8637 27.335 38.8637 27.335 38.8616 27.2294C38.8616 27.1562 38.8617 27.083 38.8618 27.0076C38.8615 26.7657 38.8584 26.524 38.8554 26.2822C38.8547 26.1145 38.8541 25.9468 38.8537 25.7791C38.8522 25.3377 38.8484 24.8965 38.8441 24.4551C38.8401 24.0048 38.8383 23.5544 38.8363 23.1041C38.8321 22.2205 38.8255 21.3369 38.8172 20.4533C38.5541 20.4999 38.3187 20.5653 38.0714 20.6659C37.968 20.7077 37.968 20.7077 37.8626 20.7503C37.7881 20.7808 37.7135 20.8113 37.6367 20.8428C37.5574 20.8749 37.4781 20.907 37.3963 20.9402C37.2243 21.0099 37.0524 21.0798 36.8805 21.1498C36.6084 21.2604 36.3361 21.3706 36.0638 21.4805C35.2896 21.7931 34.5155 22.1062 33.7421 22.421C33.269 22.6136 32.7953 22.805 32.3214 22.9957C32.1409 23.0686 31.9605 23.1419 31.7803 23.2157C31.5284 23.3187 31.2761 23.4203 31.0235 23.5216C30.9491 23.5524 30.8747 23.5833 30.798 23.615C30.0786 23.9002 29.6438 23.7061 28.9522 23.4245C28.8725 23.3925 28.7928 23.3605 28.7107 23.3275C28.5381 23.2581 28.3656 23.1884 28.1932 23.1186C27.9205 23.0082 27.6476 22.8984 27.3747 22.7888C26.845 22.5759 26.3155 22.3623 25.7861 22.1486C25.0657 21.8579 24.3451 21.5674 23.6243 21.2777C23.355 21.1694 23.0859 21.0605 22.8168 20.9516C22.6525 20.8855 22.4882 20.8194 22.3238 20.7533C22.2487 20.7227 22.1735 20.6922 22.0961 20.6607C22.0275 20.6332 21.9588 20.6057 21.8881 20.5774C21.8284 20.5533 21.7687 20.5292 21.7073 20.5043C21.5418 20.4411 21.5418 20.4411 21.3172 20.4533ZM42.5672 23.7346C42.3463 24.0028 42.2874 24.2455 42.2993 24.5939C42.3599 24.876 42.5196 25.0199 42.7235 25.2189C42.9757 25.3451 43.2321 25.3436 43.5047 25.2971C43.7411 25.1614 43.928 24.9974 44.0516 24.7502C44.0991 24.3499 44.0991 24.3499 43.9698 23.9827C43.8306 23.8136 43.7019 23.6769 43.5047 23.5783C43.0065 23.539 43.0065 23.539 42.5672 23.7346ZM42.8797 26.6252C42.6719 27.6669 42.4885 28.7123 42.3133 29.76C42.3027 29.8233 42.292 29.8867 42.281 29.952C42.2505 30.1339 42.2202 30.3159 42.19 30.4979C42.1808 30.553 42.1715 30.6081 42.162 30.6649C42.1259 30.8841 42.0985 31.09 42.0985 31.3127C42.8204 31.3127 43.5422 31.3127 44.286 31.3127C44.1431 30.2648 43.9808 29.2212 43.8075 28.1779C43.797 28.1146 43.7865 28.0512 43.7758 27.9859C43.7457 27.8039 43.7153 27.622 43.6848 27.44C43.6757 27.3849 43.6666 27.3298 43.6572 27.273C43.6194 27.0492 43.5767 26.841 43.5047 26.6252C43.2985 26.6252 43.0922 26.6252 42.8797 26.6252ZM14.7352 30.1652C13.9927 31.0335 13.8248 31.9886 13.8804 33.0956C13.9605 34.0093 14.4981 34.7897 15.1502 35.4069C16.1861 36.259 17.3323 36.3246 18.6215 36.3237C18.7274 36.3239 18.8334 36.3241 18.9394 36.3244C19.229 36.325 19.5187 36.3251 19.8084 36.3252C20.1214 36.3253 20.4343 36.3259 20.7473 36.3265C21.4307 36.3275 22.1141 36.328 22.7975 36.3283C23.2243 36.3285 23.6511 36.3289 24.0779 36.3292C25.2599 36.3302 26.4419 36.331 27.624 36.3313C27.7373 36.3313 27.7373 36.3313 27.8529 36.3313C27.9286 36.3313 28.0043 36.3313 28.0824 36.3314C28.2358 36.3314 28.3893 36.3314 28.5427 36.3315C28.6188 36.3315 28.6949 36.3315 28.7734 36.3315C30.0082 36.3318 31.2431 36.3332 32.4779 36.335C33.7462 36.3369 35.0145 36.3378 36.2828 36.3379C36.9947 36.338 37.7066 36.3384 38.4185 36.3399C39.0243 36.3411 39.6301 36.3415 40.2359 36.3408C40.5449 36.3405 40.854 36.3406 41.1631 36.3417C41.446 36.3427 41.7289 36.3426 42.0118 36.3416C42.1626 36.3414 42.3135 36.3423 42.4643 36.3433C43.1013 36.345 43.1013 36.345 43.661 36.0783C43.772 35.8564 43.7637 35.699 43.7391 35.4533C43.5647 35.2308 43.4618 35.1525 43.1922 35.0627C43.0468 35.0554 42.9012 35.0528 42.7556 35.0527C42.6642 35.0525 42.5728 35.0523 42.4786 35.052C42.3272 35.0522 42.3272 35.0522 42.1728 35.0524C42.0648 35.0523 41.9569 35.0521 41.849 35.0519C41.6139 35.0516 41.3788 35.0515 41.1437 35.0515C40.7612 35.0517 40.3787 35.0513 39.9962 35.0508C39.4408 35.0502 38.8854 35.0498 38.3299 35.0495C37.4518 35.0491 36.5737 35.0478 35.6956 35.0463C35.3953 35.0458 35.0949 35.0453 34.7945 35.0448C34.7195 35.0447 34.6444 35.0446 34.567 35.0444C33.7121 35.043 32.8572 35.0418 32.0023 35.0406C31.9241 35.0405 31.8459 35.0404 31.7654 35.0403C30.4994 35.0385 29.2334 35.0377 27.9674 35.0371C26.6677 35.0365 25.368 35.0347 24.0683 35.0318C23.2667 35.0301 22.4651 35.0293 21.6634 35.0298C21.1137 35.0301 20.5641 35.0292 20.0144 35.0274C19.6974 35.0264 19.3803 35.0259 19.0633 35.0268C18.7727 35.0276 18.4822 35.027 18.1916 35.0252C18.0374 35.0246 17.8832 35.0256 17.729 35.0266C17.0473 35.0204 16.4578 34.913 15.9022 34.4963C15.3091 33.8893 15.1138 33.254 15.1166 32.4158C15.1333 31.7284 15.3548 31.1702 15.8485 30.6877C16.347 30.3172 16.8191 30.1235 17.4473 30.1159C17.595 30.1136 17.595 30.1136 17.7458 30.1112C17.8521 30.1103 17.9584 30.1094 18.0647 30.1085C18.1744 30.107 18.284 30.1055 18.3937 30.1039C18.6811 30.0999 18.9686 30.0968 19.256 30.0939C19.5498 30.0907 19.8436 30.0867 20.1374 30.0828C20.713 30.0753 21.2885 30.0687 21.8641 30.0627C21.8025 30.0135 21.7408 29.9642 21.6773 29.9135C21.5218 29.7889 21.368 29.6632 21.2159 29.5344C21.1717 29.497 21.1275 29.4596 21.0819 29.4211C21.0371 29.383 20.9923 29.345 20.9461 29.3059C20.9001 29.2669 20.8541 29.228 20.8067 29.1879C20.4683 28.9013 20.4683 28.9013 20.3797 28.8127C20.1833 28.8038 19.9891 28.7999 19.7926 28.7996C19.7327 28.7993 19.6728 28.799 19.611 28.7988C19.4834 28.7984 19.3557 28.7982 19.228 28.7982C19.0361 28.798 18.8443 28.7966 18.6524 28.7951C17.0847 28.7894 15.8494 28.9843 14.7352 30.1652ZM39.1447 29.3284C38.9233 29.5708 38.6735 29.7267 38.3967 29.8991C38.355 29.9273 38.3133 29.9555 38.2704 29.9846C38.2704 30.0103 38.2704 30.0361 38.2704 30.0627C39.1469 30.0627 40.0235 30.0627 40.9266 30.0627C41.0623 29.5947 41.0623 29.5947 41.1317 29.1301C41.1415 29.0243 41.1512 28.9185 41.161 28.8127C40.0367 28.7045 40.0367 28.7045 39.1447 29.3284ZM16.6297 31.7863C16.362 32.1796 16.344 32.4829 16.3954 32.9533C16.5788 33.3343 16.8085 33.5317 17.1766 33.7346C17.4564 33.806 17.7176 33.8224 18.0057 33.8223C18.1375 33.8225 18.1375 33.8225 18.272 33.8228C18.4162 33.8224 18.4162 33.8224 18.5633 33.8221C18.7169 33.8222 18.7169 33.8222 18.8737 33.8223C19.1578 33.8225 19.442 33.8221 19.7261 33.8218C20.0326 33.8214 20.3391 33.8215 20.6456 33.8216C21.1765 33.8216 21.7075 33.8214 22.2384 33.821C23.0061 33.8203 23.7738 33.8201 24.5414 33.82C25.7869 33.8198 27.0324 33.8193 28.2779 33.8186C29.4878 33.8179 30.6976 33.8173 31.9075 33.817C32.0194 33.817 32.0194 33.817 32.1335 33.8169C32.5076 33.8168 32.8817 33.8167 33.2558 33.8166C36.3596 33.8158 39.4634 33.8144 42.5672 33.8127C42.5672 33.4002 42.5672 32.9877 42.5672 32.5627C41.8969 32.5627 41.2266 32.5627 40.536 32.5627C40.652 31.9439 40.652 31.9439 40.7704 31.3127C40.0693 31.3038 39.3683 31.2966 38.6673 31.2924C38.3415 31.2904 38.0158 31.2877 37.6901 31.2832C36.2306 31.2636 34.8825 31.298 33.458 31.6581C32.3687 31.9205 31.2338 31.8906 30.1209 31.8889C30.0346 31.8889 29.9483 31.8889 29.8594 31.889C28.4969 31.8873 27.1209 31.8706 25.8009 31.488C24.9699 31.2588 24.147 31.2786 23.2911 31.2816C23.1278 31.2814 22.9646 31.2812 22.8013 31.2809C22.4609 31.2805 22.1205 31.281 21.7802 31.2821C21.3452 31.2835 20.9104 31.2827 20.4754 31.2813C20.139 31.2804 19.8025 31.2807 19.4661 31.2813C19.3057 31.2815 19.1454 31.2813 18.985 31.2807C18.7608 31.2801 18.5365 31.2811 18.3122 31.2824C18.247 31.2819 18.1817 31.2814 18.1144 31.2809C17.5718 31.2867 16.9987 31.3523 16.6297 31.7863ZM12.6454 39.3596C11.5568 40.6728 11.2882 42.0747 11.3954 43.7346C11.551 45.0244 12.324 46.1594 13.285 46.9963C14.6666 48.073 16.1559 48.1997 17.8436 48.1987C17.9745 48.1989 18.1053 48.1991 18.2362 48.1994C18.5942 48.2 18.9523 48.2001 19.3104 48.2002C19.6971 48.2003 20.0839 48.2009 20.4706 48.2015C21.3153 48.2025 22.1599 48.203 23.0046 48.2033C23.5319 48.2035 24.0593 48.2039 24.5867 48.2042C26.047 48.2052 27.5074 48.206 28.9678 48.2062C29.0611 48.2063 29.1545 48.2063 29.2507 48.2063C29.3443 48.2063 29.4378 48.2063 29.5343 48.2064C29.7239 48.2064 29.9135 48.2064 30.1031 48.2065C30.2442 48.2065 30.2442 48.2065 30.3882 48.2065C31.9143 48.2068 33.4403 48.2082 34.9664 48.21C36.5335 48.2119 38.1005 48.2128 39.6675 48.2129C40.5473 48.213 41.4271 48.2134 42.3068 48.2149C43.0554 48.2161 43.804 48.2165 44.5526 48.2158C44.9346 48.2155 45.3166 48.2156 45.6987 48.2167C46.0482 48.2177 46.3978 48.2176 46.7473 48.2166C46.8739 48.2165 47.0005 48.2167 47.1271 48.2174C47.2989 48.2183 47.4707 48.2177 47.6426 48.2167C47.7859 48.2168 47.7859 48.2168 47.932 48.2169C48.2228 48.1843 48.4122 48.1052 48.661 47.9533C48.772 47.7314 48.7637 47.574 48.7391 47.3283C48.5647 47.1058 48.4618 47.0275 48.1922 46.9377C48.0144 46.9303 47.8364 46.9278 47.6584 46.9277C47.5762 46.9275 47.5762 46.9275 47.4922 46.9273C47.307 46.927 47.1218 46.9272 46.9365 46.9274C46.8029 46.9273 46.6694 46.9271 46.5358 46.9269C46.2446 46.9266 45.9534 46.9265 45.6622 46.9265C45.1885 46.9267 44.7147 46.9263 44.241 46.9258C43.5531 46.9252 42.8652 46.9248 42.1772 46.9245C41.0897 46.9241 40.0022 46.9228 38.9147 46.9213C38.5427 46.9208 38.1708 46.9203 37.7988 46.9198C37.7058 46.9197 37.6129 46.9196 37.5171 46.9194C36.4582 46.918 35.3994 46.9168 34.3406 46.9156C34.1953 46.9154 34.1953 46.9154 34.0472 46.9153C32.4792 46.9135 30.9112 46.9127 29.3432 46.9121C27.7336 46.9115 26.1241 46.9097 24.5145 46.9068C23.5216 46.9051 22.5288 46.9043 21.5359 46.9048C20.8551 46.9051 20.1743 46.9042 19.4936 46.9024C19.1009 46.9014 18.7082 46.9009 18.3155 46.9018C17.9557 46.9026 17.5958 46.902 17.236 46.9002C17.1061 46.8998 16.9763 46.8999 16.8465 46.9006C15.5604 46.9072 14.548 46.5968 13.5682 45.7316C12.7655 44.8842 12.4482 43.7423 12.4702 42.6054C12.5428 41.5421 12.9909 40.5556 13.777 39.8283C14.7972 39.0172 15.7555 38.8556 17.0169 38.8612C17.1513 38.861 17.2856 38.8606 17.42 38.8602C17.7879 38.8592 18.1558 38.8597 18.5237 38.8604C18.921 38.861 19.3183 38.8602 19.7155 38.8595C20.4035 38.8585 21.0914 38.8583 21.7794 38.8587C22.7745 38.8593 23.7697 38.8583 24.7649 38.8569C26.3802 38.8547 27.9956 38.8533 29.6109 38.8526C29.7076 38.8526 29.8042 38.8526 29.9037 38.8525C30.688 38.8522 31.4722 38.8519 32.2564 38.8517C32.9424 38.8514 33.6283 38.8512 34.3143 38.8509C34.4109 38.8508 34.5075 38.8508 34.607 38.8508C36.2168 38.8501 37.8266 38.8485 39.4363 38.8462C40.4293 38.8449 41.4222 38.8444 42.4152 38.8449C43.0951 38.8453 43.7749 38.8448 44.4548 38.8436C44.8473 38.843 45.2397 38.8427 45.6322 38.8435C45.9913 38.8442 46.3503 38.8439 46.7094 38.8426C46.8395 38.8424 46.9696 38.8425 47.0996 38.8431C47.2761 38.8439 47.4526 38.8432 47.6292 38.8421C47.7273 38.8421 47.8254 38.8421 47.9265 38.842C48.2203 38.8096 48.41 38.7322 48.661 38.5783C48.772 38.3564 48.7637 38.199 48.7391 37.9533C48.5647 37.7308 48.4618 37.6525 48.1922 37.5627C48.0191 37.5553 47.8458 37.5527 47.6725 37.5526C47.5925 37.5524 47.5925 37.5524 47.5109 37.5522C47.3308 37.5519 47.1508 37.5521 46.9707 37.5522C46.8409 37.5521 46.711 37.5519 46.5811 37.5517C46.2231 37.5512 45.8652 37.5512 45.5072 37.5513C45.1215 37.5513 44.7358 37.5509 44.3501 37.5505C43.5939 37.5499 42.8376 37.5497 42.0814 37.5496C41.4664 37.5496 40.8514 37.5494 40.2364 37.5492C38.4928 37.5485 36.7492 37.5481 35.0057 37.5482C34.9116 37.5482 34.8175 37.5482 34.7206 37.5482C34.6264 37.5482 34.5322 37.5482 34.4352 37.5482C32.9105 37.5483 31.3859 37.5475 29.8613 37.5464C28.2958 37.5453 26.7302 37.5447 25.1647 37.5448C24.2858 37.5448 23.4069 37.5446 22.5281 37.5438C21.7793 37.5431 21.0305 37.5429 20.2817 37.5434C19.8999 37.5437 19.5181 37.5437 19.1364 37.543C18.7862 37.5424 18.436 37.5425 18.0858 37.5432C17.9598 37.5433 17.8337 37.5432 17.7077 37.5427C15.7459 37.5364 14.0622 37.8845 12.6454 39.3596ZM14.4081 41.0246C13.8573 41.6938 13.673 42.4109 13.7391 43.2658C13.8625 43.9961 14.2409 44.6269 14.8182 45.092C15.5 45.5584 16.2093 45.6976 17.0264 45.6973C17.1061 45.6974 17.1061 45.6974 17.1874 45.6976C17.3648 45.6978 17.5423 45.6974 17.7197 45.6971C17.8484 45.6971 17.9771 45.6972 18.1059 45.6973C18.4592 45.6975 18.8124 45.6972 19.1657 45.6968C19.5469 45.6964 19.928 45.6965 20.3091 45.6966C20.9693 45.6966 21.6295 45.6964 22.2897 45.6959C23.2443 45.6953 24.1988 45.6951 25.1534 45.695C26.7021 45.6948 28.2507 45.6943 29.7994 45.6936C31.3038 45.6929 32.8082 45.6923 34.3126 45.692C34.4053 45.692 34.4981 45.6919 34.5936 45.6919C35.0588 45.6918 35.524 45.6917 35.9893 45.6916C39.8486 45.6908 43.7079 45.6894 47.5672 45.6877C47.5672 44.6564 47.5672 43.6252 47.5672 42.5627C43.8547 42.5627 40.1422 42.5627 36.3172 42.5627C36.3172 42.1502 36.3172 41.7377 36.3172 41.3127C40.0297 41.3127 43.7422 41.3127 47.5672 41.3127C47.5672 40.9002 47.5672 40.4877 47.5672 40.0627C43.6207 40.0591 39.6742 40.0564 35.7276 40.0547C35.2617 40.0545 34.7957 40.0543 34.3298 40.0541C34.1906 40.054 34.1906 40.054 34.0487 40.054C32.5468 40.0533 31.0449 40.0521 29.543 40.0506C28.0019 40.0492 26.4607 40.0483 24.9196 40.048C23.9687 40.0478 23.0178 40.0471 22.0669 40.0458C21.4147 40.045 20.7626 40.0448 20.1104 40.045C19.7342 40.0451 19.358 40.0449 18.9818 40.0441C18.6371 40.0433 18.2924 40.0433 17.9476 40.0438C17.8232 40.0439 17.6988 40.0437 17.5744 40.0432C16.3689 40.0387 15.2825 40.0983 14.4081 41.0246Z" fill="#040204"/>
<path d="M16.3174 43.1877C22.0924 43.1877 27.8674 43.1877 33.8174 43.1877C33.8174 43.6002 33.8174 44.0127 33.8174 44.4377C28.0424 44.4377 22.2674 44.4377 16.3174 44.4377C16.3174 44.0252 16.3174 43.6127 16.3174 43.1877Z" fill="#040204"/>
</g>
<defs>
<clipPath id="clip0_4_48">
<rect width="60" height="60" fill="white"/>
</clipPath>
</defs>
</svg>
