<svg width="60" height="60" viewBox="0 0 60 60" fill="none" xmlns="http://www.w3.org/2000/svg">
<path d="M44 0H16C7.16344 0 0 7.16344 0 16V44C0 52.8366 7.16344 60 16 60H44C52.8366 60 60 52.8366 60 44V16C60 7.16344 52.8366 0 44 0Z" fill="#EAFFC9"/>
<path d="M15.4813 12.1075C15.5881 12.1071 15.6949 12.1066 15.8049 12.1061C15.9797 12.1064 15.9797 12.1064 16.158 12.1068C16.2837 12.1065 16.4094 12.1062 16.535 12.1058C16.8799 12.1049 17.2248 12.1049 17.5697 12.1051C17.9419 12.1051 18.314 12.1043 18.6862 12.1036C19.4152 12.1024 20.1441 12.102 20.8731 12.1019C21.4658 12.1019 22.0584 12.1016 22.651 12.1011C24.3316 12.0998 26.0122 12.0992 27.6928 12.0993C27.8287 12.0993 27.8287 12.0993 27.9674 12.0993C28.0581 12.0993 28.1488 12.0993 28.2422 12.0993C29.7119 12.0994 31.1817 12.098 32.6514 12.0959C34.1608 12.0938 35.6703 12.0928 37.1798 12.093C38.0271 12.093 38.8744 12.0926 39.7217 12.091C40.4432 12.0897 41.1646 12.0894 41.8861 12.0904C42.254 12.0909 42.6219 12.0909 42.9899 12.0896C43.3271 12.0885 43.6643 12.0887 44.0015 12.0899C44.1805 12.0903 44.3594 12.0892 44.5384 12.088C45.4336 12.0936 46.1875 12.2294 46.8563 12.7294C47.4123 13.2244 47.6533 13.7422 47.6549 14.4081C47.6553 14.4609 47.6556 14.5137 47.656 14.568C47.657 14.745 47.6568 14.9219 47.6565 15.0988C47.657 15.2269 47.6575 15.355 47.6582 15.4831C47.6596 15.8351 47.6599 16.1872 47.6601 16.5393C47.6604 16.919 47.6618 17.2987 47.663 17.6784C47.6655 18.5087 47.6666 19.339 47.6674 20.1694C47.6679 20.6879 47.6686 21.2064 47.6695 21.7249C47.6717 23.1606 47.6735 24.5963 47.6742 26.032C47.6742 26.1699 47.6742 26.1699 47.6743 26.3105C47.6743 26.4026 47.6744 26.4947 47.6744 26.5896C47.6745 26.7762 47.6746 26.9628 47.6746 27.1495C47.6747 27.242 47.6747 27.3346 47.6748 27.43C47.6755 28.9299 47.6787 30.4299 47.6829 31.9298C47.6872 33.47 47.6894 35.0101 47.6897 36.5502C47.6898 37.4149 47.6909 38.2796 47.6942 39.1442C47.697 39.8805 47.6979 40.6168 47.6964 41.3531C47.6957 41.7287 47.6959 42.1042 47.6984 42.4798C47.7007 42.8239 47.7005 43.168 47.6983 43.5122C47.6979 43.6363 47.6985 43.7605 47.7001 43.8847C47.7099 44.7075 47.6053 45.4034 46.8795 46.0386C46.1883 46.5697 45.4633 46.7567 44.5148 46.7455C43.4108 46.676 42.7178 46.1554 41.9499 45.567C41.7258 45.3964 41.501 45.2266 41.2745 45.0581C41.2187 45.0164 41.163 44.9748 41.1055 44.9319C40.7181 44.6477 40.7181 44.6477 40.2188 44.5447C40.154 44.5393 40.0891 44.534 40.0223 44.5285C39.5346 44.5788 39.2691 44.8391 38.9816 45.1353C38.0858 46.0329 37.2084 46.8569 35.7228 47.0598C34.4962 47.1609 33.4267 46.9546 32.4566 46.3388C31.9087 45.9644 31.4694 45.5418 31.0324 45.0839C30.8179 44.901 30.6771 44.8332 30.3776 44.7673C30.0117 44.7725 29.8121 44.7941 29.5262 44.9808C29.4456 45.0542 29.3663 45.1286 29.2879 45.2035C29.152 45.3248 29.0157 45.446 28.8792 45.567C28.8082 45.6303 28.7371 45.6937 28.6639 45.7589C27.7996 46.5258 26.961 46.9854 25.6499 47.0845C24.5285 47.1216 23.5154 46.864 22.6266 46.3047C22.443 46.1621 22.2778 46.0151 22.1141 45.8578C22.044 45.7911 21.9738 45.7245 21.9016 45.6558C21.6319 45.3951 21.3663 45.1328 21.1138 44.8613C20.8941 44.6581 20.7176 44.5607 20.3798 44.5343C19.7773 44.5726 19.4889 44.7527 19.0777 45.0944C18.9593 45.1875 18.8408 45.2806 18.7223 45.3736C18.6656 45.4191 18.6089 45.4646 18.5505 45.5116C17.7267 46.173 16.9183 46.7283 15.7065 46.7528C14.7629 46.7418 14.1268 46.4871 13.4228 45.996C12.7264 45.2892 12.6957 44.5734 12.7038 43.7129C12.7034 43.5844 12.7027 43.4559 12.7019 43.3274C12.7002 42.9758 12.7013 42.6243 12.7029 42.2727C12.7041 41.893 12.7027 41.5132 12.7016 41.1335C12.6999 40.3902 12.7007 39.647 12.7024 38.9037C12.7036 38.2996 12.704 37.6954 12.7037 37.0913C12.7036 37.0053 12.7036 36.9193 12.7035 36.8306C12.7034 36.6558 12.7034 36.481 12.7033 36.3062C12.7025 34.7613 12.704 33.2164 12.7067 31.6715C12.7093 30.1728 12.7099 28.6741 12.7086 27.1754C12.707 25.5428 12.7067 23.9102 12.7083 22.2776C12.7084 22.1035 12.7086 21.9294 12.7088 21.7553C12.7088 21.6696 12.7089 21.584 12.709 21.4957C12.7095 20.8923 12.7092 20.289 12.7086 19.6856C12.7079 18.9503 12.7085 18.215 12.7108 17.4796C12.7119 17.1045 12.7125 16.7294 12.7115 16.3543C12.7106 16.0108 12.7113 15.6673 12.7134 15.3238C12.7139 15.1997 12.7138 15.0756 12.713 14.9515C12.7079 14.1179 12.7686 13.3856 13.5143 12.7464C14.0819 12.3379 14.712 12.1084 15.4813 12.1075ZM29.1971 19.8321C29.0724 20.0112 28.9545 20.1893 28.8405 20.3725C28.8069 20.4256 28.7734 20.4788 28.7388 20.5335C28.6286 20.7082 28.5192 20.8833 28.4099 21.0583C28.3333 21.1805 28.2567 21.3026 28.1801 21.4247C28.0198 21.6804 27.8599 21.9362 27.7004 22.1921C27.4962 22.5195 27.2906 22.8464 27.0848 23.1731C26.9262 23.425 26.7685 23.6773 26.6111 23.9297C26.5356 24.0503 26.4599 24.1708 26.3839 24.2912C26.2776 24.4598 26.1725 24.6288 26.0677 24.7979C26.0206 24.8718 26.0206 24.8718 25.9726 24.9472C25.7595 25.2946 25.6114 25.6365 25.6871 26.0301C25.7086 26.0749 25.73 26.1197 25.7521 26.1659C25.7718 26.2111 25.7916 26.2562 25.812 26.3028C26.1768 26.7582 26.8172 26.969 27.4036 27.1973C27.4863 27.2303 27.5689 27.2633 27.654 27.2974C28.0448 27.4707 28.0448 27.4707 28.4706 27.538C28.4698 27.5817 28.469 27.6254 28.4682 27.6703C28.4601 28.1256 28.4546 28.5808 28.4507 29.036C28.4488 29.2058 28.4464 29.3756 28.4432 29.5454C28.4388 29.7897 28.4367 30.034 28.4351 30.2784C28.4333 30.3541 28.4314 30.4297 28.4295 30.5077C28.4293 30.9489 28.4664 31.2006 28.8338 31.5364C29.2332 31.8256 29.5554 31.8698 30.0757 31.8499C30.6489 31.7882 30.9499 31.4453 31.2856 31.1002C31.4633 30.8857 31.6243 30.6642 31.7851 30.4414C32.183 29.9 32.593 29.3663 33.0167 28.8375C33.2268 28.5741 33.4368 28.3105 33.6466 28.0469C33.6968 27.984 33.747 27.921 33.7986 27.8562C33.94 27.6779 34.0801 27.4991 34.2199 27.32C34.2618 27.2674 34.3038 27.2148 34.3471 27.1606C34.6079 26.8235 34.7724 26.5423 34.7111 26.1344C34.4806 25.5391 33.9666 25.2275 33.2937 24.9421C32.7134 24.6856 32.1377 24.4258 31.9201 23.8982C31.7906 23.2606 31.8407 22.619 31.8816 21.9767C31.8938 21.6873 31.9011 21.3979 31.9081 21.1084C31.9133 20.9292 31.9211 20.75 31.932 20.571C31.9538 20.1033 31.963 19.82 31.5581 19.4686C31.1629 19.1824 30.8391 19.1318 30.3229 19.1497C29.7901 19.2185 29.5018 19.5016 29.1971 19.8321ZM21.8417 35.2485C21.5304 35.6144 21.5095 35.8967 21.5692 36.3344C21.7824 36.6889 22.0494 36.8726 22.4773 37.0614C22.8313 37.1356 23.167 37.1435 23.532 37.1443C23.6207 37.1446 23.6207 37.1446 23.7112 37.1449C23.9087 37.1456 24.1062 37.1457 24.3037 37.1458C24.4455 37.1461 24.5874 37.1465 24.7293 37.1469C25.1143 37.1478 25.4993 37.1483 25.8843 37.1486C26.1251 37.1488 26.3659 37.1491 26.6066 37.1495C27.3605 37.1505 28.1144 37.1512 28.8683 37.1515C29.7374 37.1518 30.6065 37.153 31.4756 37.1552C32.1482 37.1567 32.8207 37.1575 33.4933 37.1576C33.8946 37.1576 34.2959 37.1581 34.6973 37.1594C35.075 37.1606 35.4527 37.1607 35.8305 37.1601C35.9687 37.16 36.1069 37.1603 36.245 37.1611C37.4091 37.1961 37.4091 37.1961 38.4237 36.8104C38.7948 36.4671 38.855 36.2325 38.8479 35.792C38.8105 35.5184 38.688 35.3735 38.4594 35.1713C37.9334 34.8397 37.5148 34.7989 36.8599 34.7976C36.8007 34.7973 36.7416 34.7971 36.6807 34.7969C36.4832 34.7963 36.2857 34.7962 36.0882 34.7961C35.9464 34.7957 35.8045 34.7954 35.6626 34.795C35.2776 34.794 34.8926 34.7935 34.5076 34.7932C34.2668 34.793 34.0261 34.7927 33.7853 34.7924C33.0314 34.7914 32.2775 34.7907 31.5236 34.7904C30.6545 34.7901 29.7854 34.7888 28.9163 34.7867C28.2438 34.7851 27.5712 34.7844 26.8986 34.7843C26.4973 34.7842 26.096 34.7838 25.6946 34.7825C25.3169 34.7813 24.9392 34.7811 24.5614 34.7818C24.4232 34.7818 24.285 34.7815 24.1469 34.7808C22.8772 34.7467 22.8772 34.7467 21.8417 35.2485Z" fill="#A7FF19"/>
</svg>
