<svg width="60" height="60" viewBox="0 0 60 60" fill="none" xmlns="http://www.w3.org/2000/svg">
<path d="M44 0H16C7.16344 0 0 7.16344 0 16V44C0 52.8366 7.16344 60 16 60H44C52.8366 60 60 52.8366 60 44V16C60 7.16344 52.8366 0 44 0Z" fill="#FFC9C9"/>
<path d="M23.5331 27.1301C23.7482 27.194 23.8967 27.2803 24.0805 27.4022C24.1468 27.445 24.213 27.4879 24.2813 27.532C24.4194 27.6229 24.5572 27.714 24.6948 27.8054C24.7611 27.8482 24.8275 27.8909 24.8959 27.935C24.9857 27.9944 24.9857 27.9944 25.0773 28.0549C25.3049 28.1612 25.4506 28.1667 25.7025 28.1415C25.8536 28.0887 25.8536 28.0887 25.9839 28.0043C26.0331 27.975 26.0823 27.9458 26.1329 27.9157C26.1829 27.8847 26.2328 27.8537 26.2842 27.8218C26.3587 27.7773 26.3587 27.7773 26.4347 27.7319C26.6327 27.6126 26.828 27.494 27.0135 27.3583C27.3468 27.1157 27.3468 27.1157 27.5643 27.1301C27.7795 27.194 27.928 27.2803 28.1118 27.4022C28.1781 27.445 28.2443 27.4879 28.3126 27.532C28.4507 27.6229 28.5885 27.714 28.7261 27.8054C28.7924 27.8482 28.8588 27.8909 28.9272 27.935C29.017 27.9944 29.017 27.9944 29.1086 28.0549C29.3362 28.1612 29.4819 28.1667 29.7337 28.1415C29.8849 28.0887 29.8849 28.0887 30.0152 28.0043C30.0644 27.975 30.1135 27.9458 30.1642 27.9157C30.2391 27.8692 30.2391 27.8692 30.3155 27.8218C30.39 27.7773 30.39 27.7773 30.466 27.7319C30.664 27.6126 30.8593 27.494 31.0448 27.3583C31.3715 27.1204 31.3715 27.1204 31.6034 27.1107C31.8563 27.2158 32.0704 27.36 32.29 27.5149C32.9553 28.0146 32.9553 28.0146 33.765 28.1415C33.9709 28.0491 33.9709 28.0491 34.1664 27.9153C34.2764 27.8456 34.2764 27.8456 34.3886 27.7745C34.464 27.7254 34.5394 27.6763 34.6171 27.6257C34.7671 27.5282 34.9177 27.4314 35.0689 27.3356C35.1352 27.2923 35.2015 27.2491 35.2698 27.2046C35.4509 27.1184 35.4508 27.1184 35.6047 27.1294C35.7512 27.1896 35.8779 27.2564 36.0106 27.3401C36.0831 27.3855 36.0831 27.3855 36.157 27.4317C36.2067 27.4634 36.2563 27.495 36.3075 27.5276C36.358 27.5593 36.4085 27.5909 36.4605 27.6236C36.83 27.8562 36.83 27.8562 36.9168 27.9369C36.9239 28.0386 36.9258 28.1406 36.9258 28.2424C36.9259 28.3089 36.9261 28.3753 36.9262 28.4437C36.926 28.5176 36.9258 28.5914 36.9256 28.6675C36.9257 28.7841 36.9257 28.7841 36.9258 28.9031C36.9259 29.1199 36.9256 29.3367 36.9253 29.5536C36.925 29.787 36.9251 30.0204 36.9251 30.2539C36.9252 30.6586 36.9249 31.0634 36.9245 31.4682C36.9239 32.0534 36.9237 32.6386 36.9236 33.2239C36.9235 34.1733 36.923 35.1227 36.9223 36.0721C36.9216 36.9946 36.9211 37.917 36.9208 38.8395C36.9208 38.8969 36.9208 38.9543 36.9207 39.0135C36.9206 39.4624 36.9204 39.9113 36.9203 40.3602C36.9196 42.5621 36.9181 44.7639 36.9168 46.9658C31.7164 46.9658 26.516 46.9658 21.1581 46.9658C21.3758 46.5382 21.5935 46.1106 21.8178 45.67C21.933 45.3904 22.0415 45.1187 22.1384 44.8345C22.1625 44.7656 22.1865 44.6968 22.2113 44.6258C22.7087 43.1692 23.0719 41.3624 22.2936 39.944C21.7723 39.1183 21.0645 38.7192 20.1319 38.3721C20.1319 34.7934 20.1319 31.2148 20.1319 27.5276C20.7916 27.8687 20.7916 27.8687 21.0252 28.0264C21.2779 28.1674 21.3794 28.1741 21.6712 28.1415C21.878 28.0527 22.0637 27.9392 22.253 27.8218C22.3274 27.7773 22.3274 27.7773 22.4034 27.7319C22.6014 27.6126 22.7967 27.494 22.9822 27.3583C23.3155 27.1157 23.3155 27.1157 23.5331 27.1301Z" fill="#FF2A2A"/>
<path d="M39.7753 27.1866C39.8938 27.2545 40.0094 27.3269 40.1226 27.4022C40.1888 27.445 40.255 27.4879 40.3232 27.532C40.4614 27.6226 40.5992 27.7137 40.7366 27.8054C41.0227 27.9895 41.242 28.1285 41.5863 28.1902C41.8983 28.1272 42.1103 28.0049 42.3682 27.8346C42.8505 27.5276 42.8505 27.5276 42.9271 27.5276C42.9355 29.8186 42.9419 32.1095 42.9458 34.4004C42.9462 34.671 42.9467 34.9417 42.9472 35.2123C42.9473 35.2662 42.9474 35.32 42.9475 35.3755C42.9491 36.2472 42.952 37.1189 42.9553 37.9906C42.9588 38.8854 42.9608 39.7802 42.9615 40.6751C42.962 41.227 42.9636 41.7789 42.9666 42.3308C42.9688 42.7543 42.969 43.1779 42.9685 43.6015C42.9686 43.775 42.9693 43.9485 42.9707 44.122C42.9726 44.3592 42.9721 44.5963 42.9711 44.8336C42.9722 44.9019 42.9733 44.9703 42.9744 45.0407C42.9683 45.5793 42.8133 46.0293 42.4147 46.4307C41.8821 46.8998 41.4017 46.9967 40.6895 46.9858C40.617 46.9855 40.5446 46.9852 40.4699 46.9849C40.2399 46.9838 40.0099 46.9812 39.7799 46.9786C39.6233 46.9776 39.4668 46.9767 39.3102 46.9758C38.9277 46.9736 38.5453 46.9702 38.1628 46.9658C38.1326 44.5556 38.1094 42.1455 38.0954 39.7351C38.0938 39.4503 38.0921 39.1655 38.0903 38.8808C38.09 38.8241 38.0896 38.7674 38.0893 38.709C38.0836 37.7919 38.0732 36.8749 38.061 35.9578C38.0487 35.0163 38.0414 34.0749 38.0387 33.1333C38.0369 32.5526 38.0312 31.9721 38.0204 31.3915C38.0134 30.9929 38.0114 30.5945 38.0131 30.1958C38.0139 29.9659 38.0119 29.7368 38.0055 29.5068C37.9702 28.1676 37.9702 28.1676 38.2948 27.7789C38.6652 27.4591 39.2476 27.007 39.7753 27.1866Z" fill="#FF2A2A"/>
<path d="M45.5886 12.4503C45.6536 12.4967 45.7186 12.5431 45.7856 12.5909C45.8582 12.6402 45.9307 12.6894 46.0055 12.7401C46.6054 13.2224 46.9021 13.9121 46.9916 14.6312C47.0232 15.1253 46.9682 15.5738 46.7894 16.0419C46.7609 16.1188 46.761 16.1188 46.7319 16.1973C46.412 17.0495 46.0629 17.8923 45.7188 18.7362C45.5498 19.1509 45.3811 19.5658 45.2123 19.9806C45.1686 20.0882 45.1248 20.1959 45.081 20.3035C44.7651 21.0795 44.4527 21.8567 44.1429 22.6348C44.013 22.9606 43.8826 23.2862 43.7523 23.6117C43.6478 23.8727 43.5438 24.1337 43.4406 24.3951C43.3437 24.6403 43.2459 24.8852 43.1475 25.1298C43.1116 25.2195 43.076 25.3093 43.0408 25.3992C42.9927 25.5223 42.9431 25.6449 42.8935 25.7675C42.8525 25.8705 42.8525 25.8705 42.8108 25.9756C42.628 26.3073 42.3325 26.5268 42.0063 26.7348C41.9518 26.7705 41.8972 26.8062 41.8411 26.8429C41.6423 26.9309 41.5921 26.9127 41.3878 26.8456C41.2694 26.7777 41.1538 26.7053 41.0405 26.6301C40.9744 26.5872 40.9082 26.5443 40.84 26.5002C40.7017 26.4096 40.5639 26.3185 40.4265 26.2268C40.1528 26.0507 39.92 25.9082 39.5967 25.8289C39.1675 25.9305 38.8375 26.1711 38.4789 26.4065C38.3295 26.504 38.1796 26.6008 38.0291 26.6967C37.9633 26.7399 37.8974 26.7831 37.8296 26.8276C37.6497 26.9138 37.6497 26.9138 37.4961 26.9024C37.2434 26.7996 37.0222 26.6591 36.7931 26.5174C36.7426 26.4874 36.6921 26.4575 36.6401 26.4267C36.592 26.3971 36.544 26.3675 36.4945 26.337C36.4287 26.2969 36.4287 26.2969 36.3617 26.2561C36.2243 26.1346 36.1996 26.0665 36.1838 25.8907C36.2327 25.7153 36.2327 25.7153 36.3181 25.5074C36.3514 25.425 36.3847 25.3427 36.4191 25.2578C36.4582 25.1633 36.4974 25.0688 36.5366 24.9743C36.5787 24.8709 36.6207 24.7676 36.6626 24.6642C36.7615 24.4209 36.8608 24.1778 36.9604 23.9348C37.1599 23.4473 37.3575 22.9592 37.555 22.4709C37.6317 22.2811 37.7085 22.0913 37.7853 21.9015C37.8147 21.829 37.8147 21.829 37.8446 21.755C37.9863 21.4047 38.1283 21.0545 38.2703 20.7044C38.6902 19.6691 39.1088 18.6335 39.5241 17.5967C39.5925 17.4261 39.6609 17.2555 39.7293 17.0849C39.7517 17.0293 39.774 16.9736 39.797 16.9163C39.8416 16.805 39.8863 16.6937 39.9309 16.5824C40.0609 16.2583 40.1906 15.9342 40.3199 15.6099C40.4006 15.408 40.4816 15.2062 40.5626 15.0044C40.5999 14.9114 40.6371 14.8183 40.6741 14.7251C41.1123 13.6227 41.5152 12.8008 42.6702 12.2273C43.6298 11.8426 44.704 11.9688 45.5886 12.4503ZM42.1483 16.4445C42.0965 16.4607 42.0447 16.477 41.9914 16.4938C41.8634 16.534 41.7356 16.5745 41.6077 16.615C41.9945 17.8511 42.4247 19.0741 42.8538 20.298C43.4816 20.1424 43.4816 20.1424 44.0998 19.957C43.713 18.7208 43.2828 17.4978 42.8538 16.274C42.6069 16.274 42.38 16.3709 42.1483 16.4445ZM40.1693 20.8095C40.1175 20.8258 40.0657 20.8421 40.0124 20.8588C39.8844 20.899 39.7566 20.9395 39.6287 20.98C39.759 21.3633 39.8893 21.7466 40.0197 22.1298C40.064 22.2599 40.1082 22.3899 40.1524 22.5199C40.2767 22.8859 40.4016 23.2518 40.5272 23.6174C40.5762 23.7606 40.6245 23.9039 40.6728 24.0472C40.6982 24.1214 40.7237 24.1956 40.7499 24.272C40.771 24.3341 40.792 24.3961 40.8137 24.4601C40.862 24.6074 40.862 24.6074 41.0214 24.6631C41.2112 24.6125 41.3944 24.5579 41.5802 24.4968C41.6579 24.472 41.6579 24.472 41.7371 24.4466C41.8652 24.4055 41.993 24.3639 42.1208 24.322C41.9807 23.8286 41.8264 23.3418 41.655 22.857C41.6325 22.793 41.61 22.7289 41.5869 22.6629C41.5161 22.4614 41.4451 22.26 41.3741 22.0585C41.3256 21.9207 41.2772 21.7828 41.2288 21.6449C41.111 21.3095 40.9929 20.9743 40.8748 20.639C40.6279 20.639 40.401 20.7359 40.1693 20.8095Z" fill="#FF2A2A"/>
<path d="M15.3259 39.6214C15.6238 39.8029 15.875 40.0321 16.1206 40.2714C16.3269 40.4657 16.4444 40.5485 16.7343 40.6266C17.0131 40.6224 17.0817 40.5951 17.2734 40.414C17.3227 40.3698 17.372 40.3257 17.4228 40.2802C17.4703 40.2357 17.5177 40.1913 17.5666 40.1454C18.0893 39.6723 18.5919 39.4515 19.3303 39.4293C20.0007 39.4502 20.463 39.651 20.9534 40.0727C21.5344 40.6959 21.5736 41.4064 21.5246 42.1916C21.4103 43.4194 21.0581 44.5727 20.5076 45.6913C20.4651 45.7798 20.4651 45.7798 20.4218 45.8702C20.1774 46.3433 19.8538 46.6778 19.3517 46.9248C18.604 47.1025 18.0289 46.9253 17.3664 46.6083C17.1212 46.4938 16.958 46.4197 16.6801 46.4223C16.4711 46.4872 16.2805 46.5683 16.0859 46.6643C15.4769 46.9637 14.9304 47.0964 14.2433 46.9224C13.5969 46.6672 13.2398 46.0774 12.9764 45.5037C12.9485 45.4442 12.9206 45.3846 12.8919 45.3232C12.2812 43.9871 11.7358 42.2106 12.1381 40.7593C12.3505 40.2866 12.7814 39.8614 13.2696 39.6296C13.9238 39.3882 14.6711 39.3469 15.3259 39.6214Z" fill="#FF2A2A"/>
<path d="M24.1632 12.0027C24.2101 12.0018 24.257 12.0009 24.3052 12C24.5553 12.0749 24.6609 12.1953 24.8229 12.3863C24.8749 12.6025 24.8706 12.8135 24.867 13.0343C24.8676 13.0965 24.8682 13.1588 24.8688 13.223C24.8705 13.4216 24.8698 13.62 24.8687 13.8186C24.8684 14.0171 24.8687 14.2156 24.8702 14.4142C24.8711 14.5375 24.8709 14.6609 24.8695 14.7843C24.8712 15.1416 24.9038 15.3944 25.1894 15.6601C25.4392 15.6981 25.6222 15.7079 25.841 15.5775C26.0646 15.3974 26.2669 15.2052 26.4658 15.0015C27.0038 14.4621 27.0038 14.4621 27.3745 14.4111C27.6522 14.4107 27.8326 14.4671 28.0479 14.6371C28.2208 14.8784 28.2396 15.0095 28.2303 15.2933C28.1613 15.6063 27.9185 15.7832 27.6815 16.0011C27.5817 16.1029 27.4819 16.2047 27.3827 16.307C26.9725 16.7283 26.5452 17.1323 26.1089 17.5302C26.0675 17.5681 26.0262 17.6059 25.9836 17.645C25.947 17.6783 25.9104 17.7115 25.8726 17.7458C25.6001 18.0182 25.6096 18.2452 25.6139 18.5962C25.614 18.6521 25.6141 18.708 25.6142 18.7656C25.6144 18.8871 25.615 19.0086 25.6158 19.13C25.6169 19.3224 25.6167 19.5148 25.6162 19.7071C25.6149 20.2541 25.6144 20.8011 25.6178 21.3481C25.6199 21.6827 25.6194 22.0172 25.6173 22.3518C25.617 22.4792 25.6176 22.6066 25.6192 22.734C25.6213 22.9125 25.6203 23.0907 25.6185 23.2692C25.6199 23.3216 25.6213 23.3741 25.6227 23.4281C25.6175 23.6598 25.6047 23.7925 25.4375 23.9711C25.3102 24.0733 25.182 24.1662 25.0428 24.2538C24.9632 24.1076 24.8838 23.9612 24.8046 23.8148C24.7662 23.744 24.7662 23.744 24.727 23.6717C24.5586 23.359 24.396 23.0442 24.2371 22.7272C24.1991 22.652 24.1612 22.5768 24.1221 22.4993C24.0469 22.35 23.9724 22.2004 23.8986 22.0505C23.6889 21.6355 23.4692 21.318 23.1371 20.98C23.1371 20.935 23.1371 20.89 23.1371 20.8436C23.0949 20.8252 23.0526 20.8067 23.0091 20.7877C22.8425 20.7065 22.6985 20.6135 22.5461 20.5111C22.0802 20.2192 21.584 20.0512 21.0298 19.974C20.6306 19.9019 20.4297 19.6416 20.2052 19.3431C20.0785 19.1073 20.0961 18.8507 20.1319 18.5929C20.2634 18.3971 20.3506 18.2866 20.5717 18.1837C21.1077 18.1595 21.1077 18.1595 21.3093 18.2561C21.5396 18.3598 21.7222 18.3051 21.9643 18.2519C22.1156 18.185 22.1156 18.185 22.1842 18.0473C22.2387 17.8403 22.2503 17.7669 22.1842 17.5698C21.9965 17.3153 21.7601 17.1038 21.5246 16.8878C21.3728 16.7477 21.2211 16.6075 21.0695 16.4672C20.9651 16.371 20.8602 16.2752 20.7548 16.1799C20.1019 15.5834 20.1019 15.5834 20.0953 15.1486C20.1035 14.8946 20.1265 14.848 20.306 14.6371C20.6007 14.4281 20.7617 14.4045 21.1237 14.4465C21.479 14.5528 21.6934 14.8296 21.9323 15.0846C22.2641 15.4714 22.2641 15.4714 22.7149 15.6992C22.9342 15.7026 23.0956 15.6862 23.2791 15.5706C23.414 15.3712 23.4393 15.1994 23.4395 14.9701C23.4398 14.9139 23.4401 14.8576 23.4404 14.7997C23.4404 14.7392 23.4405 14.6786 23.4406 14.6163C23.4419 14.4879 23.4434 14.3596 23.4449 14.2313C23.447 14.0291 23.4486 13.8269 23.4486 13.6247C23.4489 13.4294 23.4514 13.2343 23.4543 13.039C23.4538 12.9788 23.4533 12.9185 23.4528 12.8565C23.4592 12.5508 23.4705 12.4253 23.6804 12.1778C23.8638 12.0497 23.9387 11.9985 24.1632 12.0027Z" fill="#FF2A2A"/>
<path d="M26.8019 18.8657C28.8095 18.8657 30.8171 18.8657 32.8855 18.8657C32.8855 21.3865 32.8855 23.9074 32.8855 26.5046C32.8613 26.5046 32.8371 26.5046 32.8122 26.5046C32.8006 26.4452 32.7889 26.3857 32.777 26.3245C32.5333 25.1671 32.0432 24.1371 30.9798 23.4354C29.9697 22.8759 28.9004 22.5851 27.7195 22.7997C27.5714 22.835 27.4239 22.8725 27.2775 22.9132C27.0951 22.958 27.0951 22.958 26.8019 22.958C26.8019 21.6075 26.8019 20.2571 26.8019 18.8657Z" fill="#FF2A2A"/>
<path d="M36.8435 16.0011C36.9259 16.0668 37.0084 16.1324 37.0908 16.1981C37.1368 16.2347 37.1827 16.2712 37.23 16.3089C37.4502 16.4854 37.6607 16.67 37.8696 16.858C37.9134 16.8955 37.9571 16.9331 38.0022 16.9718C38.1262 17.0841 38.1262 17.0841 38.3094 17.297C38.2836 17.5671 38.1738 17.8135 38.0726 18.0663C38.056 18.1081 38.0394 18.1498 38.0223 18.1928C37.9671 18.3312 37.9115 18.4695 37.8559 18.6078C37.8166 18.7061 37.7774 18.8043 37.7381 18.9026C37.633 19.1657 37.5275 19.4287 37.422 19.6916C37.3348 19.9089 37.2478 20.1263 37.1608 20.3436C36.6456 21.631 36.1281 22.9176 35.6066 24.2027C35.5814 24.2648 35.5562 24.3268 35.5303 24.3908C35.3999 24.712 35.2688 25.0329 35.1367 25.3535C35.0891 25.4699 35.0428 25.5869 34.9967 25.7038C34.9721 25.765 34.9474 25.8261 34.922 25.8891C34.893 25.9631 34.893 25.9631 34.8634 26.0385C34.728 26.273 34.5228 26.3757 34.2781 26.5046C34.2539 26.5046 34.2297 26.5046 34.2048 26.5046C34.1424 25.498 34.0963 24.4916 34.0681 23.4838C34.0546 23.0153 34.0364 22.548 34.0058 22.0802C33.7929 18.7647 33.7929 18.7647 34.8039 17.6475C35.4098 17.0229 36.106 16.4858 36.8435 16.0011Z" fill="#FF2A2A"/>
<path d="M21.9643 21.4575C22.338 21.7598 22.62 22.1026 22.8327 22.5181C22.8707 22.5918 22.9087 22.6654 22.9478 22.7413C23.0075 22.8591 23.0075 22.8591 23.0684 22.9793C23.1302 23.1009 23.1302 23.1009 23.1934 23.225C23.2574 23.351 23.3214 23.4771 23.3851 23.6033C23.5283 23.8868 23.6751 24.1685 23.8237 24.4497C23.8987 24.5947 23.9738 24.7397 24.0487 24.8847C24.0847 24.9516 24.1206 25.0184 24.1577 25.0873C24.4205 25.6046 24.4205 25.6046 24.3307 25.9025C24.2996 25.9661 24.2686 26.0298 24.2365 26.0954C23.8884 25.9675 23.8884 25.9675 23.7235 25.8907C23.3333 25.8243 23.1445 25.9108 22.8178 26.1169C22.6745 26.2124 22.532 26.309 22.3904 26.4065C22.2479 26.504 22.1049 26.6008 21.9612 26.6967C21.8984 26.7399 21.8357 26.7831 21.771 26.8276C21.5979 26.9138 21.5979 26.9138 21.4481 26.9043C21.1563 26.7849 20.9 26.6136 20.6359 26.4492C20.5755 26.4127 20.5151 26.3763 20.4529 26.3387C20.3663 26.2851 20.3663 26.2851 20.278 26.2304C20.2253 26.198 20.1727 26.1656 20.1184 26.1322C19.9726 26.0171 19.9113 25.9174 19.8388 25.7543C20.231 25.4213 20.6413 25.1177 21.0688 24.8252C21.1745 24.7515 21.2766 24.6735 21.378 24.5949C21.378 24.3744 21.2234 24.2481 21.0848 24.0748C21.0304 24.0064 20.9759 23.938 20.9199 23.8675C20.8775 23.815 20.8352 23.7624 20.7916 23.7082C20.344 23.9164 19.98 24.2029 19.602 24.5035C19.44 24.6308 19.2771 24.7517 19.1058 24.8677C18.8645 24.7741 18.7544 24.6834 18.6202 24.4755C18.5905 24.4308 18.5609 24.3862 18.5303 24.3402C18.2275 23.7843 18.2055 23.162 18.3448 22.5567C18.545 22.0309 18.9359 21.5589 19.4677 21.2912C20.3365 20.9483 21.1613 20.9756 21.9643 21.4575Z" fill="#FF2A2A"/>
<path d="M30.3588 24.394C30.8701 24.7683 31.1574 25.2057 31.4196 25.7543C31.0709 26.026 30.6975 26.2609 30.3201 26.4961C30.2223 26.5594 30.2223 26.5594 30.1226 26.6239C30.0593 26.6632 29.996 26.7024 29.9307 26.7428C29.8736 26.7789 29.8164 26.815 29.7575 26.8522C29.5872 26.9138 29.5872 26.9138 29.4036 26.8693C29.2213 26.7777 29.0522 26.6803 28.8822 26.5701C28.8196 26.5306 28.757 26.491 28.6924 26.4502C28.5622 26.3672 28.4324 26.2835 28.303 26.1993C28.0381 26.0332 27.8148 25.9049 27.5037 25.8316C27.0788 25.9275 26.7622 26.1651 26.4125 26.4023C26.2679 26.4984 26.1232 26.5944 25.9782 26.69C25.9147 26.7329 25.8511 26.7757 25.7857 26.8199C25.6292 26.9138 25.6292 26.9138 25.4826 26.9138C25.4268 26.1821 25.5727 25.5017 26.0875 24.9271C27.2533 23.7647 28.9076 23.4652 30.3588 24.394Z" fill="#FF2A2A"/>
<path d="M32.4418 15.6112C32.7655 15.629 33.0895 15.6365 33.4136 15.6451C34.0446 15.6631 34.6742 15.692 35.3043 15.7283C34.9402 16.4852 34.1134 17.3137 33.3253 17.7062C32.4798 17.9863 31.4954 17.8768 30.6172 17.8233C30.2935 17.8056 29.9695 17.798 29.6454 17.7895C29.0144 17.7714 28.3848 17.7425 27.7547 17.7062C28.6861 15.7704 30.4006 15.4871 32.4418 15.6112Z" fill="#FF2A2A"/>
<path d="M30.1735 13.273C32.1811 13.273 34.1887 13.273 36.2571 13.273C36.2571 13.7006 36.2571 14.1282 36.2571 14.5688C34.2495 14.5688 32.2419 14.5688 30.1735 14.5688C30.1735 14.1412 30.1735 13.7136 30.1735 13.273Z" fill="#FF2A2A"/>
</svg>
