<svg width="60" height="60" viewBox="0 0 60 60" fill="none" xmlns="http://www.w3.org/2000/svg">
<rect width="60" height="60" fill="white" fill-opacity="0.01"/>
<path d="M0 16C0 7.16344 7.16344 0 16 0H44C52.8366 0 60 7.16344 60 16V44C60 52.8366 52.8366 60 44 60H16C7.16344 60 0 52.8366 0 44V16Z" fill="#F9C4E1"/>
<g clip-path="url(#clip0_11_2)">
<rect width="30" height="30" transform="translate(15 15)" fill="#FFC3E3"/>
<path d="M29.8241 20.332C29.9109 20.3798 29.9109 20.3798 29.9995 20.4286C30.4325 20.6859 30.7876 21.0163 31.1472 21.3653C31.2154 21.4309 31.2855 21.4946 31.3561 21.5577C31.7958 21.9623 32.1202 22.4814 32.4609 22.9687C32.6423 22.7966 32.7874 22.615 32.9333 22.4121C34.0504 20.9085 35.5191 19.8394 37.3827 19.5117C37.5981 19.4805 37.8099 19.4611 38.0273 19.4531C38.0723 19.4508 38.1173 19.4484 38.1637 19.446C39.8124 19.3996 41.5127 20.0395 42.7184 21.1633C42.8355 21.2758 42.951 21.3897 43.0663 21.5039C43.1052 21.5392 43.144 21.5744 43.184 21.6108C44.2177 22.5652 44.9158 24.1159 45.0137 25.5086C45.1012 27.7981 44.3814 29.5555 42.832 31.2305C42.6025 31.154 42.5416 31.0148 42.4181 30.8203C41.843 29.9579 40.9842 29.4089 39.9673 29.2042C38.7997 29.0472 37.7811 29.3427 36.8371 30.0439C36.1701 30.6061 35.6813 31.4777 35.5663 32.3437C35.4839 33.4922 35.6789 34.496 36.4416 35.3979C36.5094 35.4725 36.5094 35.4725 36.5787 35.5485C36.6796 35.6836 36.6796 35.6836 36.6796 35.918C36.5567 36.0294 36.5567 36.0294 36.383 36.1487C35.0243 37.1158 33.7632 38.3814 33.0486 39.9076C33.0219 39.9645 33.0219 39.9645 32.9947 40.0226C32.9473 40.1264 32.9022 40.2312 32.8573 40.3361C32.7538 40.4883 32.7538 40.4883 32.5845 40.5544C32.3428 40.5444 32.2728 40.4896 32.1093 40.3125C32.0316 40.1623 31.9648 40.0177 31.9006 39.8621C31.5255 39.0166 30.9667 38.3047 30.3217 37.6478C30.2344 37.5587 30.1485 37.4685 30.0626 37.378C29.7617 37.0648 29.4486 36.7791 29.1064 36.5112C29.0718 36.484 29.0373 36.4568 29.0017 36.4288C28.8553 36.3153 28.7133 36.2123 28.5527 36.1194C28.4177 36.0402 28.3361 35.9842 28.2421 35.8594C28.2333 35.7093 28.2333 35.7093 28.2529 35.5282C28.2634 35.4258 28.2634 35.4258 28.2741 35.3213C28.2829 35.2475 28.2917 35.1737 28.3007 35.0977C28.3092 35.0225 28.3176 34.9474 28.3263 34.87C28.355 34.6196 28.3862 34.3695 28.4177 34.1194C28.4291 34.0277 28.4406 33.9359 28.452 33.8441C28.4759 33.6535 28.4999 33.463 28.524 33.2724C28.5548 33.0283 28.5851 32.784 28.6152 32.5397C28.6386 32.351 28.6623 32.1623 28.6862 31.9736C28.6976 31.8835 28.7088 31.7934 28.7198 31.7032C28.7352 31.5779 28.7511 31.4526 28.7673 31.3273C28.7762 31.256 28.7851 31.1848 28.7943 31.1114C28.8281 30.9375 28.8281 30.9375 28.9452 30.7617C29.103 31.5059 29.2556 32.2509 29.3996 32.9979C29.4406 33.2091 29.4817 33.4204 29.5228 33.6316C29.5507 33.7759 29.5784 33.9201 29.6058 34.0645C29.6462 34.2767 29.6876 34.4888 29.7292 34.7008C29.7411 34.765 29.7531 34.8293 29.7654 34.8955C29.8623 35.3817 29.9888 35.6849 30.4101 35.9766C30.7815 36.1004 31.0695 36.0524 31.4144 35.8921C31.7284 35.6289 31.8069 35.2482 31.874 34.8642C31.8835 34.8136 31.8929 34.7631 31.9027 34.711C31.9332 34.547 31.9627 34.3829 31.9921 34.2187C32.0128 34.1065 32.0336 33.9942 32.0545 33.8819C32.1177 33.5403 32.1795 33.1984 32.2411 32.8564C32.2626 32.7376 32.2842 32.6187 32.3057 32.4998C32.3575 32.2135 32.4092 31.927 32.4609 31.6406C32.4995 31.66 32.5382 31.6793 32.5781 31.6992C32.6136 31.8114 32.6136 31.8114 32.6433 31.9576C32.6548 32.0108 32.6663 32.064 32.6782 32.1189C32.7014 32.2305 32.7243 32.3422 32.7469 32.454C32.8392 32.8764 32.9609 33.2616 33.3324 33.512C33.6743 33.6282 33.9414 33.6742 34.2754 33.524C34.5252 33.3835 34.6978 33.1767 34.7976 32.9078C34.8411 32.7353 34.8752 32.5627 34.9072 32.3877C34.9206 32.3201 34.9341 32.2525 34.9479 32.1829C34.9796 32.0226 35.0108 31.8622 35.0412 31.7017C35.1216 31.2787 35.205 30.8563 35.288 30.4338C35.3551 30.0919 35.4219 29.75 35.4879 29.4078C35.5004 29.3434 35.5128 29.279 35.5257 29.2127C35.5494 29.0901 35.5731 28.9675 35.5965 28.8449C35.6071 28.7904 35.6177 28.7358 35.6287 28.6795C35.6379 28.6317 35.6471 28.5838 35.6566 28.5345C35.6835 28.418 35.6835 28.418 35.7421 28.3008C35.8153 28.3004 35.8886 28.3001 35.964 28.2997C36.6546 28.2964 37.3451 28.2921 38.0357 28.287C38.3907 28.2843 38.7457 28.282 39.1007 28.2805C39.4434 28.279 39.7861 28.2766 40.1288 28.2736C40.2594 28.2727 40.3901 28.272 40.5207 28.2716C40.7039 28.2711 40.8871 28.2694 41.0703 28.2675C41.1511 28.2676 41.1511 28.2676 41.2335 28.2678C41.5583 28.263 41.7797 28.2123 42.0702 28.0664C42.1282 28.0471 42.1863 28.0277 42.246 28.0078C42.3125 27.8733 42.3125 27.8733 42.3632 27.7148C42.3862 27.6713 42.4091 27.6278 42.4328 27.583C42.5267 27.2652 42.4703 26.9848 42.3156 26.6968C42.1487 26.4965 42.0244 26.391 41.7773 26.3086C41.6799 26.3028 41.5824 26.3004 41.4849 26.3C41.4245 26.2995 41.3641 26.2991 41.3019 26.2987C41.2357 26.2985 41.1695 26.2984 41.1013 26.2982C40.9967 26.2976 40.9967 26.2976 40.8899 26.2971C40.6586 26.2959 40.4273 26.2952 40.1959 26.2946C40.1162 26.2944 40.0365 26.2941 39.9568 26.2939C39.5823 26.2928 39.2078 26.292 38.8333 26.2915C38.4014 26.2909 37.9694 26.2894 37.5374 26.287C37.2033 26.2852 36.8692 26.2843 36.5351 26.2842C36.3356 26.284 36.1362 26.2835 35.9368 26.282C35.7141 26.2806 35.4916 26.2806 35.2689 26.2811C35.2031 26.2803 35.1372 26.2796 35.0694 26.2788C34.704 26.2812 34.5018 26.3085 34.2187 26.543C34.18 26.543 34.1413 26.543 34.1015 26.543C33.983 26.8188 33.9198 27.0977 33.8543 27.3898C33.8392 27.4391 33.8241 27.4883 33.8085 27.5391C33.7698 27.5584 33.7312 27.5777 33.6913 27.5977C33.6798 27.5513 33.6683 27.5049 33.6565 27.4571C33.6039 27.2462 33.5506 27.0356 33.4972 26.8249C33.4792 26.7519 33.4611 26.6789 33.4424 26.6037C33.4245 26.5333 33.4065 26.4629 33.3881 26.3903C33.3637 26.2932 33.3637 26.2932 33.3388 26.1941C33.2458 25.906 33.1046 25.6818 32.871 25.4883C32.5754 25.3439 32.3054 25.3516 31.9921 25.4297C31.7599 25.5544 31.6028 25.675 31.4648 25.8984C31.4198 26.0549 31.3826 26.2058 31.3503 26.3649C31.3405 26.411 31.3308 26.4572 31.3207 26.5047C31.2058 27.0549 31.1079 27.6082 31.0107 28.1616C30.992 28.2669 30.9733 28.3722 30.9546 28.4775C30.9096 28.731 30.8648 28.9846 30.8202 29.2383C30.7816 29.2189 30.7429 29.1996 30.7031 29.1797C30.6615 29.0144 30.6273 28.8521 30.5967 28.6847C30.5818 28.6068 30.5818 28.6068 30.5666 28.5273C30.545 28.4142 30.5236 28.301 30.5025 28.1877C30.469 28.0083 30.4348 27.829 30.4004 27.6498C30.3027 27.14 30.2063 26.63 30.1102 26.1199C30.0514 25.8082 29.9919 25.4966 29.932 25.1851C29.9093 25.0664 29.887 24.9477 29.8649 24.829C29.8339 24.6623 29.802 24.4959 29.7699 24.3295C29.7567 24.2563 29.7567 24.2563 29.7432 24.1815C29.667 23.7946 29.5565 23.4894 29.2345 23.2397C28.9688 23.0927 28.7789 23.0611 28.4765 23.0859C28.1479 23.1838 27.9532 23.3453 27.7805 23.6374C27.6425 23.9559 27.6192 24.3018 27.5793 24.6437C27.5684 24.7298 27.5574 24.8159 27.5463 24.902C27.5166 25.1344 27.4883 25.3669 27.4603 25.5995C27.4307 25.8431 27.3998 26.0864 27.369 26.3298C27.311 26.7902 27.2542 27.2507 27.1978 27.7112C27.1336 28.2358 27.068 28.7602 27.0023 29.2845C26.8672 30.3627 26.7338 31.441 26.6015 32.5195C26.5628 32.5195 26.5241 32.5195 26.4843 32.5195C26.4738 32.4779 26.4633 32.4362 26.4525 32.3933C26.3532 31.9992 26.2532 31.6052 26.1527 31.2115C26.101 31.0091 26.0495 30.8066 25.9986 30.604C25.9399 30.3707 25.8803 30.1376 25.8205 29.9046C25.7935 29.7962 25.7935 29.7962 25.766 29.6857C25.6051 29.0411 25.6051 29.0411 25.1873 28.5414C24.7928 28.3198 24.2961 28.3754 23.8567 28.3765C23.7549 28.3758 23.6531 28.3749 23.5513 28.3739C23.2847 28.3715 23.0181 28.3709 22.7515 28.3707C22.4789 28.3701 22.2063 28.3679 21.9337 28.3659C21.3998 28.3621 20.8659 28.3602 20.332 28.3594C20.2941 28.2495 20.2566 28.1396 20.2193 28.0296C20.1984 27.9684 20.1774 27.9072 20.1559 27.8441C19.6815 26.3158 19.9717 24.5631 20.6746 23.1548C21.5992 21.4595 23.114 20.2382 24.9609 19.6875C26.6896 19.2432 28.2759 19.4749 29.8241 20.332Z" fill="#FF1F98"/>
<path d="M28.74 23.6682C28.9451 23.7305 28.9451 23.7305 29.0352 23.8882C29.167 24.2323 29.2223 24.5991 29.2905 24.9599C29.3066 25.0429 29.3227 25.1259 29.3388 25.2089C29.3733 25.3869 29.4075 25.5649 29.4415 25.743C29.4952 26.0245 29.5496 26.3058 29.6041 26.5872C29.69 27.0319 29.7756 27.4766 29.8609 27.9215C30.014 28.719 30.1678 29.5164 30.3218 30.3138C30.3758 30.5937 30.4296 30.8736 30.4833 31.1536C30.5166 31.3273 30.5501 31.5009 30.5835 31.6746C30.5991 31.7553 30.6145 31.8361 30.63 31.9168C30.6509 32.0267 30.6721 32.1366 30.6934 32.2465C30.7111 32.3388 30.7111 32.3388 30.7292 32.4331C30.7552 32.5773 30.7552 32.5773 30.8201 32.6953C30.8286 32.6468 30.8286 32.6468 30.8372 32.5973C30.9742 31.8099 31.1117 31.0225 31.2495 30.2352C31.3161 29.8545 31.3827 29.4738 31.4489 29.093C31.5128 28.7255 31.5771 28.3582 31.6415 27.9908C31.6661 27.8506 31.6905 27.7104 31.7148 27.5701C31.7489 27.3738 31.7833 27.1776 31.8179 26.9813C31.8279 26.9232 31.8379 26.8651 31.8482 26.8052C31.9424 26.2744 31.9424 26.2744 32.0506 26.0742C32.2264 25.957 32.2264 25.957 32.4021 25.9644C32.6125 26.0257 32.643 26.0654 32.7537 26.25C32.8123 26.4376 32.8123 26.4376 32.8642 26.662C32.8738 26.703 32.8835 26.744 32.8934 26.7862C32.925 26.9212 32.9559 27.0564 32.9867 27.1916C33.0086 27.2856 33.0305 27.3796 33.0525 27.4735C33.1102 27.7205 33.1672 27.9677 33.2241 28.2149C33.3154 28.6111 33.4077 29.0069 33.4999 29.4029C33.532 29.5413 33.5639 29.6798 33.5958 29.8183C33.6154 29.9028 33.6349 29.9874 33.6545 30.0719C33.68 30.1829 33.68 30.1829 33.7061 30.2961C33.7419 30.4634 33.7419 30.4634 33.8084 30.5859C33.8168 30.5423 33.8252 30.4986 33.8339 30.4537C33.9134 30.0423 33.9935 29.631 34.0743 29.2199C34.1159 29.0085 34.1571 28.7971 34.1978 28.5856C34.2371 28.3815 34.2771 28.1775 34.3175 27.9736C34.3328 27.8958 34.3479 27.8179 34.3627 27.74C34.3835 27.6309 34.4052 27.5219 34.427 27.413C34.4391 27.3509 34.4512 27.2889 34.4637 27.2249C34.5157 27.0568 34.5501 27.0008 34.6873 26.8945C34.8182 26.8721 34.8182 26.8721 34.9742 26.8714C35.0629 26.8704 35.0629 26.8704 35.1534 26.8694C35.2507 26.8697 35.2507 26.8697 35.3499 26.8699C35.4182 26.8694 35.4866 26.8689 35.5569 26.8684C35.7834 26.867 36.0099 26.867 36.2364 26.8671C36.3537 26.8668 36.471 26.8664 36.5883 26.8661C36.9572 26.8649 37.3261 26.8648 37.695 26.8652C38.0757 26.8656 38.4564 26.8642 38.8372 26.8621C39.164 26.8603 39.4907 26.8596 39.8175 26.8598C40.0127 26.8599 40.2079 26.8595 40.4032 26.8582C40.6208 26.8569 40.8383 26.8574 41.0559 26.8585C41.1208 26.8577 41.1856 26.8569 41.2524 26.8561C41.4133 26.8579 41.5611 26.8614 41.7185 26.8945C41.8676 27.0546 41.8958 27.1249 41.8907 27.3413C41.8228 27.5131 41.7574 27.5601 41.6014 27.6562C41.4728 27.6779 41.4728 27.6779 41.3307 27.6774C41.2496 27.6778 41.2496 27.6778 41.1669 27.6781C41.0786 27.6772 41.0786 27.6772 40.9885 27.6762C40.9261 27.6762 40.8638 27.6763 40.7996 27.6763C40.5935 27.6762 40.3875 27.6748 40.1814 27.6734C40.0385 27.6731 39.8957 27.6728 39.7528 27.6727C39.3767 27.672 39.0007 27.6703 38.6246 27.6683C38.2409 27.6665 37.8572 27.6657 37.4735 27.6648C36.7205 27.6629 35.9676 27.66 35.2146 27.6562C35.2066 27.6998 35.1986 27.7434 35.1904 27.7882C35.0081 28.7786 34.8235 29.7685 34.6317 30.757C34.5928 30.9576 34.5542 31.1583 34.5161 31.3591C34.4712 31.5959 34.4253 31.8325 34.3792 32.0691C34.3589 32.1776 34.3589 32.1776 34.3382 32.2882C34.3185 32.3879 34.3185 32.3879 34.2984 32.4895C34.2872 32.5479 34.276 32.6062 34.2644 32.6663C34.2149 32.8242 34.1762 32.892 34.0428 32.9883C33.6834 33.0268 33.6834 33.0268 33.5368 32.9157C33.4415 32.7927 33.4132 32.6973 33.3779 32.5459C33.3585 32.4648 33.3585 32.4648 33.3387 32.382C33.3187 32.2938 33.3187 32.2938 33.2982 32.2039C33.2837 32.1425 33.2692 32.081 33.2542 32.0177C33.2076 31.8201 33.1619 31.6224 33.1163 31.4246C33.071 31.2312 33.0256 31.0379 32.9802 30.8446C32.952 30.7245 32.924 30.6044 32.8962 30.4843C32.7401 29.813 32.5702 29.145 32.4021 28.4766C32.3934 28.5278 32.3934 28.5278 32.3845 28.5801C32.2427 29.4116 32.0998 30.243 31.9559 31.0742C31.8863 31.4761 31.8171 31.8781 31.7486 32.2803C31.6826 32.6683 31.6156 33.0562 31.548 33.444C31.5224 33.592 31.4971 33.7401 31.4721 33.8882C31.437 34.0956 31.4009 34.3027 31.3644 34.5098C31.3543 34.5712 31.3442 34.6326 31.3338 34.6959C31.2361 35.2392 31.2361 35.2392 30.9959 35.4492C30.7872 35.4565 30.7872 35.4565 30.5857 35.3906C30.4356 35.1875 30.3764 35.0009 30.3291 34.7548C30.3157 34.6862 30.3022 34.6176 30.2883 34.5469C30.2743 34.4722 30.2602 34.3975 30.2457 34.3205C30.2302 34.2406 30.2147 34.1607 30.1992 34.0808C30.1571 33.8643 30.1158 33.6477 30.0746 33.4311C30.0313 33.2042 29.9874 32.9775 29.9435 32.7508C29.8606 32.3214 29.7782 31.8919 29.696 31.4624C29.5843 30.8789 29.4719 30.2956 29.3594 29.7122C29.3324 29.5722 29.3054 29.4321 29.2784 29.292C29.2697 29.2466 29.2609 29.2012 29.2519 29.1544C29.1999 28.8845 29.148 28.6145 29.0963 28.3445C29.0641 28.1766 29.0319 28.0087 28.9997 27.8409C28.9776 27.7259 28.9556 27.6109 28.9337 27.4959C28.9205 27.4275 28.9074 27.359 28.8938 27.2885C28.8768 27.1993 28.8768 27.1993 28.8593 27.1083C28.8328 26.9773 28.8032 26.8481 28.7693 26.7188C28.7583 26.8077 28.7583 26.8077 28.7471 26.8984C28.5687 28.3396 28.3892 29.7807 28.2085 31.2217C28.1211 31.9185 28.0341 32.6154 27.948 33.3123C27.873 33.9197 27.7972 34.527 27.7206 35.1342C27.6801 35.4558 27.6399 35.7775 27.6005 36.0992C27.5635 36.4019 27.5256 36.7045 27.4869 37.007C27.4728 37.1182 27.4591 37.2294 27.4458 37.3406C27.4275 37.4923 27.4081 37.6438 27.3883 37.7953C27.3808 37.8617 27.3808 37.8617 27.3731 37.9293C27.3463 38.1251 27.3147 38.2485 27.1933 38.4065C27.025 38.5289 26.9219 38.5264 26.7185 38.4961C26.5458 38.364 26.5038 38.2321 26.4509 38.0251C26.4349 37.9638 26.4189 37.9026 26.4024 37.8394C26.3854 37.7719 26.3685 37.7044 26.351 37.6348C26.3225 37.5247 26.294 37.4146 26.2655 37.3045C26.2347 37.1852 26.2043 37.0659 26.1739 36.9466C26.1102 36.6959 26.0456 36.4454 25.9809 36.1949C25.9115 35.9262 25.8421 35.6575 25.773 35.3887C25.5226 34.4156 25.2673 33.4438 25.0117 32.4721C24.8649 31.9137 24.7182 31.3552 24.5716 30.7967C24.5589 30.7485 24.5462 30.7003 24.5332 30.6506C24.4609 30.3752 24.3885 30.0997 24.3162 29.8242C24.2693 29.8241 24.2223 29.8239 24.1739 29.8238C23.0326 29.8203 21.8913 29.8159 20.7499 29.8104C20.198 29.8078 19.6461 29.8055 19.0941 29.8039C18.6132 29.8026 18.1322 29.8006 17.6512 29.7979C17.3965 29.7965 17.1417 29.7954 16.887 29.7951C16.6473 29.7947 16.4077 29.7935 16.168 29.7917C16.08 29.7912 15.9919 29.791 15.9038 29.7911C15.7838 29.7912 15.6637 29.7901 15.5437 29.789C15.4765 29.7887 15.4092 29.7884 15.34 29.7882C15.1756 29.7656 15.1756 29.7656 15.0661 29.6891C14.9543 29.5218 14.979 29.3738 14.9998 29.1797C15.065 29.0804 15.065 29.0804 15.1756 29.0039C15.3466 28.9816 15.3466 28.9816 15.5599 28.9812C15.6188 28.9807 15.6188 28.9807 15.6788 28.9802C15.8105 28.9794 15.9422 28.9798 16.0739 28.9802C16.1682 28.9799 16.2626 28.9795 16.3569 28.979C16.6133 28.978 16.8697 28.978 17.1261 28.9784C17.34 28.9785 17.5539 28.9782 17.7678 28.9778C18.2724 28.977 18.777 28.9771 19.2815 28.9778C19.8024 28.9784 20.3232 28.9776 20.8441 28.976C21.291 28.9748 21.7379 28.9744 22.1848 28.9747C22.4519 28.9749 22.7189 28.9748 22.9859 28.9738C23.237 28.9728 23.4881 28.9731 23.7392 28.9742C23.8314 28.9744 23.9236 28.9742 24.0159 28.9736C24.1416 28.9728 24.2674 28.9735 24.3931 28.9745C24.4636 28.9746 24.534 28.9746 24.6065 28.9746C24.8207 29.0098 24.8879 29.0692 25.0193 29.2383C25.0754 29.372 25.0754 29.372 25.1136 29.5213C25.1286 29.578 25.1435 29.6348 25.1589 29.6932C25.1743 29.755 25.1898 29.8168 25.2056 29.8805C25.2226 29.9458 25.2396 30.0111 25.2571 30.0784C25.3129 30.2938 25.3675 30.5094 25.4222 30.7251C25.4606 30.8744 25.4992 31.0236 25.5378 31.1728C25.618 31.4833 25.6978 31.794 25.7772 32.1048C25.9515 32.7875 26.1285 33.4695 26.3053 34.1515C26.3592 34.3596 26.4128 34.5678 26.4663 34.776C26.499 34.9027 26.5316 35.0294 26.5643 35.156C26.5791 35.214 26.594 35.272 26.6093 35.3318C26.6297 35.4108 26.6297 35.4108 26.6505 35.4914C26.6623 35.5373 26.6741 35.5832 26.6863 35.6304C26.7159 35.7458 26.7159 35.7458 26.7771 35.8594C26.7846 35.8 26.792 35.7407 26.7997 35.6795C26.9808 34.2349 27.1623 32.7903 27.344 31.3457C27.4319 30.6471 27.5197 29.9485 27.6073 29.2499C27.6836 28.6409 27.7601 28.032 27.8369 27.4231C27.8775 27.1007 27.918 26.7784 27.9583 26.4559C27.9962 26.1523 28.0345 25.8488 28.0729 25.5453C28.0869 25.434 28.1008 25.3227 28.1147 25.2114C28.1336 25.0591 28.1529 24.9068 28.1723 24.7546C28.1776 24.7108 28.183 24.6671 28.1885 24.622C28.2253 24.3371 28.2741 24.0638 28.3592 23.7891C28.535 23.6719 28.535 23.6719 28.74 23.6682Z" fill="#FF1F98"/>
<path d="M41.3161 30.4468C42.0337 31.0472 42.4104 31.8592 42.4934 32.7786C42.5271 33.6375 42.2345 34.4391 41.6786 35.0867C41.1196 35.6674 40.3898 36.0593 39.5763 36.1056C38.5905 36.1172 37.7688 35.8995 37.0351 35.1965C36.3784 34.4941 36.1123 33.7137 36.1208 32.7609C36.1561 31.8642 36.553 31.1316 37.198 30.5164C38.3982 29.5075 40.0797 29.5252 41.3161 30.4468ZM38.379 30.9375C38.3084 31.1495 38.3141 31.3433 38.3168 31.5637C38.3171 31.6048 38.3173 31.646 38.3176 31.6883C38.3183 31.7896 38.3193 31.8909 38.3205 31.9922C38.2251 31.9871 38.2251 31.9871 38.1277 31.9819C38.0431 31.9791 37.9584 31.9765 37.8737 31.9739C37.8319 31.9714 37.7901 31.969 37.7471 31.9664C37.5099 31.961 37.3675 31.98 37.1802 32.1325C36.9374 32.3816 36.9602 32.5856 36.9582 32.9187C36.9569 32.966 36.9557 33.0133 36.9545 33.0621C36.9527 33.3397 36.9658 33.5261 37.1486 33.75C37.5162 33.9817 37.8974 33.943 38.3205 33.9258C38.3184 33.9809 38.3164 34.0361 38.3143 34.0929C38.3127 34.1658 38.3111 34.2388 38.3095 34.314C38.3074 34.386 38.3054 34.4581 38.3033 34.5323C38.3224 34.77 38.3619 34.901 38.4962 35.0977C38.7589 35.2782 39.0056 35.3023 39.3165 35.2991C39.3567 35.3002 39.3969 35.3014 39.4383 35.3026C39.738 35.3023 39.9074 35.2278 40.1369 35.0391C40.285 34.8169 40.2672 34.6401 40.2614 34.3835C40.2608 34.3396 40.2603 34.2957 40.2598 34.2504C40.2584 34.1422 40.2563 34.034 40.254 33.9258C40.3294 33.9288 40.3294 33.9288 40.4063 33.932C41.0117 33.953 41.0117 33.953 41.5227 33.6628C41.6485 33.4284 41.6294 33.195 41.6273 32.9333C41.6285 32.881 41.6297 32.8286 41.6309 32.7746C41.6307 32.5231 41.6253 32.3817 41.4902 32.1641C41.2593 31.9512 41.0438 31.9854 40.7448 31.9885C40.6978 31.9888 40.6508 31.9891 40.6024 31.9893C40.4863 31.99 40.3702 31.9911 40.254 31.9922C40.2568 31.9237 40.2595 31.8552 40.2623 31.7846C40.2645 31.6939 40.2666 31.6032 40.2687 31.5124C40.2707 31.4674 40.2726 31.4223 40.2746 31.3759C40.2786 31.1486 40.271 31.0251 40.1543 30.8247C39.8845 30.581 39.6438 30.5687 39.2873 30.5676C39.174 30.5662 39.174 30.5662 39.0584 30.5646C38.767 30.5941 38.566 30.7132 38.379 30.9375Z" fill="#FF1F98"/>
<path d="M38.9648 31.2305C39.1775 31.2305 39.3902 31.2305 39.6094 31.2305C39.6109 31.313 39.6124 31.3956 39.614 31.4806C39.6172 31.5889 39.6206 31.6972 39.624 31.8054C39.6249 31.8598 39.6257 31.9143 39.6265 31.9703C39.6284 32.0226 39.6303 32.0749 39.6323 32.1288C39.6335 32.177 39.6347 32.2252 39.636 32.2748C39.6584 32.4105 39.6584 32.4105 39.7715 32.5055C39.9121 32.5835 39.9966 32.6024 40.1559 32.6081C40.2028 32.6102 40.2496 32.6123 40.2979 32.6144C40.3462 32.6157 40.3945 32.617 40.4443 32.6184C40.5182 32.6214 40.5182 32.6214 40.5936 32.6245C40.7147 32.6293 40.8359 32.6331 40.957 32.6367C40.957 32.8301 40.957 33.0234 40.957 33.2227C40.8543 33.2259 40.8543 33.2259 40.7494 33.2293C40.6587 33.2331 40.568 33.237 40.4773 33.241C40.4322 33.2423 40.3872 33.2436 40.3408 33.245C39.9682 33.2584 39.9682 33.2584 39.668 33.457C39.6237 33.6557 39.6216 33.851 39.6204 34.054C39.6189 34.1091 39.6174 34.1642 39.6159 34.2209C39.6124 34.3569 39.6107 34.4929 39.6094 34.6289C39.3967 34.6289 39.184 34.6289 38.9648 34.6289C38.9455 34.2229 38.9262 33.8168 38.9062 33.3984C38.7014 33.296 38.6309 33.2661 38.4183 33.257C38.3714 33.2547 38.3246 33.2525 38.2764 33.2501C38.228 33.2483 38.1797 33.2465 38.1299 33.2446C38.0806 33.2424 38.0314 33.2401 37.9807 33.2378C37.8595 33.2323 37.7384 33.2274 37.6172 33.2227C37.6172 33.0293 37.6172 32.8359 37.6172 32.6367C37.7347 32.6324 37.7347 32.6324 37.8545 32.628C37.9573 32.6236 38.0601 32.6192 38.1628 32.6147C38.2145 32.6129 38.2661 32.6111 38.3193 32.6093C38.3938 32.6059 38.3938 32.6059 38.4698 32.6024C38.5384 32.5996 38.5384 32.5996 38.6083 32.5968C38.7481 32.5842 38.7481 32.5842 38.9062 32.4609C38.936 32.3309 38.936 32.3309 38.9362 32.1803C38.9383 32.1252 38.9404 32.0701 38.9425 32.0132C38.9438 31.9555 38.9452 31.8978 38.9465 31.8384C38.9485 31.7802 38.9505 31.7221 38.9526 31.6621C38.9574 31.5183 38.9612 31.3744 38.9648 31.2305Z" fill="#FF1F98"/>
<path d="M21.5039 30.4102C22.2773 30.4102 23.0508 30.4102 23.8477 30.4102C24.0417 31.0755 24.2287 31.741 24.397 32.4133C24.4124 32.4745 24.4277 32.5358 24.4436 32.5988C24.5508 33.0317 24.5508 33.0317 24.5508 33.1641C24.2362 33.0716 24.0163 32.8625 23.7708 32.655C23.7285 32.6199 23.6862 32.5847 23.6427 32.5485C23.3556 32.3088 23.0735 32.0637 22.793 31.8164C22.7469 31.7762 22.7469 31.7762 22.6998 31.7351C22.2558 31.3468 21.8602 30.9402 21.5039 30.4688C21.5039 30.4494 21.5039 30.4301 21.5039 30.4102Z" fill="#FF1F98"/>
</g>
<defs>
<clipPath id="clip0_11_2">
<rect width="30" height="30" fill="white" transform="translate(15 15)"/>
</clipPath>
</defs>
</svg>
