<svg width="60" height="60" viewBox="0 0 60 60" fill="none" xmlns="http://www.w3.org/2000/svg">
<path d="M44 0H16C7.16344 0 0 7.16344 0 16V44C0 52.8366 7.16344 60 16 60H44C52.8366 60 60 52.8366 60 44V16C60 7.16344 52.8366 0 44 0Z" fill="#C9DFFF"/>
<path d="M31.0681 20.8444C31.15 20.9047 31.2319 20.9651 31.3162 21.0273C31.3616 21.0603 31.407 21.0934 31.4538 21.1275C31.6021 21.2359 31.7497 21.3457 31.8973 21.4556C32.0016 21.5322 32.1059 21.6087 32.2103 21.6851C32.4759 21.8798 32.7409 22.0757 33.0056 22.2721C33.233 22.4408 33.4607 22.6089 33.6883 22.7771C33.9385 22.9619 34.1886 23.1468 34.4386 23.3321C35.0813 23.8081 35.7296 24.2717 36.3797 24.7324C37.0414 25.2016 37.6984 25.6793 38.3523 26.1641C38.9397 26.5995 39.5279 27.0328 40.1207 27.4573C40.1834 27.5022 40.2461 27.5471 40.3107 27.5933C40.4447 27.6893 40.5787 27.7852 40.7128 27.8811C41.9313 28.7537 43.1484 29.6289 44.3529 30.5299C44.4334 30.5902 44.514 30.6504 44.597 30.7124C45.1478 31.1261 45.1478 31.1261 45.2302 31.2263C45.2372 31.4064 45.2391 31.5869 45.239 31.7673C45.239 31.853 45.239 31.853 45.2391 31.9404C45.2393 32.1332 45.2389 32.326 45.2385 32.5188C45.2384 32.6564 45.2385 32.7941 45.2385 32.9318C45.2385 33.3066 45.2381 33.6815 45.2376 34.0563C45.2371 34.4477 45.2371 34.839 45.237 35.2303C45.2368 35.9719 45.2362 36.7134 45.2354 37.455C45.2346 38.299 45.2342 39.143 45.2339 39.987C45.2331 41.7237 45.2318 43.4604 45.2302 45.197C45.2746 45.1953 45.319 45.1935 45.3648 45.1916C45.4233 45.1902 45.4818 45.1888 45.5422 45.1874C45.6001 45.1856 45.658 45.1838 45.7176 45.1819C46.0377 45.2109 46.228 45.4452 46.453 45.6999C46.6404 46.1435 46.6449 46.5652 46.5303 47.0373C46.3439 47.4226 46.1605 47.6201 45.8121 47.7613C45.6435 47.7699 45.4747 47.7729 45.306 47.7732C45.2539 47.7734 45.2018 47.7736 45.1482 47.7738C44.9724 47.7744 44.7966 47.7744 44.6208 47.7743C44.494 47.7746 44.3672 47.7749 44.2404 47.7753C43.891 47.7762 43.5415 47.7765 43.1921 47.7768C42.8156 47.7771 42.4391 47.7779 42.0627 47.7787C41.1531 47.7805 40.2434 47.7814 39.3338 47.7821C38.9058 47.7825 38.4777 47.783 38.0497 47.7835C36.6273 47.785 35.2049 47.7862 33.7825 47.7869C33.4133 47.7871 33.044 47.7872 32.6748 47.7874C32.5372 47.7875 32.5372 47.7875 32.3967 47.7875C30.9091 47.7883 29.4215 47.7905 27.934 47.7934C26.4077 47.7963 24.8814 47.7979 23.3551 47.7982C22.4978 47.7984 21.6404 47.7991 20.7831 47.8014C20.0531 47.8033 19.3232 47.804 18.5932 47.8032C18.2206 47.8028 17.848 47.8029 17.4755 47.8047C17.1345 47.8062 16.7936 47.8061 16.4527 47.8048C16.3292 47.8045 16.2057 47.8049 16.0822 47.806C15.9146 47.8073 15.747 47.8065 15.5794 47.8051C15.4396 47.8052 15.4396 47.8052 15.297 47.8053C14.9115 47.7378 14.6901 47.5186 14.4367 47.17C14.2843 46.7923 14.2662 46.4946 14.3185 46.0813C14.4384 45.7532 14.6059 45.5213 14.8276 45.2855C15.0372 45.2005 15.1694 45.1877 15.3868 45.1915C15.4455 45.1923 15.5043 45.1931 15.5649 45.1939C15.632 45.1955 15.632 45.1955 15.7004 45.197C15.6985 45.126 15.6965 45.0549 15.6945 44.9817C15.6478 43.2465 15.613 41.5116 15.5911 39.7757C15.5803 38.9361 15.5655 38.0972 15.5413 37.258C15.5202 36.5259 15.5066 35.7942 15.502 35.0617C15.4992 34.674 15.4929 34.2877 15.4774 33.9005C15.3895 31.6126 15.3895 31.6126 15.7926 30.9971C16.2402 30.4602 16.8205 30.1423 17.3946 29.8541C17.9069 29.5959 18.3605 29.2439 18.828 28.8831C18.9965 28.757 19.1656 28.6321 19.3348 28.5073C19.382 28.4724 19.4291 28.4375 19.4777 28.4016C19.949 28.0546 20.4249 27.7172 20.9009 27.3799C21.5914 26.8904 22.2778 26.3939 22.9601 25.8878C23.6832 25.3515 24.409 24.8212 25.1376 24.2962C25.1858 24.2614 25.234 24.2267 25.2837 24.1909C25.5291 24.0141 25.7746 23.8373 26.02 23.6607C26.4764 23.3322 26.9325 23.0032 27.3885 22.6741C27.5359 22.5677 27.6834 22.4614 27.8308 22.3551C28.2576 22.0473 28.6839 21.7387 29.1087 21.4269C29.1768 21.3769 29.2449 21.3269 29.3151 21.2754C29.4381 21.185 29.561 21.0944 29.6838 21.0035C29.7366 20.9646 29.7895 20.9257 29.844 20.8857C29.8889 20.8524 29.9339 20.8191 29.9803 20.7848C30.3612 20.5313 30.6894 20.622 31.0681 20.8444ZM20.4264 33.1405C20.3939 33.1909 20.3615 33.2412 20.3281 33.2932C20.2777 33.368 20.2777 33.368 20.2264 33.4444C20.0074 33.8598 19.97 34.2379 19.9706 34.7226C19.9701 34.7882 19.9696 34.8538 19.9691 34.9214C19.9677 35.1375 19.9674 35.3536 19.9673 35.5697C19.9668 35.7204 19.9663 35.8712 19.9658 36.0219C19.9649 36.3376 19.9647 36.6533 19.9647 36.9689C19.9648 37.3728 19.9628 37.7766 19.9603 38.1805C19.9586 38.4917 19.9583 38.803 19.9584 39.1142C19.9583 39.2631 19.9576 39.412 19.9565 39.5608C19.9551 39.7693 19.9555 39.9777 19.9564 40.1861C19.9551 40.2777 19.9551 40.2777 19.9539 40.3712C19.9585 40.8102 20.0584 41.0558 20.2826 41.3949C20.5198 41.6384 20.6655 41.7393 20.9736 41.7928C21.3625 41.7252 21.5712 41.5315 21.8194 41.1683C21.9934 40.7798 22.0038 40.4706 22.01 40.0354C22.0122 39.9619 22.0144 39.8883 22.0166 39.8126C22.0217 39.6327 22.0251 39.4527 22.0282 39.2727C22.0502 39.3293 22.0721 39.386 22.0947 39.4443C22.1957 39.7028 22.2983 39.9602 22.401 40.2177C22.4355 40.3068 22.47 40.3959 22.5055 40.4877C22.7348 41.0584 22.931 41.4573 23.4102 41.7486C23.8267 41.7973 24.0297 41.7102 24.3557 41.3949C24.5852 41.1544 24.6376 40.9628 24.6716 40.5925C24.6382 40.1284 24.4923 39.7884 24.3193 39.3777C24.2577 39.2281 24.1964 39.0783 24.1352 38.9284C24.0941 38.8301 24.0941 38.8301 24.0521 38.7298C23.992 38.5654 23.992 38.5654 23.992 38.3885C24.1334 38.2334 24.2824 38.0931 24.4324 37.9505C24.8179 37.4575 24.744 36.7434 24.7423 36.1094C24.7421 35.9306 24.7438 35.752 24.7456 35.5733C24.746 34.6986 24.6978 33.9657 24.1918 33.3046C23.5996 32.6845 22.9348 32.711 22.1919 32.7074C22.0555 32.7046 22.0555 32.7046 21.9163 32.7018C21.1182 32.6973 21.1182 32.6973 20.4264 33.1405ZM26.2968 33.2766C26.2521 33.3234 26.2073 33.3703 26.1613 33.4185C25.6867 34.1165 25.6933 34.7826 25.6964 35.655C25.6961 35.7847 25.6956 35.9144 25.6951 36.0441C25.6943 36.3151 25.6946 36.586 25.6957 36.857C25.697 37.2021 25.6953 37.547 25.6927 37.8921C25.6911 38.1598 25.6912 38.4274 25.6918 38.695C25.6919 38.8221 25.6914 38.9493 25.6903 39.0764C25.6848 39.8467 25.7173 40.4917 26.1013 41.1296C26.6892 41.8136 27.2794 41.8691 28.0651 41.8701C28.192 41.8734 28.192 41.8734 28.3214 41.8767C28.7914 41.8787 29.0918 41.8727 29.447 41.4833C29.4905 41.4377 29.5341 41.3921 29.5789 41.3451C29.7616 41.0762 29.7625 40.7646 29.7584 40.4278C29.7158 40.0477 29.5366 39.8036 29.2993 39.5684C28.9883 39.3973 28.7065 39.4211 28.3697 39.433C28.3054 39.4342 28.2411 39.4354 28.1749 39.4366C28.0171 39.4397 27.8593 39.4445 27.7014 39.4496C27.7014 39.1286 27.7014 38.8076 27.7014 38.4769C27.8356 38.4815 27.8356 38.4815 27.9725 38.4863C28.0912 38.4887 28.21 38.4912 28.3288 38.4935C28.3876 38.4957 28.4463 38.498 28.5069 38.5002C28.8767 38.5057 29.1272 38.463 29.447 38.2117C29.6558 37.9245 29.7563 37.7014 29.7698 37.3219C29.7264 36.8472 29.6257 36.6447 29.3334 36.3327C29.1025 36.1312 28.9892 36.0785 28.71 36.0809C28.6514 36.0812 28.5929 36.0815 28.5325 36.0817C28.4713 36.0825 28.41 36.0832 28.3469 36.084C28.2543 36.0846 28.2543 36.0846 28.1597 36.0852C28.007 36.0862 27.8542 36.0878 27.7014 36.0895C27.7014 35.7977 27.7014 35.5059 27.7014 35.2053C27.7734 35.2084 27.8455 35.2114 27.9196 35.2146C28.6731 35.2414 28.6731 35.2414 29.3743 34.94C29.6647 34.5689 29.7641 34.316 29.7587 33.7992C29.7163 33.4197 29.5276 33.1719 29.3016 32.9229C28.9313 32.6556 28.5048 32.71 28.0878 32.7074C28.0183 32.7055 27.9488 32.7037 27.8772 32.7018C27.2966 32.698 26.7435 32.787 26.2968 33.2766ZM33.9565 32.9947C33.6879 33.3471 33.5834 33.5625 33.5857 34.0371C33.586 34.1204 33.5862 34.2036 33.5865 34.2893C33.5871 34.3764 33.5877 34.4635 33.5883 34.5532C33.5886 34.6409 33.589 34.7287 33.5893 34.8191C33.5902 35.0363 33.5914 35.2534 33.5929 35.4706C33.5448 35.4706 33.4968 35.4706 33.4474 35.4706C33.4222 35.3656 33.4222 35.3656 33.3965 35.2585C33.2751 34.8497 33.1172 34.4738 32.9519 34.089C32.9209 34.0142 32.8899 33.9394 32.858 33.8624C32.6551 33.3892 32.469 33.0632 32.0654 32.8179C31.6217 32.765 31.4007 32.8657 31.0472 33.1716C30.7629 33.6324 30.747 34.0388 30.7445 34.6037C30.7442 34.6671 30.7438 34.7306 30.7434 34.796C30.7424 35.0055 30.7419 35.2151 30.7415 35.4246C30.7411 35.5709 30.7406 35.7172 30.7402 35.8634C30.7395 36.1702 30.739 36.477 30.7388 36.7837C30.7384 37.1752 30.7366 37.5666 30.7346 37.958C30.7332 38.2603 30.7328 38.5626 30.7327 38.8649C30.7325 39.0092 30.7319 39.1534 30.731 39.2976C30.6982 40.5341 30.6982 40.5341 31.129 41.6159C31.4166 41.7983 31.6683 41.8653 31.9927 41.837C32.2725 41.7258 32.4604 41.5505 32.6382 41.2622C32.7956 40.837 32.8132 40.4194 32.8337 39.958C32.8368 39.8921 32.84 39.8262 32.8432 39.7584C32.8509 39.5965 32.8582 39.4346 32.8655 39.2727C32.8875 39.3293 32.9094 39.386 32.932 39.4443C33.033 39.7028 33.1356 39.9602 33.2383 40.2177C33.2728 40.3068 33.3073 40.3959 33.3428 40.4877C33.5721 41.0584 33.7683 41.4573 34.2475 41.7486C34.6359 41.7795 34.8787 41.7911 35.193 41.4833C35.5262 41.0332 35.5677 40.6936 35.5695 40.1063C35.57 40.0382 35.5705 39.9702 35.571 39.9001C35.5724 39.6749 35.5733 39.4496 35.574 39.2244C35.5743 39.1473 35.5746 39.0703 35.5749 38.991C35.5764 38.5832 35.5774 38.1754 35.5781 37.7676C35.5789 37.3471 35.5814 36.9266 35.5843 36.5061C35.5862 36.1822 35.5868 35.8583 35.5871 35.5344C35.5874 35.3794 35.5883 35.2244 35.5896 35.0695C35.5914 34.8521 35.5913 34.6349 35.5908 34.4175C35.5918 34.354 35.5927 34.2905 35.5937 34.2251C35.5896 33.741 35.4844 33.4734 35.2657 33.0832C34.824 32.6592 34.4402 32.6681 33.9565 32.9947ZM36.6522 33.365C36.5418 33.7204 36.526 34.0345 36.5749 34.4095C36.7343 34.797 36.8962 35.0432 37.2295 35.2053C37.3428 35.212 37.4562 35.2138 37.5696 35.2115C37.6285 35.2106 37.6874 35.2097 37.7481 35.2088C37.793 35.2076 37.8379 35.2065 37.8841 35.2053C37.8836 35.2724 37.8832 35.3395 37.8827 35.4087C37.8783 36.0434 37.875 36.6782 37.8728 37.313C37.8717 37.6393 37.8701 37.9656 37.8677 38.2919C37.8653 38.6072 37.864 38.9225 37.8634 39.2379C37.8628 39.4158 37.8611 39.5936 37.8594 39.7715C37.8593 40.4681 37.8637 41.0621 38.2569 41.6104C38.5438 41.7999 38.7943 41.8655 39.1206 41.837C39.4004 41.7258 39.5883 41.5505 39.7661 41.2622C39.9073 40.8807 39.9296 40.5624 39.9289 40.1441C39.9289 40.0344 39.9289 39.9246 39.9289 39.8116C39.9285 39.6923 39.9282 39.573 39.9278 39.4537C39.9276 39.3313 39.9275 39.2089 39.9275 39.0865C39.9272 38.765 39.9265 38.4434 39.9257 38.1219C39.9249 37.7935 39.9246 37.4651 39.9242 37.1368C39.9234 36.4929 39.9222 35.8491 39.9207 35.2053C39.9651 35.207 40.0095 35.2088 40.0552 35.2105C40.1138 35.2119 40.1723 35.2132 40.2326 35.2146C40.3195 35.2172 40.3195 35.2172 40.4081 35.2199C40.6724 35.1968 40.8165 35.0606 41.0117 34.8516C41.2416 34.5255 41.2682 34.2256 41.2552 33.8095C41.2146 33.4953 41.1127 33.3166 40.9389 33.0832C40.5555 32.781 40.2196 32.7778 39.7778 32.7795C39.7085 32.7791 39.6393 32.7786 39.568 32.7781C39.4221 32.7776 39.2762 32.7777 39.1303 32.7784C38.9079 32.7792 38.6857 32.7767 38.4633 32.7738C38.3211 32.7737 38.1789 32.7738 38.0367 32.774C37.9707 32.773 37.9047 32.772 37.8367 32.771C37.3402 32.7776 36.9938 32.8962 36.6522 33.365Z" fill="#267DFE"/>
<path d="M33.1316 16.987C33.3944 17.1817 33.6588 17.373 33.9238 17.5633C33.9714 17.5974 34.019 17.6316 34.0681 17.6668C34.166 17.7372 34.264 17.8075 34.362 17.8778C35.1982 18.4787 36.0301 19.0876 36.8593 19.7027C37.5436 20.2099 38.2334 20.705 38.9258 21.1958C39.5797 21.6595 40.229 22.1314 40.8753 22.6106C41.5305 23.0964 42.1876 23.578 42.8482 24.053C42.9276 24.1101 43.0069 24.1672 43.0887 24.226C43.3894 24.4421 43.6902 24.658 43.991 24.8738C46.1564 26.4272 46.1564 26.4272 46.994 27.0649C47.0485 27.1061 47.103 27.1472 47.1592 27.1897C47.7981 27.682 47.7981 27.682 47.9213 28.1315C47.9593 28.5705 47.9599 28.9166 47.8032 29.3197C47.5757 29.618 47.3841 29.7855 47.0447 29.8319C46.6416 29.8439 46.3964 29.7666 46.0439 29.5076C45.9959 29.473 45.9479 29.4384 45.8985 29.4027C45.7233 29.2756 45.5495 29.1457 45.3757 29.0157C45.2244 28.904 45.073 28.7925 44.9217 28.681C44.6655 28.4922 44.4095 28.3032 44.1539 28.1135C43.5225 27.6452 42.8869 27.1866 42.2481 26.7333C41.6123 26.282 40.9779 25.8283 40.3474 25.3662C39.9792 25.0965 39.6101 24.8288 39.2402 24.5625C39.1925 24.5281 39.1448 24.4937 39.0956 24.4584C38.9967 24.3871 38.8978 24.3159 38.7988 24.2446C37.9596 23.6403 37.1233 23.0304 36.2906 22.4127C35.6067 21.9058 34.9174 21.4108 34.2254 20.9205C33.4579 20.3766 32.6972 19.8198 31.9397 19.2555C31.7849 19.1405 31.6298 19.026 31.4743 18.9122C31.342 18.815 31.2105 18.7161 31.0803 18.6148C31.0247 18.5734 30.9692 18.532 30.9119 18.4893C30.8655 18.4534 30.819 18.4175 30.7711 18.3806C30.4567 18.2551 30.1801 18.3589 29.8904 18.5292C29.8211 18.5821 29.7519 18.6351 29.6806 18.6896C29.6012 18.7494 29.5219 18.8092 29.4401 18.8708C29.3984 18.9029 29.3566 18.935 29.3136 18.968C29.0878 19.1417 28.8601 19.3118 28.6328 19.4827C28.5858 19.5181 28.5388 19.5535 28.4904 19.59C28.0453 19.9252 27.5942 20.2474 27.1415 20.5672C26.4067 21.0863 25.6767 21.6138 24.9512 22.1519C24.2281 22.6881 23.5024 23.2184 22.7737 23.7435C22.7253 23.7784 22.6769 23.8133 22.6271 23.8492C22.2326 24.1335 21.838 24.4175 21.4433 24.7014C21.0988 24.9493 20.7543 25.1974 20.4099 25.4457C20.3615 25.4805 20.3132 25.5154 20.2633 25.5513C19.5837 26.0413 18.907 26.537 18.2325 27.0373C17.276 27.7465 16.3109 28.437 15.342 29.1207C15.1968 29.2248 15.0527 29.3311 14.9099 29.4399C14.8465 29.4881 14.7832 29.5363 14.7179 29.586C14.6637 29.6283 14.6094 29.6707 14.5534 29.7143C14.2628 29.8885 13.9772 29.8891 13.6639 29.8115C13.3814 29.6367 13.1554 29.4502 13.0093 29.1041C12.8922 28.5833 12.9255 28.2415 13.1351 27.767C13.2785 27.5092 13.4631 27.3674 13.6821 27.2196C13.7305 27.1848 13.7789 27.1501 13.8287 27.1142C13.9447 27.0311 14.0612 26.9487 14.1778 26.867C14.4313 26.6885 14.6829 26.5065 14.9344 26.324C15.3405 26.0297 15.747 25.7362 16.1539 25.4436C16.5855 25.133 17.0163 24.8207 17.446 24.5062C17.8656 24.1991 18.2861 23.894 18.7075 23.5905C18.7791 23.5389 18.7791 23.5389 18.8522 23.4863C18.9009 23.4512 18.9495 23.4162 18.9996 23.3801C19.1 23.3078 19.2004 23.2355 19.3007 23.1632C19.3507 23.1273 19.4006 23.0913 19.4521 23.0542C20.1904 22.5222 20.9253 21.9836 21.6579 21.4401C22.3423 20.9328 23.0321 20.4377 23.7245 19.9469C24.3784 19.4832 25.0277 19.0112 25.674 18.5321C26.3158 18.0568 26.9579 17.5823 27.6033 17.1144C27.7233 17.0273 27.8431 16.9398 27.9629 16.8522C29.9845 15.3908 31.1427 15.5023 33.1316 16.987Z" fill="#267DFE"/>
<path d="M23.4238 12.8123C23.5167 12.8104 23.6095 12.8086 23.7052 12.8067C24.5145 12.8027 25.2155 12.9132 25.8104 13.6302C26.0753 14.0296 26.3053 14.4491 26.3922 14.9565C26.4106 15.0432 26.4106 15.0432 26.4293 15.1316C26.4586 15.3721 26.4564 15.5204 26.3922 15.7523C26.1162 16.0555 25.792 16.2509 25.4649 16.4597C25.3688 16.524 25.2728 16.5886 25.1771 16.6536C25.0285 16.7542 24.8798 16.8547 24.7306 16.954C24.2649 17.2641 23.8116 17.5962 23.3596 17.9345C23.1506 18.0907 22.941 18.2456 22.7314 18.4005C22.6509 18.4601 22.5704 18.5196 22.4875 18.5809C22.102 18.8652 21.7156 19.1471 21.3282 19.4274C21.2609 19.4764 21.1936 19.5255 21.1243 19.576C21.0632 19.6201 21.002 19.6642 20.9389 19.7096C20.859 19.7675 20.859 19.7675 20.7774 19.8265C20.6463 19.9082 20.6463 19.9082 20.5008 19.9082C20.4934 19.2192 20.4883 18.5302 20.4848 17.8412C20.4834 17.607 20.4814 17.3729 20.4789 17.1388C20.4753 16.8012 20.4737 16.4637 20.4724 16.126C20.4709 16.0223 20.4694 15.9186 20.4679 15.8117C20.4677 14.9092 20.6349 14.1882 21.1509 13.5203C21.8317 12.815 22.5723 12.8164 23.4238 12.8123Z" fill="#267DFE"/>
<path d="M21.81 35.0284C22.1701 35.0284 22.5301 35.0284 22.901 35.0284C22.901 35.437 22.901 35.8455 22.901 36.2664C22.541 36.2664 22.181 36.2664 21.81 36.2664C21.81 35.8579 21.81 35.4493 21.81 35.0284Z" fill="#267DFE"/>
</svg>
