<svg width="60" height="60" viewBox="0 0 60 60" fill="none" xmlns="http://www.w3.org/2000/svg">
<path d="M44 0H16C7.16344 0 0 7.16344 0 16V44C0 52.8366 7.16344 60 16 60H44C52.8366 60 60 52.8366 60 44V16C60 7.16344 52.8366 0 44 0Z" fill="#EEC9FF"/>
<path d="M34.7842 12C36.3499 12 37.9155 12 39.5286 12C39.6059 12.2036 39.6281 12.3887 39.6487 12.6015C39.84 14.495 40.827 16.1871 42.4748 17.433C43.5329 18.1537 44.6774 18.6562 45.9842 18.9214C46.0658 18.9381 46.0658 18.9381 46.1489 18.9552C46.6708 19.0538 47.1489 19.0724 47.6953 19.1094C47.6953 25.9672 47.6953 32.825 47.6953 39.8906C47.2333 39.9357 46.7713 39.9809 46.2953 40.0273C46.038 40.0699 45.7969 40.112 45.5467 40.1726C45.4861 40.1871 45.4255 40.2016 45.363 40.2165C43.4055 40.7134 41.6836 41.926 40.6786 43.4742C39.9811 44.594 39.7649 45.7464 39.6064 47C38.0408 47 36.4751 47 34.862 47C34.7848 46.7964 34.7625 46.6113 34.7419 46.3985C34.5978 44.9725 34.036 43.6683 32.9953 42.5566C32.9322 42.4892 32.8692 42.4218 32.8042 42.3524C31.803 41.3212 30.4627 40.6929 29.0286 40.2324C29.3376 39.6263 29.9599 39.1296 30.4721 38.6489C30.713 38.4216 30.9416 38.1894 31.1627 37.9467C31.4759 37.6034 31.8125 37.2845 32.1554 36.9644C32.4696 36.6695 32.7615 36.3632 33.0488 36.0475C33.2947 35.7876 33.5566 35.5419 33.8212 35.2966C34.0689 35.0649 34.2853 34.8254 34.4974 34.5671C34.6463 34.4024 34.6463 34.4024 34.7842 34.2852C35.0328 34.2637 35.1053 34.2796 35.3286 34.3535C36.9265 34.7787 38.5543 34.6397 40.0196 33.9524C40.3256 33.802 40.6008 33.6279 40.8667 33.4269C41.0064 33.3281 41.0064 33.3281 41.1705 33.2635C41.3576 33.1717 41.3851 33.0872 41.4731 32.918C41.5669 32.8184 41.6628 32.7203 41.7599 32.6232C42.7797 31.515 42.9712 30.2017 42.8731 28.8164C42.764 27.9159 42.2543 27.025 41.5855 26.3416C41.4731 26.2187 41.4731 26.2187 41.3996 26.0746C41.2952 25.9101 41.199 25.886 41.0064 25.8086C40.8931 25.7261 40.7815 25.6419 40.671 25.5565C39.4148 24.6635 37.9121 24.4837 36.3398 24.5781C36.0116 24.6178 35.7171 24.6836 35.4064 24.7832C35.3313 24.8057 35.2562 24.8281 35.1789 24.8513C34.2838 25.1462 33.2423 25.6996 32.7368 26.4374C32.6064 26.5605 32.6064 26.5605 32.3892 26.5926C32.2585 26.5936 32.2585 26.5936 32.1252 26.5947C29.9055 26.689 28.3662 27.7763 26.8801 29.137C26.7731 29.2266 26.7731 29.2266 26.6953 29.2266C26.6953 25.8879 26.6953 22.5492 26.6953 19.1094C27.3883 19.0417 27.3883 19.0417 28.0953 18.9727C28.3526 18.9301 28.5937 18.888 28.8439 18.8274C28.9349 18.8057 28.9349 18.8057 29.0276 18.7835C30.9851 18.2866 32.707 17.074 33.712 15.5258C34.4096 14.406 34.6257 13.2536 34.7842 12ZM36.0286 18.1523C36.0286 19.551 36.0286 20.9496 36.0286 22.3906C36.7986 22.3906 37.5686 22.3906 38.362 22.3906C38.362 20.992 38.362 19.5934 38.362 18.1523C37.592 18.1523 36.822 18.1523 36.0286 18.1523ZM36.0286 36.7461C36.0286 38.0996 36.0286 39.4531 36.0286 40.8477C36.7986 40.8477 37.5686 40.8477 38.362 40.8477C38.362 39.4941 38.362 38.1406 38.362 36.7461C37.592 36.7461 36.822 36.7461 36.0286 36.7461Z" fill="#AF05FF"/>
<path d="M24.362 22.3906C24.3876 26.1579 24.4133 29.9252 24.4398 33.8066C24.8248 33.4683 25.2098 33.1299 25.6064 32.7812C25.9321 32.5292 25.9321 32.5292 26.0716 32.4258C26.3319 32.2218 26.5733 32.0012 26.8183 31.7832C27.0286 31.5969 27.2404 31.4172 27.4682 31.2474C27.7577 31.0312 28.0229 30.7968 28.2898 30.5596C28.6091 30.276 28.9297 29.9992 29.2772 29.7419C29.3732 29.67 29.4667 29.5954 29.5579 29.5187C30.3811 28.8372 31.3237 28.5151 32.4411 28.5216C32.5445 28.5222 32.5445 28.5222 32.6499 28.5228C33.1362 28.5307 33.5605 28.566 34.0064 28.748C34.0708 28.7732 34.1352 28.7983 34.2015 28.8241C34.8817 29.1196 35.4494 29.5539 36.0286 29.9785C35.9633 30.2689 35.7909 30.4248 35.562 30.6322C35.2791 30.8953 35.0076 31.1609 34.7502 31.444C34.4512 31.7707 34.1331 32.0767 33.8073 32.3824C33.5664 32.6098 33.3378 32.8419 33.1168 33.0846C32.8036 33.4278 32.467 33.7468 32.1241 34.0668C31.8098 34.3619 31.5178 34.6683 31.2304 34.984C30.9857 35.2427 30.7244 35.4866 30.4628 35.7321C30.2219 35.9594 29.9934 36.1915 29.7724 36.4342C29.4592 36.7774 29.1226 37.0964 28.7797 37.4164C28.4653 37.7115 28.1734 38.0179 27.886 38.3336C27.679 38.5525 27.4611 38.7601 27.2398 38.9678C26.8973 39.2892 26.5727 39.6183 26.2618 39.9641C26.1684 40.0631 26.1684 40.0631 26.0731 40.1641C26.0309 40.219 25.9887 40.2738 25.9452 40.3304C25.7006 40.6171 25.5094 40.8158 25.1067 40.9099C24.7786 40.9318 24.4585 40.9324 24.1298 40.9253C24.0028 40.9251 23.8758 40.9251 23.7488 40.9255C23.4102 40.9257 23.0718 40.9217 22.7332 40.9169C22.4149 40.913 22.0967 40.9128 21.7784 40.9123C20.849 40.9087 19.9197 40.8992 18.9905 40.8904C15.8744 40.8692 15.8744 40.8692 12.6953 40.8477C12.6953 36.7871 12.6953 32.7266 12.6953 28.543C13.645 28.5204 14.5946 28.4979 15.5731 28.4746C16.2118 28.1322 16.2118 28.1322 16.6957 27.7038C16.8939 27.5121 17.1265 27.3644 17.362 27.21C17.4513 27.149 17.5404 27.0877 17.6293 27.0262C17.6967 26.9797 17.6967 26.9797 17.7655 26.9323C18.0218 26.7535 18.2751 26.5715 18.5286 26.3896C18.9582 26.0815 19.3913 25.7779 19.8284 25.478C20.1763 25.2386 20.5197 24.9946 20.862 24.749C21.2479 24.4722 21.636 24.1982 22.0286 23.9287C22.5398 23.5779 23.0431 23.219 23.5456 22.8587C23.5923 22.8254 23.6389 22.7921 23.6869 22.7578C23.8048 22.6732 23.9217 22.5874 24.0384 22.5014C24.2064 22.3906 24.2064 22.3906 24.362 22.3906Z" fill="#AF05FF"/>
<path d="M41.862 12C43.787 12 45.712 12 47.6953 12C47.6953 13.6919 47.6953 15.3838 47.6953 17.127C46.2118 17.127 44.925 16.7793 43.8064 15.8965C43.7426 15.8467 43.6787 15.7969 43.6129 15.7456C42.6221 14.9277 41.9931 13.8099 41.862 12.6152C41.862 12.4122 41.862 12.2092 41.862 12Z" fill="#AF05FF"/>
<path d="M47.6953 41.873C47.6953 43.5649 47.6953 45.2568 47.6953 47C45.7703 47 43.8453 47 41.862 47C41.862 45.5714 42.4127 44.3185 43.5488 43.2915C44.702 42.2933 46.1041 41.873 47.6953 41.873Z" fill="#AF05FF"/>
<path d="M26.6953 12C28.6203 12 30.5453 12 32.5286 12C32.5286 13.4286 31.9779 14.6815 30.8418 15.7085C29.6886 16.7067 28.2866 17.127 26.6953 17.127C26.6953 15.4351 26.6953 13.7432 26.6953 12Z" fill="#AF05FF"/>
<path d="M27.5323 41.8525C27.6827 41.8805 27.6827 41.8805 27.8377 41.92C27.8918 41.9316 27.946 41.9431 28.0018 41.9549C29.5567 42.3044 30.8683 43.1122 31.7557 44.2913C32.3044 45.1248 32.5286 46.0479 32.5286 47C30.6036 47 28.6786 47 26.6953 47C26.6841 46.2556 26.6729 45.5111 26.6613 44.7441C26.6563 44.51 26.6514 44.2759 26.6463 44.0346C26.6447 43.8482 26.6433 43.6617 26.6421 43.4752C26.6407 43.4274 26.6393 43.3796 26.6378 43.3303C26.6128 42.4436 26.6128 42.4436 26.9526 42.0818C27.167 41.8934 27.2154 41.8748 27.5323 41.8525Z" fill="#AF05FF"/>
<path d="M39.051 26.8839C39.7355 27.2912 40.2268 27.8007 40.5398 28.4746C40.5814 28.5637 40.5814 28.5637 40.6239 28.6546C40.8504 29.3846 40.8108 30.3417 40.3842 31.0039C39.9063 31.697 39.2975 32.2001 38.4398 32.5078C38.3376 32.545 38.3376 32.545 38.2335 32.5828C37.8977 32.6624 37.5897 32.6594 37.2439 32.6531C37.1793 32.6525 37.1146 32.6518 37.048 32.6512C36.8897 32.6496 36.7314 32.6472 36.5731 32.6445C36.6946 32.393 36.8714 32.2231 37.0835 32.025C37.349 31.7741 37.6028 31.5193 37.8467 31.2517C38.159 30.9104 38.4921 30.5904 38.8367 30.2743C39.0157 30.1078 39.134 29.9936 39.2175 29.7734C38.4891 29.2504 37.7583 28.7308 37.0158 28.2232C36.8821 28.1314 36.7491 28.0388 36.6162 27.9462C36.157 27.628 35.7004 27.335 35.1731 27.1074C35.1731 27.0623 35.1731 27.0172 35.1731 26.9707C35.2911 26.916 35.4094 26.8621 35.528 26.8083C35.5938 26.7782 35.6597 26.7481 35.7276 26.717C36.7799 26.3018 38.0703 26.3622 39.051 26.8839Z" fill="#AF05FF"/>
</svg>
