<svg width="60" height="60" viewBox="0 0 60 60" fill="none" xmlns="http://www.w3.org/2000/svg">
<path d="M44 0H16C7.16344 0 0 7.16344 0 16V44C0 52.8366 7.16344 60 16 60H44C52.8366 60 60 52.8366 60 44V16C60 7.16344 52.8366 0 44 0Z" fill="#C9FFCB"/>
<path d="M25.3824 30.9317C25.3824 32.0248 25.3824 33.1179 25.3824 34.2441C25.6525 34.2429 25.9226 34.2418 26.201 34.2407C27.0941 34.2372 27.9873 34.2348 28.8805 34.2331C29.422 34.232 29.9634 34.2305 30.5049 34.2281C31.0276 34.2258 31.5502 34.2245 32.0729 34.224C32.2722 34.2236 32.4715 34.2228 32.6707 34.2217C32.9501 34.2202 33.2295 34.22 33.5089 34.2201C33.5911 34.2193 33.6732 34.2185 33.7578 34.2177C34.2594 34.2196 34.7674 34.2385 35.1635 34.5503C35.4971 34.8858 35.6373 35.196 35.622 35.6453C35.5599 36.0199 35.3569 36.319 35.038 36.5653C34.6874 36.7845 34.4449 36.7896 34.025 36.788C33.9464 36.7879 33.9464 36.7879 33.8663 36.7877C33.6992 36.7873 33.5322 36.7864 33.3652 36.7856C33.2519 36.7852 33.1385 36.7849 33.0251 36.7846C32.7475 36.7838 32.4699 36.7826 32.1923 36.7811C32.1923 36.8509 32.1923 36.9207 32.1923 36.9926C32.2677 36.9904 32.2677 36.9904 32.3447 36.9881C32.5743 36.9822 32.804 36.9786 33.0337 36.975C33.1128 36.9726 33.1919 36.9702 33.2734 36.9678C33.761 36.962 34.0386 36.9847 34.4095 37.2745C34.7036 37.5507 34.8803 37.8143 34.8874 38.2028C34.8513 38.6696 34.6801 38.9567 34.2808 39.2698C34.0075 39.4427 33.8698 39.4678 33.5378 39.4661C33.4598 39.4658 33.3817 39.4656 33.3012 39.4654C33.2195 39.4648 33.1377 39.4642 33.0535 39.4636C32.9299 39.4631 32.9299 39.4631 32.8038 39.4626C32.6 39.4618 32.3961 39.4606 32.1923 39.4592C32.1923 39.5057 32.1923 39.5522 32.1923 39.6001C32.3013 39.5965 32.3013 39.5965 32.4125 39.5927C33.6407 39.5686 33.6407 39.5686 34.0751 39.928C34.4378 40.2872 34.5137 40.5664 34.5051 41.0452C34.4709 41.412 34.2865 41.6294 33.9938 41.873C33.7217 42.0702 33.4842 42.1457 33.1425 42.2077C33.203 42.2455 33.2634 42.2833 33.3257 42.3222C33.6796 42.6006 33.817 42.9107 33.8602 43.3295C33.8479 43.6923 33.6895 43.9623 33.4345 44.2383C32.8764 44.6426 32.3976 44.6342 31.7021 44.6312C31.5957 44.6315 31.4892 44.6319 31.3828 44.6323C31.0945 44.6333 30.8062 44.6329 30.5179 44.6323C30.2154 44.6317 29.9129 44.6322 29.6104 44.6325C29.1021 44.6329 28.5938 44.6324 28.0855 44.6314C27.4994 44.6303 26.9133 44.6306 26.3272 44.6318C25.8228 44.6328 25.3185 44.6329 24.8141 44.6323C24.5134 44.632 24.2127 44.632 23.912 44.6327C23.6288 44.6333 23.3457 44.6329 23.0626 44.6316C22.9103 44.6312 22.758 44.6318 22.6057 44.6325C21.9599 44.6283 21.1974 44.6138 20.7104 44.181C20.6714 43.9998 20.6714 43.9998 20.6723 43.7783C20.6719 43.6944 20.6714 43.6105 20.671 43.5241C20.6721 43.4319 20.6733 43.3398 20.6744 43.2448C20.6745 43.1469 20.6745 43.049 20.6743 42.951C20.6742 42.685 20.6761 42.419 20.6783 42.153C20.6803 41.8751 20.6805 41.5971 20.6808 41.3192C20.6818 40.7928 20.6844 40.2664 20.6876 39.74C20.6911 39.1408 20.6929 38.5416 20.6945 37.9423C20.6978 36.7095 20.7034 35.4768 20.7104 34.2441C20.7971 34.2435 20.8838 34.243 20.9731 34.2424C21.0882 34.2395 21.2032 34.2364 21.3182 34.2333C21.3752 34.2332 21.4322 34.2332 21.4909 34.2331C21.8107 34.2221 21.9932 34.1943 22.2174 33.9821C22.4048 33.762 22.4048 33.762 22.5725 33.5305C22.7828 33.2309 23.0268 32.9615 23.279 32.6892C23.3225 32.6418 23.3659 32.5944 23.4107 32.5455C24.8975 30.9317 24.8975 30.9317 25.3824 30.9317Z" fill="#15C71C"/>
<path d="M31.0045 14.0178C33.6438 14.0178 36.283 14.0178 39.0023 14.0178C39.0023 15.4132 39.0023 16.8086 39.0023 18.2463C41.6415 18.2463 44.2808 18.2463 47 18.2463C46.8625 18.491 46.7244 18.6775 46.5397 18.8937C46.5087 18.9302 46.4777 18.9666 46.4457 19.0042C46.3404 19.1276 46.2347 19.2507 46.129 19.3739C46.0727 19.4395 46.0727 19.4395 46.0153 19.5064C45.8061 19.7504 45.5966 19.9941 45.3869 20.2377C45.0628 20.6144 44.7397 20.9918 44.4166 21.3692C44.3622 21.4327 44.3077 21.4963 44.2517 21.5617C44.2006 21.6215 44.1494 21.6812 44.0967 21.7427C44.0515 21.7956 44.0062 21.8485 43.9595 21.9031C43.8967 21.9767 43.8967 21.9767 43.8326 22.0519C43.7863 22.099 43.74 22.1461 43.6923 22.1946C43.5786 22.3267 43.5786 22.3267 43.6073 22.4759C43.6798 22.6274 43.7635 22.7463 43.8737 22.8786C43.915 22.9288 43.9563 22.9789 43.9988 23.0306C44.0436 23.0841 44.0884 23.1376 44.1345 23.1927C44.2291 23.3075 44.3236 23.4223 44.4181 23.5371C44.49 23.6242 44.49 23.6242 44.5634 23.7131C44.772 23.9677 44.9755 24.2253 45.1787 24.4833C45.4269 24.7979 45.6767 25.1113 45.931 25.422C45.9772 25.4786 46.0235 25.5351 46.0711 25.5934C46.1597 25.7016 46.2486 25.8096 46.3378 25.9174C46.3783 25.9669 46.4188 26.0164 46.4606 26.0673C46.496 26.1103 46.5314 26.1532 46.5679 26.1974C46.7246 26.4059 46.8602 26.6264 47 26.8442C43.1848 26.8442 39.3697 26.8442 35.4389 26.8442C35.4389 25.4488 35.4389 24.0534 35.4389 22.6157C33.9756 22.6157 32.5122 22.6157 31.0045 22.6157C31.0045 19.7784 31.0045 16.9411 31.0045 14.0178Z" fill="#15C71C"/>
<path d="M28.8851 12.0926C29.2788 12.2795 29.5642 12.5642 29.7472 12.9237C29.8464 13.2781 29.838 13.6189 29.8358 13.9828C29.8359 14.0649 29.8361 14.1469 29.8362 14.2315C29.8364 14.4588 29.8359 14.686 29.8351 14.9133C29.8344 15.1586 29.8347 15.4038 29.8348 15.6491C29.8349 16.0739 29.8344 16.4987 29.8335 16.9234C29.8322 17.5376 29.8318 18.1517 29.8316 18.7659C29.8312 19.7623 29.8302 20.7588 29.8287 21.7552C29.8272 22.7231 29.8261 23.691 29.8254 24.6589C29.8254 24.7484 29.8254 24.7484 29.8253 24.8397C29.8251 25.1391 29.8249 25.4384 29.8247 25.7378C29.8231 28.2209 29.8202 30.7039 29.8167 33.1869C28.7454 33.1869 27.674 33.1869 26.5701 33.1869C26.563 30.6378 26.5573 28.0886 26.554 25.5395C26.5536 25.2385 26.5532 24.9375 26.5527 24.6365C26.5527 24.5766 26.5526 24.5167 26.5525 24.4549C26.5511 23.4849 26.5486 22.5148 26.5457 21.5447C26.5427 20.5492 26.541 19.5537 26.5403 18.5583C26.5399 17.944 26.5385 17.3298 26.536 16.7156C26.5343 16.2944 26.5338 15.8731 26.5342 15.4519C26.5344 15.2089 26.5341 14.9659 26.5324 14.7229C26.5308 14.4592 26.5312 14.1956 26.532 13.9319C26.5311 13.8554 26.5302 13.7789 26.5293 13.7001C26.5339 13.1755 26.6292 12.7977 27.0307 12.3927C27.0763 12.3606 27.122 12.3286 27.169 12.2955C27.2148 12.2622 27.2606 12.2289 27.3079 12.1945C27.728 11.9438 28.4158 11.9649 28.8851 12.0926Z" fill="#15C71C"/>
<path d="M12 33.3279C13.6985 33.3279 15.3971 33.3279 17.1471 33.3279C17.1471 36.9559 17.1471 40.584 17.1471 44.322C15.4485 44.322 13.75 44.322 12 44.322C12 40.6939 12 37.0659 12 33.3279Z" fill="#15C71C"/>
<path d="M18.3348 34.2441C18.7268 34.2441 19.1188 34.2441 19.5226 34.2441C19.5226 37.5698 19.5226 40.8955 19.5226 44.322C19.1307 44.322 18.7387 44.322 18.3348 44.322C18.3348 40.9962 18.3348 37.6705 18.3348 34.2441Z" fill="#15C71C"/>
<path d="M26.5701 45.661C27.6415 45.661 28.7129 45.661 29.8167 45.661C29.8167 46.1029 29.8167 46.5447 29.8167 47C28.7454 47 27.674 47 26.5701 47C26.5701 46.5581 26.5701 46.1162 26.5701 45.661Z" fill="#15C71C"/>
</svg>
