<svg width="60" height="60" viewBox="0 0 60 60" fill="none" xmlns="http://www.w3.org/2000/svg">
<rect width="60" height="60" rx="16" fill="#EEE5FF"/>
<path d="M46.25 41.2502C45.9185 41.2502 45.6005 41.3819 45.3661 41.6163C45.1317 41.8508 45 42.1687 45 42.5002C44.9983 42.9386 44.8812 43.3689 44.6607 43.7478C44.4402 44.1267 44.1239 44.441 43.7436 44.659C43.3632 44.8771 42.9322 44.9913 42.4938 44.9903C42.0554 44.9892 41.625 44.8728 41.2457 44.6528C40.8665 44.4329 40.5517 44.1171 40.3331 43.737C40.1145 43.357 39.9996 42.9262 40 42.4878C40.0005 42.0494 40.1162 41.6188 40.3356 41.2392C40.555 40.8596 40.8703 40.5444 41.25 40.3252C41.2149 40.5819 41.2604 40.8431 41.3803 41.0727C41.5001 41.3024 41.6883 41.4892 41.9189 41.6072C42.1495 41.7252 42.411 41.7687 42.6674 41.7316C42.9238 41.6946 43.1623 41.5788 43.35 41.4002L45.1125 39.6377C45.2297 39.5215 45.3226 39.3833 45.3861 39.2309C45.4496 39.0786 45.4822 38.9152 45.4822 38.7502C45.4822 38.5852 45.4496 38.4218 45.3861 38.2695C45.3226 38.1172 45.2297 37.9789 45.1125 37.8627L43.35 36.1002C43.2338 35.9831 43.0955 35.8901 42.9432 35.8266C42.7909 35.7631 42.6275 35.7305 42.4625 35.7305C42.2975 35.7305 42.1341 35.7631 41.9818 35.8266C41.8294 35.8901 41.6912 35.9831 41.575 36.1002C41.3853 36.2993 41.2666 36.5555 41.2372 36.8289C41.2078 37.1023 41.2694 37.3778 41.4125 37.6127C40.4931 37.8176 39.6502 38.278 38.9811 38.941C38.3119 39.6039 37.8436 40.4424 37.6301 41.3599C37.4166 42.2773 37.4666 43.2364 37.7744 44.1267C38.0822 45.0169 38.6352 45.8022 39.3697 46.3919C40.1042 46.9816 40.9904 47.3519 41.9261 47.46C42.8619 47.5681 43.8091 47.4097 44.6588 47.003C45.5084 46.5963 46.2259 45.9579 46.7286 45.1612C47.2312 44.3646 47.4986 43.4422 47.5 42.5002C47.5 42.1687 47.3683 41.8508 47.1339 41.6163C46.8995 41.3819 46.5815 41.2502 46.25 41.2502Z" fill="#7F3DFF"/>
<path d="M40.725 16.9127C40.1809 16.5767 39.56 16.3853 38.9211 16.3569C38.2823 16.3284 37.6468 16.4638 37.075 16.7502L36.7 16.9377C36.5389 17.0102 36.3642 17.0476 36.1875 17.0476C36.0108 17.0476 35.8361 17.0102 35.675 16.9377L31.3875 15.2627C30.4965 14.9079 29.5035 14.9079 28.6125 15.2627L24.325 16.9752C24.1639 17.0477 23.9892 17.0851 23.8125 17.0851C23.6358 17.0851 23.4611 17.0477 23.3 16.9752L22.925 16.7877C22.3565 16.5038 21.7252 16.3691 21.0903 16.3961C20.4554 16.4231 19.8378 16.611 19.2955 16.9422C18.7532 17.2733 18.3039 17.7369 17.9898 18.2893C17.6758 18.8417 17.5072 19.4648 17.5 20.1002V38.7502C17.5 40.4078 18.1585 41.9975 19.3306 43.1696C20.5027 44.3417 22.0924 45.0002 23.75 45.0002H35.475C35.17 44.2015 35.0092 43.3551 35 42.5002V42.4002C35.002 41.054 35.3664 39.7332 36.0548 38.5763C36.7432 37.4194 37.7303 36.4691 38.9125 35.8252C39.0861 35.2218 39.4085 34.6716 39.85 34.2252L40 34.0877C40.2367 33.8792 40.4968 33.6989 40.775 33.5502C41.234 33.317 41.7361 33.1809 42.25 33.1502H42.5V20.1002C42.5 19.4617 42.3369 18.8339 42.0263 18.276C41.7156 17.7182 41.2677 17.249 40.725 16.9127V16.9127ZM32.5 36.2502H25C24.6685 36.2502 24.3505 36.1185 24.1161 35.8841C23.8817 35.6497 23.75 35.3317 23.75 35.0002C23.75 34.6687 23.8817 34.3507 24.1161 34.1163C24.3505 33.8819 24.6685 33.7502 25 33.7502H32.5C32.8315 33.7502 33.1495 33.8819 33.3839 34.1163C33.6183 34.3507 33.75 34.6687 33.75 35.0002C33.75 35.3317 33.6183 35.6497 33.3839 35.8841C33.1495 36.1185 32.8315 36.2502 32.5 36.2502ZM35 28.7502H25C24.6685 28.7502 24.3505 28.6185 24.1161 28.3841C23.8817 28.1497 23.75 27.8317 23.75 27.5002C23.75 27.1687 23.8817 26.8508 24.1161 26.6163C24.3505 26.3819 24.6685 26.2502 25 26.2502H35C35.3315 26.2502 35.6495 26.3819 35.8839 26.6163C36.1183 26.8508 36.25 27.1687 36.25 27.5002C36.25 27.8317 36.1183 28.1497 35.8839 28.3841C35.6495 28.6185 35.3315 28.7502 35 28.7502Z" fill="#7F3DFF"/>
</svg>
