<svg width="60" height="60" viewBox="0 0 60 60" fill="none" xmlns="http://www.w3.org/2000/svg">
<path d="M44 0H16C7.16344 0 0 7.16344 0 16V44C0 52.8366 7.16344 60 16 60H44C52.8366 60 60 52.8366 60 44V16C60 7.16344 52.8366 0 44 0Z" fill="#FEFFC9"/>
<path d="M13.2169 27.1994C13.274 27.199 13.3312 27.1987 13.3901 27.1984C13.5826 27.1976 13.775 27.1982 13.9674 27.1989C14.1064 27.1986 14.2454 27.1982 14.3844 27.1977C14.7671 27.1968 15.1498 27.197 15.5325 27.1975C15.9449 27.1979 16.3573 27.197 16.7698 27.1963C17.5313 27.1952 18.2928 27.195 19.0543 27.1954C19.7578 27.1957 20.4613 27.1957 21.1648 27.1953C21.2591 27.1952 21.3534 27.1952 21.4478 27.1951C21.5899 27.195 21.732 27.1949 21.8741 27.1949C23.1956 27.1941 24.5171 27.1938 25.8386 27.1944C25.8884 27.1944 25.9382 27.1944 25.9896 27.1944C26.3942 27.1946 26.7989 27.1948 27.2036 27.1949C28.7823 27.1956 30.361 27.1951 31.9397 27.1935C33.7128 27.1917 35.4859 27.1908 37.2591 27.1913C37.4481 27.1914 37.6371 27.1914 37.826 27.1914C37.8726 27.1915 37.9191 27.1915 37.9671 27.1915C38.6701 27.1916 39.3732 27.1911 40.0762 27.1902C40.8756 27.1892 41.6749 27.1891 42.4743 27.1903C42.8824 27.1909 43.2904 27.1911 43.6985 27.19C44.0718 27.1891 44.445 27.1894 44.8183 27.1907C44.9536 27.191 45.0889 27.1908 45.2242 27.1901C45.4077 27.1892 45.5911 27.1899 45.7745 27.1912C45.8274 27.1905 45.8803 27.1898 45.9348 27.1892C46.2878 27.1939 46.4873 27.276 46.7596 27.4983C46.9789 27.7706 46.99 27.9894 46.9907 28.3337C46.9912 28.4072 46.9912 28.4072 46.9918 28.4823C46.9928 28.6462 46.9923 28.8102 46.9918 28.9741C46.9922 29.0918 46.9927 29.2096 46.9932 29.3273C46.9945 29.6467 46.9944 29.9662 46.994 30.2857C46.9938 30.5524 46.9942 30.8192 46.9946 31.0859C46.9956 31.7152 46.9954 32.3445 46.9947 32.9738C46.9939 33.623 46.9948 34.2721 46.9967 34.9212C46.9982 35.4787 46.9986 36.0361 46.9982 36.5935C46.998 36.9264 46.9982 37.2593 46.9993 37.5922C47.0004 37.9052 47.0001 38.2182 46.9989 38.5313C46.9986 38.6461 46.9988 38.7609 46.9995 38.8757C47.0004 39.0326 46.9996 39.1894 46.9984 39.3463C46.9984 39.4341 46.9984 39.5218 46.9984 39.6122C46.9494 39.9519 46.8173 40.1609 46.5465 40.371C46.2905 40.4915 46.0602 40.4917 45.7831 40.4893C45.726 40.4896 45.6688 40.4899 45.6099 40.4903C45.4174 40.4911 45.225 40.4904 45.0326 40.4898C44.8936 40.4901 44.7546 40.4905 44.6156 40.4909C44.2329 40.4919 43.8502 40.4916 43.4675 40.4911C43.0551 40.4908 42.6427 40.4916 42.2302 40.4923C41.4687 40.4934 40.7072 40.4936 39.9457 40.4933C39.2422 40.493 38.5387 40.493 37.8352 40.4934C37.7409 40.4934 37.6466 40.4935 37.5522 40.4935C37.4101 40.4936 37.268 40.4937 37.1259 40.4938C35.8044 40.4945 34.4829 40.4948 33.1614 40.4943C33.1116 40.4943 33.0618 40.4943 33.0104 40.4942C32.6058 40.4941 32.2011 40.4939 31.7964 40.4937C30.2177 40.493 28.639 40.4936 27.0603 40.4952C25.2872 40.497 23.5141 40.4978 21.7409 40.4973C21.5519 40.4973 21.3629 40.4973 21.174 40.4972C21.1274 40.4972 21.0809 40.4972 21.0329 40.4972C20.3299 40.497 19.6268 40.4976 18.9238 40.4985C18.1244 40.4995 17.325 40.4995 16.5257 40.4983C16.1176 40.4977 15.7096 40.4976 15.3015 40.4986C14.9282 40.4996 14.555 40.4993 14.1817 40.4979C14.0464 40.4977 13.9111 40.4979 13.7758 40.4986C13.5923 40.4995 13.4089 40.4987 13.2255 40.4975C13.1726 40.4982 13.1197 40.4988 13.0652 40.4995C12.7122 40.4947 12.5127 40.4126 12.2404 40.1904C12.0211 39.9181 12.01 39.6992 12.0093 39.355C12.0089 39.3059 12.0086 39.2569 12.0082 39.2064C12.0072 39.0424 12.0077 38.8785 12.0082 38.7145C12.0078 38.5968 12.0073 38.4791 12.0068 38.3614C12.0056 38.0419 12.0056 37.7224 12.006 37.403C12.0062 37.1362 12.0058 36.8695 12.0054 36.6027C12.0044 35.9734 12.0046 35.3441 12.0053 34.7148C12.0061 34.0657 12.0052 33.4166 12.0033 32.7674C12.0018 32.21 12.0014 31.6526 12.0018 31.0951C12.002 30.7622 12.0018 30.4293 12.0007 30.0965C11.9996 29.7834 11.9999 29.4704 12.0011 29.1574C12.0014 29.0426 12.0012 28.9277 12.0005 28.8129C11.9996 28.656 12.0004 28.4992 12.0016 28.3423C12.0016 28.2546 12.0016 28.1668 12.0016 28.0764C12.0506 27.7367 12.1827 27.5278 12.4535 27.3177C12.7095 27.1972 12.9398 27.197 13.2169 27.1994ZM17.3697 29.3023C17.101 29.6171 17.0536 29.7904 17.0624 30.1931C17.0943 30.4456 17.1881 30.5866 17.3569 30.7736C17.6993 31.0283 18.0282 31.0554 18.4455 31.0533C18.5213 31.053 18.5972 31.0528 18.6753 31.0526C18.7538 31.052 18.8323 31.0515 18.9132 31.0509C18.993 31.0506 19.0728 31.0502 19.155 31.0499C19.3515 31.0491 19.5481 31.048 19.7446 31.0466C19.7441 31.1694 19.7441 31.1694 19.7437 31.2947C19.7409 32.0667 19.7389 32.8388 19.7375 33.6109C19.7368 34.0078 19.7358 34.4047 19.7343 34.8016C19.7328 35.1848 19.732 35.5679 19.7316 35.9511C19.7314 36.0972 19.7309 36.2432 19.7302 36.3893C19.7292 36.5941 19.729 36.7989 19.7291 37.0038C19.7286 37.064 19.7281 37.1241 19.7276 37.1861C19.7291 37.6243 19.7494 37.9914 20.0473 38.3352C20.362 38.6039 20.5353 38.6513 20.9379 38.6425C21.1903 38.6107 21.3312 38.5168 21.5183 38.348C21.8231 37.938 21.8009 37.5087 21.7989 37.0193C21.7989 36.9547 21.7989 36.8901 21.799 36.8235C21.7989 36.6105 21.7984 36.3974 21.7978 36.1844C21.7977 36.0365 21.7976 35.8886 21.7975 35.7406C21.7973 35.3517 21.7966 34.9628 21.7959 34.5739C21.7952 34.1768 21.7948 33.7798 21.7945 33.3828C21.7938 32.6041 21.7926 31.8253 21.7912 31.0466C21.8649 31.0477 21.8649 31.0477 21.9402 31.0488C22.1648 31.0516 22.3894 31.0534 22.6141 31.0551C22.6914 31.0563 22.7688 31.0574 22.8484 31.0586C23.5601 31.0729 23.5601 31.0729 24.1661 30.7438C24.4347 30.429 24.4821 30.2557 24.4733 29.853C24.4415 29.6005 24.3477 29.4595 24.1789 29.2724C23.802 28.9921 23.4199 28.9893 22.9645 28.9896C22.912 28.9893 22.8595 28.9891 22.8054 28.9889C22.6324 28.9882 22.4593 28.9881 22.2863 28.988C22.1656 28.9878 22.0448 28.9876 21.9241 28.9873C21.6712 28.9869 21.4183 28.9868 21.1654 28.9868C20.8421 28.9868 20.5187 28.9859 20.1954 28.9847C19.9461 28.984 19.6967 28.9838 19.4474 28.9839C19.3282 28.9838 19.2091 28.9835 19.0899 28.983C18.9229 28.9823 18.7559 28.9825 18.5889 28.9829C18.5401 28.9825 18.4913 28.9821 18.4411 28.9817C18.029 28.9843 17.6863 29.0278 17.3697 29.3023ZM28.6814 29.3407C28.3871 29.7117 28.2467 30.1398 28.0842 30.5807C28.0367 30.7074 27.9892 30.8341 27.9417 30.9608C27.8741 31.1418 27.8069 31.3229 27.7397 31.5041C27.6 31.8805 27.4593 32.2567 27.3188 32.6328C27.283 32.7287 27.2473 32.8246 27.2115 32.9205C26.9619 33.59 26.7073 34.2573 26.4477 34.9231C26.3872 35.0791 26.3266 35.2352 26.2661 35.3913C26.1806 35.6119 26.0948 35.8323 26.0077 36.0522C25.928 36.2537 25.8497 36.4557 25.7716 36.6578C25.7483 36.7157 25.7249 36.7736 25.7008 36.8332C25.5516 37.2248 25.4889 37.5876 25.5433 38.0068C25.6908 38.3075 25.8432 38.498 26.1572 38.6209C26.4884 38.6659 26.7552 38.6559 27.0654 38.5271C27.4571 38.1444 27.6055 37.6239 27.7945 37.1197C28.9201 37.1197 30.0458 37.1197 31.2055 37.1197C31.3406 37.4575 31.4756 37.7953 31.6148 38.1433C31.9048 38.5219 31.9048 38.5219 32.3197 38.6463C32.6966 38.6564 32.9268 38.6145 33.2265 38.381C33.4634 38.1253 33.4917 37.8675 33.484 37.5312C33.4263 37.0938 33.2488 36.6878 33.0898 36.279C33.0512 36.1772 33.0126 36.0754 32.9742 35.9735C32.8718 35.7028 32.768 35.4327 32.6639 35.1627C32.5568 34.8841 32.4507 34.6051 32.3447 34.3261C32.2184 33.9943 32.0921 33.6626 31.9651 33.331C31.7318 32.7212 31.5022 32.1104 31.279 31.4968C31.2325 31.3694 31.1859 31.2419 31.1393 31.1145C31.0772 30.9445 31.0154 30.7744 30.9546 30.6039C30.6744 29.7422 30.6744 29.7422 30.0444 29.1262C29.5761 28.9235 29.0677 29.041 28.6814 29.3407ZM34.625 29.4857C34.5064 29.7887 34.4866 30.0439 34.5483 30.3642C34.6733 30.6399 34.8451 30.8729 35.0258 31.1148C35.0697 31.1736 35.0697 31.1736 35.1145 31.2336C35.2469 31.4108 35.3798 31.5876 35.5138 31.7636C35.9092 32.2854 36.2746 32.8272 36.6396 33.3705C36.7319 33.5075 36.7319 33.5075 36.8471 33.6471C36.8764 33.6897 36.9057 33.7322 36.9359 33.7761C36.8678 34.1182 36.6028 34.405 36.3987 34.6802C36.3184 34.79 36.2381 34.8998 36.1578 35.0097C36.117 35.0654 36.0762 35.1211 36.0342 35.1785C35.8461 35.4371 35.6617 35.6982 35.4778 35.9597C35.4271 36.0317 35.4271 36.0317 35.3754 36.1052C35.311 36.1967 35.2467 36.2882 35.1824 36.3798C35.1015 36.495 35.0203 36.61 34.9392 36.7249C34.896 36.7863 34.8528 36.8476 34.8083 36.9107C34.7541 36.9877 34.7541 36.9877 34.6988 37.0661C34.4977 37.3637 34.5095 37.6564 34.5483 38.0068C34.6958 38.3075 34.8482 38.498 35.1622 38.6209C35.493 38.6658 35.7433 38.6732 36.0446 38.5175C36.3078 38.3042 36.4804 38.0668 36.6716 37.7893C36.7094 37.7356 36.7473 37.682 36.7863 37.6267C36.8653 37.5145 36.9439 37.4022 37.0223 37.2896C37.1754 37.0698 37.3301 36.8511 37.4849 36.6324C37.617 36.4454 37.7485 36.2581 37.8799 36.0706C37.9458 35.9785 38.0148 35.8885 38.0845 35.7992C38.177 35.6911 38.177 35.6911 38.1639 35.5503C38.2089 35.5503 38.254 35.5503 38.3003 35.5503C38.3154 35.5965 38.3304 35.6428 38.3459 35.6905C38.4633 35.95 38.6247 36.1539 38.7992 36.3776C39.1662 36.8553 39.5082 37.3463 39.8384 37.8501C40.0567 38.1771 40.2596 38.4408 40.6198 38.6209C40.9596 38.6582 41.2267 38.6579 41.5365 38.5058C41.8156 38.2539 41.9278 38.0664 41.9586 37.6912C41.941 37.2305 41.7071 36.9336 41.4384 36.5738C41.4092 36.5346 41.3799 36.4954 41.3498 36.455C41.2173 36.2779 41.0844 36.1011 40.9505 35.9251C40.5551 35.4033 40.1897 34.8614 39.8246 34.3182C39.7323 34.1811 39.7323 34.1811 39.6172 34.0416C39.5878 33.999 39.5585 33.9564 39.5283 33.9126C39.5965 33.5704 39.8615 33.2836 40.0655 33.0084C40.1459 32.8986 40.2262 32.7888 40.3064 32.679C40.3472 32.6232 40.388 32.5675 40.4301 32.5101C40.6182 32.2516 40.8026 31.9905 40.9865 31.729C41.0203 31.681 41.0541 31.6329 41.0889 31.5835C41.1532 31.492 41.2176 31.4004 41.2819 31.3089C41.3628 31.1937 41.4439 31.0787 41.5251 30.9637C41.5682 30.9024 41.6114 30.8411 41.6559 30.7779C41.692 30.7266 41.7282 30.6753 41.7654 30.6225C41.9663 30.3253 41.9631 30.0319 41.916 29.6819C41.7805 29.3843 41.6084 29.1886 41.302 29.0677C41.1419 29.0387 41.1419 29.0387 40.9737 29.0379C40.9184 29.0351 40.8631 29.0324 40.8061 29.0296C40.3357 29.1258 40.0776 29.4651 39.8264 29.8445C39.7914 29.8992 39.7563 29.9539 39.7202 30.0102C39.6436 30.1262 39.5669 30.2419 39.4899 30.3576C39.4513 30.4156 39.4127 30.4736 39.3729 30.5335C39.1591 30.8463 38.9279 31.1461 38.6948 31.4448C38.5229 31.6683 38.3887 31.8665 38.3003 32.1384C38.2553 32.1384 38.2103 32.1384 38.1639 32.1384C38.1489 32.0921 38.1338 32.0459 38.1183 31.9982C38.001 31.7386 37.8396 31.5347 37.665 31.311C37.4251 30.9992 37.1923 30.6853 36.9743 30.3576C36.9358 30.2997 36.8973 30.2419 36.8577 30.1823C36.7837 30.0702 36.7103 29.9576 36.6378 29.8445C36.3859 29.464 36.1292 29.1351 35.663 29.0248C35.2036 29.0375 34.9383 29.1305 34.625 29.4857Z" fill="#CED220"/>
<path d="M19.1058 12.0002C19.1972 12.0001 19.1972 12.0001 19.2904 12C19.4953 11.9999 19.7002 12.0003 19.9051 12.0007C20.0516 12.0007 20.1982 12.0007 20.3447 12.0006C20.7433 12.0006 21.1419 12.001 21.5404 12.0015C21.9567 12.0019 22.373 12.002 22.7893 12.002C23.5779 12.0022 24.3665 12.0028 25.1551 12.0035C26.0527 12.0043 26.9504 12.0046 27.848 12.005C29.6948 12.0057 31.5417 12.0069 33.3885 12.0084C33.3889 12.0668 33.3889 12.0668 33.3892 12.1264C33.3948 13.0753 33.401 14.0242 33.4081 14.9731C33.4116 15.4319 33.4147 15.8908 33.4173 16.3497C33.4198 16.7926 33.423 17.2355 33.4266 17.6783C33.4279 17.8473 33.4289 18.0162 33.4297 18.1851C33.4308 18.4218 33.4328 18.6585 33.435 18.8952C33.4351 18.9649 33.4353 19.0347 33.4354 19.1065C33.4408 19.5623 33.4532 19.9486 33.7424 20.3206C34.1672 20.651 34.645 20.627 35.1612 20.6281C35.2351 20.6287 35.309 20.6294 35.3852 20.6301C35.6284 20.6322 35.8717 20.6334 36.1149 20.6346C36.284 20.6358 36.4531 20.6372 36.6222 20.6386C37.0664 20.6421 37.5106 20.6448 37.9549 20.6473C38.4883 20.6504 39.0218 20.6547 39.5552 20.6588C40.3649 20.6648 41.1745 20.6695 41.9842 20.6745C41.9842 22.1607 41.9842 23.6469 41.9842 25.1782C33.7446 25.1782 25.5051 25.1782 17.0158 25.1782C17.0158 13.2079 17.0158 13.2079 17.634 12.5402C18.0891 12.1189 18.4936 11.9981 19.1058 12.0002ZM21.7357 16.7466C21.4671 17.0614 21.4197 17.2347 21.4285 17.6374C21.4603 17.8899 21.5542 18.0309 21.723 18.218C22.0882 18.4897 22.443 18.4995 22.8872 18.5009C22.958 18.5012 22.958 18.5012 23.0302 18.5015C23.1855 18.5022 23.3408 18.5023 23.4961 18.5024C23.6046 18.5026 23.7131 18.5029 23.8216 18.5031C24.0488 18.5035 24.276 18.5036 24.5032 18.5036C24.7935 18.5036 25.0838 18.5045 25.3742 18.5057C25.5982 18.5064 25.8222 18.5066 26.0463 18.5065C26.1533 18.5066 26.2603 18.5069 26.3673 18.5075C26.5173 18.5081 26.6673 18.5079 26.8173 18.5075C26.9024 18.5076 26.9876 18.5077 27.0754 18.5078C27.4381 18.4825 27.709 18.4286 27.9864 18.1881C28.255 17.8733 28.3024 17.7001 28.2936 17.2973C28.2618 17.0448 28.168 16.9039 27.9992 16.7168C27.6339 16.4451 27.2792 16.4353 26.8349 16.4339C26.7641 16.4336 26.7641 16.4336 26.6919 16.4332C26.5366 16.4326 26.3813 16.4324 26.226 16.4324C26.1175 16.4321 26.009 16.4319 25.9005 16.4317C25.6733 16.4313 25.4461 16.4311 25.2189 16.4312C24.9286 16.4312 24.6383 16.4303 24.348 16.4291C24.1239 16.4283 23.8999 16.4282 23.6758 16.4282C23.5689 16.4281 23.4619 16.4278 23.3549 16.4273C23.2048 16.4266 23.0549 16.4268 22.9048 16.4272C22.8197 16.4272 22.7345 16.4271 22.6468 16.427C22.284 16.4523 22.0131 16.5062 21.7357 16.7466ZM21.7357 21.1138C21.4671 21.4286 21.4197 21.6019 21.4285 22.0046C21.4603 22.2571 21.5542 22.3981 21.723 22.5852C22.0882 22.8569 22.443 22.8667 22.8872 22.868C22.958 22.8684 22.958 22.8684 23.0302 22.8687C23.1855 22.8694 23.3408 22.8695 23.4961 22.8696C23.6046 22.8698 23.7131 22.87 23.8216 22.8703C24.0488 22.8707 24.276 22.8708 24.5032 22.8708C24.7935 22.8708 25.0838 22.8717 25.3742 22.8729C25.5982 22.8736 25.8222 22.8738 26.0463 22.8737C26.1533 22.8738 26.2603 22.8741 26.3673 22.8746C26.5173 22.8753 26.6673 22.8751 26.8173 22.8747C26.9024 22.8748 26.9876 22.8749 27.0754 22.875C27.4381 22.8497 27.709 22.7957 27.9864 22.5553C28.255 22.2405 28.3024 22.0672 28.2936 21.6645C28.2618 21.412 28.168 21.2711 27.9992 21.084C27.6339 20.8123 27.2792 20.8025 26.8349 20.8011C26.7641 20.8008 26.7641 20.8008 26.6919 20.8004C26.5366 20.7998 26.3813 20.7996 26.226 20.7995C26.1175 20.7993 26.009 20.7991 25.9005 20.7989C25.6733 20.7985 25.4461 20.7983 25.2189 20.7984C24.9286 20.7984 24.6383 20.7974 24.348 20.7963C24.1239 20.7955 23.8999 20.7954 23.6758 20.7954C23.5689 20.7953 23.4619 20.795 23.3549 20.7945C23.2048 20.7938 23.0549 20.794 22.9048 20.7944C22.8197 20.7943 22.7345 20.7942 22.6468 20.7941C22.284 20.8195 22.0131 20.8734 21.7357 21.1138Z" fill="#CED220"/>
<path d="M17.0158 42.5105C25.2554 42.5105 33.4949 42.5105 41.9842 42.5105C41.9842 45.8309 41.9842 45.8309 41.3489 46.5023C40.7867 46.9181 40.2691 46.9857 39.5811 46.9815C39.4915 46.982 39.4018 46.9825 39.3094 46.983C39.0619 46.9844 38.8145 46.9841 38.567 46.9836C38.2995 46.9832 38.0321 46.9845 37.7646 46.9855C37.2412 46.9872 36.7177 46.9875 36.1943 46.9871C35.7686 46.9869 35.343 46.9871 34.9174 46.9877C34.8567 46.9878 34.7961 46.9879 34.7336 46.988C34.6104 46.9881 34.4872 46.9883 34.364 46.9885C33.2091 46.9899 32.0543 46.9897 30.8994 46.9888C29.8439 46.9881 28.7884 46.9896 27.7329 46.9922C26.6481 46.9949 25.5633 46.996 24.4785 46.9955C23.8698 46.9952 23.2612 46.9956 22.6526 46.9975C22.1344 46.9991 21.6162 46.9993 21.098 46.9977C20.8339 46.9969 20.5698 46.9967 20.3056 46.9984C20.0187 47.0001 19.7318 46.9987 19.4449 46.997C19.3622 46.998 19.2795 46.999 19.1944 47C18.5742 46.9922 18.0481 46.8311 17.5664 46.4257C16.5715 45.3555 17.0158 43.8783 17.0158 42.5105Z" fill="#CED220"/>
<path d="M35.4351 12.6225C35.9724 13.0832 35.9724 13.0832 36.1799 13.2906C36.227 13.3375 36.2742 13.3845 36.3227 13.4329C36.3727 13.483 36.4226 13.5331 36.4741 13.5847C36.5551 13.6655 36.5551 13.6655 36.6376 13.748C36.8146 13.9247 36.9913 14.1016 37.1681 14.2786C37.2913 14.4018 37.4145 14.525 37.5377 14.6481C37.7951 14.9055 38.0524 15.163 38.3096 15.4206C38.6072 15.7186 38.905 16.0164 39.203 16.3141C39.49 16.6009 39.7768 16.8878 40.0635 17.1748C40.1855 17.2969 40.3076 17.4189 40.4297 17.5409C40.5995 17.7106 40.7692 17.8805 40.9388 18.0505C40.9897 18.1013 41.0406 18.1521 41.0931 18.2045C41.1389 18.2505 41.1847 18.2965 41.2319 18.3439C41.272 18.3841 41.3121 18.4242 41.3535 18.4656C41.4384 18.5592 41.4384 18.5592 41.4384 18.6274C39.4573 18.6274 37.4762 18.6274 35.4351 18.6274C35.4351 16.6458 35.4351 14.6642 35.4351 12.6225Z" fill="#CED220"/>
<path d="M29.5 32.5478C29.6489 32.7712 29.7364 32.998 29.8288 33.2478C29.8558 33.3198 29.8558 33.3198 29.8833 33.3933C29.9212 33.4945 29.9589 33.5958 29.9965 33.6972C30.0543 33.8529 30.1125 34.0084 30.1707 34.1639C30.2074 34.2623 30.2441 34.3606 30.2808 34.459C30.307 34.5291 30.307 34.5291 30.3338 34.6007C30.4551 34.9282 30.4551 34.9282 30.4551 35.0044C29.8247 35.0044 29.1944 35.0044 28.5449 35.0044C28.7595 34.3866 28.9781 33.7718 29.2143 33.162C29.2349 33.1085 29.2555 33.0551 29.2767 33.0001C29.4233 32.6245 29.4233 32.6245 29.5 32.5478Z" fill="#CED220"/>
</svg>
