<svg width="60" height="60" viewBox="0 0 60 60" fill="none" xmlns="http://www.w3.org/2000/svg">
<path d="M44 0H16C7.16344 0 0 7.16344 0 16V44C0 52.8366 7.16344 60 16 60H44C52.8366 60 60 52.8366 60 44V16C60 7.16344 52.8366 0 44 0Z" fill="#C9FFEC"/>
<path d="M20.2031 12C21.5792 12 22.9553 12 24.373 12C24.373 17.0757 24.373 22.1514 24.373 27.3809C26.1552 27.3809 27.9373 27.3809 29.7734 27.3809C29.9088 27.6516 30.0441 27.9223 30.1836 28.2012C30.6585 28.9003 31.3897 29.2181 32.1892 29.3996C32.9183 29.5156 33.7133 29.3042 34.326 28.9061C34.9869 28.4117 35.4226 27.7864 35.584 26.9707C35.6728 26.0564 35.5257 25.2729 34.9626 24.5269C34.3936 23.8566 33.6847 23.4855 32.812 23.3987C32.0371 23.3639 31.2754 23.6281 30.6621 24.0996C30.2279 24.4979 30.048 24.8493 29.7734 25.3984C28.6455 25.3984 27.5176 25.3984 26.3555 25.3984C26.3555 21.3153 26.3555 17.2322 26.3555 13.0254C27.0548 13.0254 27.7541 13.0254 28.4746 13.0254C28.4746 14.3789 28.4746 15.7324 28.4746 17.127C29.1514 17.127 29.8281 17.127 30.5254 17.127C30.5254 15.7734 30.5254 14.4199 30.5254 13.0254C31.2247 13.0254 31.924 13.0254 32.6445 13.0254C32.6445 14.3789 32.6445 15.7324 32.6445 17.127C33.2987 17.127 33.9529 17.127 34.627 17.127C34.627 15.4351 34.627 13.7432 34.627 12C35.6646 12 36.7023 12 37.7715 12C37.7715 12.6993 37.7715 13.3986 37.7715 14.1191C37.4331 14.1191 37.0947 14.1191 36.7461 14.1191C36.7461 15.1117 36.7461 16.1043 36.7461 17.127C38.438 17.127 40.1299 17.127 41.873 17.127C41.873 18.8188 41.873 20.5107 41.873 22.2539C42.8656 22.2539 43.8582 22.2539 44.8809 22.2539C44.8809 21.5771 44.8809 20.9004 44.8809 20.2031C45.5802 20.2031 46.2795 20.2031 47 20.2031C47 21.5792 47 22.9553 47 24.373C45.3081 24.373 43.6162 24.373 41.873 24.373C41.873 25.0498 41.873 25.7266 41.873 26.4238C43.2266 26.4238 44.5801 26.4238 45.9746 26.4238C45.9746 27.1231 45.9746 27.8225 45.9746 28.543C44.6211 28.543 43.2676 28.543 41.873 28.543C41.873 29.1972 41.873 29.8514 41.873 30.5254C43.2266 30.5254 44.5801 30.5254 45.9746 30.5254C45.9746 31.2247 45.9746 31.924 45.9746 32.6445C44.6211 32.6445 43.2676 32.6445 41.873 32.6445C41.873 33.2987 41.873 33.9529 41.873 34.627C43.5649 34.627 45.2568 34.627 47 34.627C47 36.003 47 37.3791 47 38.7969C46.3007 38.7969 45.6014 38.7969 44.8809 38.7969C44.8809 38.1201 44.8809 37.4434 44.8809 36.7461C43.8883 36.7461 42.8957 36.7461 41.873 36.7461C41.873 38.438 41.873 40.1299 41.873 41.873C40.1812 41.873 38.4893 41.873 36.7461 41.873C36.7461 42.8656 36.7461 43.8582 36.7461 44.8809C37.4229 44.8809 38.0996 44.8809 38.7969 44.8809C38.7969 45.5802 38.7969 46.2795 38.7969 47C37.4208 47 36.0447 47 34.627 47C34.627 42.6011 34.627 38.2021 34.627 33.6699C32.2187 33.7024 32.2187 33.7024 29.8107 33.7438C29.3442 33.7475 29.3442 33.7475 29.1256 33.7482C28.9734 33.7495 28.8212 33.7524 28.669 33.7565C27.38 33.7901 27.38 33.7901 27.0419 33.491C26.9174 33.279 26.8403 33.083 26.7656 32.8496C26.4019 32.2873 25.7642 31.8818 25.1199 31.7174C24.1622 31.5742 23.3321 31.6856 22.5313 32.2608C21.9451 32.7202 21.5296 33.3288 21.3823 34.0729C21.273 34.9933 21.4793 35.867 22.0488 36.6094C22.5964 37.2168 23.3355 37.5758 24.1477 37.6521C25.0809 37.69 25.853 37.3576 26.5349 36.7375C26.6848 36.5862 26.7672 36.4687 26.8497 36.2702C26.9557 36.0199 27.0539 35.8477 27.2441 35.6523C27.653 35.5348 28.0502 35.5563 28.4722 35.5722C28.579 35.5734 28.6857 35.5743 28.7924 35.5747C29.1865 35.579 29.5804 35.5905 29.9742 35.6011C30.8554 35.618 31.7366 35.6349 32.6445 35.6523C32.6445 39.0587 32.6445 42.465 32.6445 45.9746C31.9452 45.9746 31.2459 45.9746 30.5254 45.9746C30.5254 44.6211 30.5254 43.2676 30.5254 41.873C29.8486 41.873 29.1719 41.873 28.4746 41.873C28.4746 43.2266 28.4746 44.5801 28.4746 45.9746C27.7753 45.9746 27.076 45.9746 26.3555 45.9746C26.3555 44.6211 26.3555 43.2676 26.3555 41.873C25.7013 41.873 25.0471 41.873 24.373 41.873C24.373 43.5649 24.373 45.2568 24.373 47C22.997 47 21.6209 47 20.2031 47C20.2031 46.3007 20.2031 45.6014 20.2031 44.8809C20.8799 44.8809 21.5566 44.8809 22.2539 44.8809C22.2539 43.8883 22.2539 42.8957 22.2539 41.873C20.562 41.873 18.8701 41.873 17.127 41.873C17.127 40.1812 17.127 38.4893 17.127 36.7461C16.1344 36.7461 15.1418 36.7461 14.1191 36.7461C14.1191 37.4229 14.1191 38.0996 14.1191 38.7969C13.4198 38.7969 12.7205 38.7969 12 38.7969C12 37.4208 12 36.0447 12 34.627C13.6919 34.627 15.3838 34.627 17.127 34.627C17.127 33.9728 17.127 33.3186 17.127 32.6445C15.7734 32.6445 14.4199 32.6445 13.0254 32.6445C13.0254 31.9452 13.0254 31.2459 13.0254 30.5254C14.3789 30.5254 15.7324 30.5254 17.127 30.5254C17.127 29.8712 17.127 29.217 17.127 28.543C15.7734 28.543 14.4199 28.543 13.0254 28.543C13.0254 27.8437 13.0254 27.1443 13.0254 26.4238C14.3789 26.4238 15.7324 26.4238 17.127 26.4238C17.127 25.7471 17.127 25.0703 17.127 24.373C15.4351 24.373 13.7432 24.373 12 24.373C12 22.997 12 21.6209 12 20.2031C12.6993 20.2031 13.3986 20.2031 14.1191 20.2031C14.1191 20.8799 14.1191 21.5566 14.1191 22.2539C15.1117 22.2539 16.1043 22.2539 17.127 22.2539C17.127 20.562 17.127 18.8701 17.127 17.127C18.8188 17.127 20.5107 17.127 22.2539 17.127C22.2539 16.1344 22.2539 15.1418 22.2539 14.1191C21.5771 14.1191 20.9004 14.1191 20.2031 14.1191C20.2031 13.4198 20.2031 12.7205 20.2031 12Z" fill="#1EE39D"/>
<path d="M33.1962 25.485C33.4508 25.6959 33.643 25.8898 33.6905 26.2289C33.6923 26.5732 33.6632 26.8133 33.4648 27.1074C33.1111 27.4266 32.8909 27.474 32.4232 27.4679C32.1541 27.4413 32.0192 27.3613 31.8242 27.1758C31.6345 26.9409 31.5342 26.7231 31.5209 26.4196C31.5632 26.0389 31.6714 25.8007 31.9567 25.548C32.3295 25.2816 32.7931 25.2385 33.1962 25.485Z" fill="#1EE39D"/>
<path d="M24.858 33.6515C25.126 33.7906 25.287 33.9381 25.3984 34.2168C25.4853 34.5478 25.5009 34.8117 25.3557 35.1268C25.1872 35.4126 25.0299 35.6052 24.697 35.6932C24.3298 35.7511 24.0583 35.7274 23.737 35.5349C23.4867 35.3457 23.3668 35.1712 23.322 34.8579C23.3085 34.5469 23.3245 34.3341 23.4587 34.0502C23.8601 33.6171 24.2831 33.4509 24.858 33.6515Z" fill="#1EE39D"/>
</svg>
