<svg width="60" height="60" viewBox="0 0 60 60" fill="none" xmlns="http://www.w3.org/2000/svg">
<rect width="60" height="60" rx="16" fill="#C9FFEC"/>
<path d="M15.198 27.613C15.2822 27.6127 15.3664 27.6125 15.4532 27.6122C15.5461 27.6126 15.639 27.613 15.7319 27.6134C15.8311 27.6133 15.9302 27.6132 16.0293 27.613C16.3014 27.6127 16.5735 27.6133 16.8456 27.6139C17.1391 27.6145 17.4327 27.6143 17.7262 27.6142C18.2347 27.6142 18.7431 27.6146 19.2516 27.6153C19.9868 27.6164 20.7219 27.6168 21.4571 27.617C22.6498 27.6173 23.8426 27.6182 25.0354 27.6194C26.194 27.6207 27.3526 27.6216 28.5113 27.6222C28.5834 27.6223 28.6556 27.6223 28.7299 27.6223C29.2942 27.6226 29.8584 27.6229 30.4226 27.6231C33.1883 27.6244 35.954 27.6271 38.7197 27.6297C38.7197 34.2415 38.7197 40.8534 38.7197 47.6656C32.7379 47.6766 32.7379 47.6766 30.2409 47.6789C29.6694 47.6794 29.0978 47.6799 28.5263 47.6805C28.4188 47.6806 28.4188 47.6806 28.3092 47.6807C27.1529 47.6819 25.9966 47.684 24.8404 47.6865C23.6536 47.6891 22.4668 47.6906 21.2801 47.6911C20.5479 47.6915 19.8156 47.6927 19.0834 47.6949C18.5812 47.6963 18.079 47.6967 17.5768 47.6964C17.2871 47.6962 16.9975 47.6965 16.7078 47.6979C16.4423 47.6992 16.1768 47.6993 15.9113 47.6984C15.8156 47.6983 15.7198 47.6986 15.624 47.6995C14.7673 47.7066 14.1866 47.5468 13.5595 46.956C13.1499 46.4919 12.99 45.9889 12.9878 45.3828C12.9873 45.3296 12.9869 45.2764 12.9864 45.2216C12.9851 45.0455 12.9843 44.8693 12.9836 44.6931C12.9833 44.6328 12.983 44.5726 12.9827 44.5104C12.9813 44.1911 12.9803 43.8718 12.9797 43.5524C12.9789 43.2236 12.9766 42.8947 12.9739 42.5658C12.9721 42.3122 12.9715 42.0585 12.9713 41.8048C12.971 41.6837 12.9702 41.5625 12.9689 41.4414C12.957 40.2328 12.957 40.2328 13.2727 39.746C13.3039 39.692 13.3352 39.638 13.3673 39.5823C13.6622 39.1844 14.0195 38.9556 14.4472 38.7124C14.7555 38.533 14.9523 38.3826 15.1147 38.0538C15.2146 37.644 15.1955 37.339 14.9783 36.9708C14.7429 36.7255 14.5006 36.5956 14.198 36.4419C13.5695 36.1107 13.2216 35.6002 12.9998 34.9401C12.9922 34.7652 12.9884 34.5921 12.9878 34.4172C12.9873 34.364 12.9869 34.3108 12.9864 34.256C12.9851 34.0798 12.9843 33.9037 12.9836 33.7275C12.9833 33.6672 12.983 33.6069 12.9827 33.5448C12.9813 33.2255 12.9803 32.9061 12.9797 32.5868C12.9789 32.2579 12.9766 31.9291 12.9739 31.6002C12.9721 31.3465 12.9715 31.0929 12.9713 30.8392C12.971 30.718 12.9702 30.5969 12.9689 30.4757C12.957 29.2613 12.957 29.2613 13.2727 28.7804C13.3031 28.732 13.3335 28.6837 13.3648 28.6338C13.7769 28.0053 14.4423 27.6125 15.198 27.613ZM20.2314 32.4356C20.2314 33.0834 20.2314 33.7312 20.2314 34.3986C25.2969 34.3986 30.3624 34.3986 35.5814 34.3986C35.5814 33.7508 35.5814 33.103 35.5814 32.4356C30.5159 32.4356 25.4504 32.4356 20.2314 32.4356ZM20.2314 36.4969C20.2314 37.1447 20.2314 37.7925 20.2314 38.4599C25.2969 38.4599 30.3624 38.4599 35.5814 38.4599C35.5814 37.8121 35.5814 37.1644 35.5814 36.4969C30.5159 36.4969 25.4504 36.4969 20.2314 36.4969ZM20.2314 40.5583C20.2314 41.2061 20.2314 41.8539 20.2314 42.5213C25.2969 42.5213 30.3624 42.5213 35.5814 42.5213C35.5814 41.8735 35.5814 41.2257 35.5814 40.5583C30.5159 40.5583 25.4504 40.5583 20.2314 40.5583Z" fill="#11E399"/>
<path d="M40.6981 27.6297C46.6015 27.6297 46.6015 27.6297 47.3157 28.3066C47.7455 28.822 47.9503 29.2605 47.9495 29.9355C47.95 29.9888 47.9504 30.042 47.9509 30.0968C47.9522 30.2719 47.9525 30.4469 47.9526 30.622C47.953 30.7444 47.9535 30.8668 47.954 30.9892C47.9548 31.2455 47.955 31.5019 47.955 31.7582C47.955 32.0855 47.9568 32.4127 47.9592 32.74C47.9607 32.9928 47.961 33.2456 47.9609 33.4984C47.961 33.619 47.9616 33.7396 47.9627 33.8602C47.9723 35.0611 47.9723 35.0611 47.6568 35.5493C47.6256 35.6033 47.5944 35.6573 47.5622 35.713C47.2673 36.1109 46.91 36.3397 46.4824 36.5829C46.174 36.7623 45.9772 36.9127 45.8148 37.2415C45.7149 37.6513 45.734 37.9563 45.9512 38.3245C46.1866 38.5698 46.4289 38.6997 46.7315 38.8534C47.36 39.1846 47.7079 39.6951 47.9297 40.3552C47.9373 40.5297 47.9411 40.7025 47.9418 40.877C47.9422 40.9301 47.9427 40.9832 47.9431 41.0379C47.9445 41.2137 47.9453 41.3896 47.9459 41.5654C47.9462 41.6256 47.9465 41.6858 47.9468 41.7479C47.9482 42.0668 47.9492 42.3858 47.9498 42.7048C47.9506 43.0331 47.9529 43.3613 47.9556 43.6896C47.9574 43.9429 47.958 44.1963 47.9582 44.4497C47.9586 44.5706 47.9594 44.6915 47.9606 44.8124C47.9698 45.7482 47.8912 46.4033 47.2144 47.1104C45.583 48.528 41.876 47.6656 40.6981 47.6656C40.6981 41.0538 40.6981 34.4419 40.6981 27.6297Z" fill="#11E399"/>
<path d="M33.5995 13.1927C34.1422 13.5297 34.5877 13.9617 35.0405 14.4075C35.0756 14.442 35.1107 14.4765 35.1469 14.512C35.3326 14.6942 35.518 14.8769 35.703 15.0599C35.8923 15.2469 36.0828 15.4327 36.2737 15.6182C36.422 15.7628 36.5693 15.9084 36.7165 16.0542C36.7863 16.123 36.8564 16.1915 36.9268 16.2596C37.541 16.8543 38.0292 17.5009 38.0588 18.3816C38.0583 18.697 37.9831 18.9747 37.8925 19.2743C37.7732 19.6768 37.7185 19.996 37.901 20.3869C38.1059 20.7094 38.3387 20.8779 38.7069 20.9834C39.0246 21.002 39.3019 20.9109 39.6023 20.8214C40.2597 20.6386 40.913 20.6777 41.5201 21.0034C41.9926 21.306 42.3793 21.6869 42.7736 22.0807C42.8468 22.1533 42.92 22.2257 42.9933 22.2982C43.1459 22.4493 43.2982 22.6008 43.4502 22.7525C43.6439 22.9459 43.8385 23.1384 44.0335 23.3305C44.1846 23.4798 44.3352 23.6295 44.4858 23.7793C44.5573 23.8505 44.629 23.9214 44.7008 23.9922C45.6395 24.9187 45.6395 24.9187 45.7466 25.599C44.1237 25.8472 42.4994 26.0071 40.8601 26.0982C40.7995 26.1017 40.7389 26.1051 40.6764 26.1087C37.578 26.2812 35.0009 26.061 32.6056 23.9516C31.7799 23.2123 31.0133 22.4243 30.2686 21.6053C30.2251 21.5576 30.1816 21.5099 30.1368 21.4607C29.0082 20.2212 27.9363 18.9412 26.9172 17.6117C27.0406 17.3482 27.211 17.1648 27.4164 16.9614C27.4718 16.9057 27.4718 16.9057 27.5284 16.8489C27.6506 16.7263 27.7733 16.6043 27.896 16.4824C27.9816 16.3971 28.0671 16.3118 28.1526 16.2265C28.332 16.0476 28.5117 15.869 28.6916 15.6906C28.9211 15.463 29.1496 15.2344 29.3779 15.0056C29.5544 14.829 29.7315 14.653 29.9087 14.4772C29.9932 14.3932 30.0774 14.3091 30.1614 14.2247C31.0286 13.3544 32.3362 12.4677 33.5995 13.1927Z" fill="#11E399"/>
<path d="M25.4163 18.9655C25.6437 19.0638 25.7932 19.1872 25.9681 19.3608C26.0504 19.4421 26.0504 19.4421 26.1344 19.525C26.1941 19.5845 26.2537 19.6441 26.3151 19.7054C26.3784 19.7681 26.4416 19.8307 26.5068 19.8952C26.68 20.0668 26.8529 20.2388 27.0256 20.4108C27.2063 20.5907 27.3873 20.7702 27.5683 20.9498C27.8721 21.2512 28.1755 21.5529 28.4788 21.8547C28.8299 22.2041 29.1814 22.5532 29.5331 22.9021C29.8711 23.2374 30.2088 23.5729 30.5465 23.9085C30.6904 24.0515 30.8344 24.1945 30.9784 24.3374C31.179 24.5365 31.3794 24.736 31.5797 24.9355C31.6399 24.9951 31.7001 25.0548 31.762 25.1163C31.8162 25.1703 31.8703 25.2243 31.9261 25.2799C31.9735 25.3271 32.021 25.3743 32.0699 25.4229C32.1703 25.5313 32.1703 25.5313 32.1703 25.599C27.7577 25.599 23.3451 25.599 18.7987 25.599C19.2592 25.0659 19.2592 25.0659 19.493 24.8343C19.5458 24.7819 19.5986 24.7294 19.653 24.6753C19.7096 24.6194 19.7661 24.5635 19.8244 24.5059C19.885 24.4458 19.9457 24.3856 20.0081 24.3237C20.173 24.1601 20.3381 23.9967 20.5032 23.8333C20.6762 23.662 20.8491 23.4906 21.0219 23.3192C21.3487 22.9952 21.6756 22.6714 22.0026 22.3476C22.3751 21.9788 22.7474 21.6097 23.1197 21.2407C23.885 20.4821 24.6506 19.7237 25.4163 18.9655Z" fill="#11E399"/>
</svg>
