<svg width="60" height="60" viewBox="0 0 60 60" fill="none" xmlns="http://www.w3.org/2000/svg">
<path d="M44 0H16C7.16344 0 0 7.16344 0 16V44C0 52.8366 7.16344 60 16 60H44C52.8366 60 60 52.8366 60 44V16C60 7.16344 52.8366 0 44 0Z" fill="#FFDCC9"/>
<path d="M38.8228 16.679C39.059 16.9032 39.1983 17.0906 39.2471 17.4172C39.2475 17.7555 39.2418 18.0137 39.1073 18.3276C38.737 18.6979 38.2556 18.8329 37.7749 19.0096C36.7671 19.3813 35.9271 19.8792 35.4579 20.893C35.381 21.1084 35.3098 21.3253 35.2411 21.5434C35.2793 21.5288 35.3175 21.5143 35.3568 21.4993C35.5334 21.4322 35.7102 21.3659 35.887 21.2995C35.947 21.2766 36.0071 21.2537 36.0689 21.2301C37.4953 20.6972 39.1259 20.7004 40.5292 21.3097C41.1155 21.5791 41.6306 21.8988 42.1063 22.3383C42.2042 22.4275 42.2042 22.4275 42.3039 22.5184C44.0276 24.1611 44.9468 26.6696 45.018 29.0261C45.0236 29.3111 45.0248 29.596 45.0241 29.881C45.024 29.9713 45.024 29.9713 45.0239 30.0635C45.0209 31.0763 44.9474 32.0461 44.7079 33.0336C44.692 33.0994 44.6762 33.1651 44.6598 33.2329C44.4399 34.1147 44.1362 34.9495 43.7685 35.7797C43.4358 35.7797 43.2633 35.6706 42.9871 35.5087C41.7861 34.8396 40.5587 34.7974 39.2143 34.9292C39.0984 34.94 38.9824 34.9507 38.8665 34.9613C38.6146 34.9845 38.3627 35.0083 38.111 35.0324C37.7041 35.0715 37.2972 35.1093 36.8902 35.1471C36.1101 35.2197 35.33 35.2935 34.55 35.3675C33.9727 35.4222 33.3954 35.4767 32.8182 35.5312C32.7413 35.5385 32.7413 35.5385 32.6628 35.5459C32.0832 35.6006 31.5036 35.6552 30.924 35.7098C30.8718 35.7147 30.8195 35.7196 30.7657 35.7247C30.3386 35.7649 30.3386 35.7649 30.1328 35.7842C29.5042 35.8434 28.8757 35.9028 28.2472 35.9627C27.8004 36.0052 27.3535 36.0475 26.9067 36.0896C26.7214 36.1072 26.5361 36.1248 26.3508 36.1426C26.0954 36.1671 25.84 36.1912 25.5846 36.2152C25.5105 36.2224 25.4363 36.2296 25.3598 36.237C24.9418 36.2758 24.5321 36.2923 24.1122 36.2856C23.5862 35.2896 23.2039 34.3 22.9379 33.2053C22.9201 33.1321 22.9023 33.059 22.884 32.9836C22.6475 31.9684 22.5674 30.9869 22.572 29.9488C22.5722 29.8881 22.5723 29.8274 22.5724 29.7648C22.5757 28.8867 22.6016 28.0368 22.8114 27.1801C22.8234 27.1274 22.8355 27.0747 22.8478 27.0204C23.2422 25.3164 24.0221 23.7846 25.2685 22.5551C25.328 22.4948 25.3875 22.4346 25.4488 22.3725C26.6907 21.1796 28.1971 20.8539 29.8714 20.8727C30.42 20.889 30.895 20.9893 31.411 21.1821C31.4903 21.2116 31.5696 21.2411 31.6513 21.2716C32.0496 21.4298 32.4145 21.6166 32.7841 21.8325C32.7957 21.7899 32.8073 21.7473 32.8193 21.7035C32.8733 21.5069 32.928 21.3106 32.9828 21.1143C33.0102 21.0139 33.0102 21.0139 33.0381 20.9115C33.4499 19.4446 34.2562 18.1739 35.6044 17.4139C35.9572 17.2301 36.3193 17.0711 36.6864 16.9184C36.7324 16.8987 36.7784 16.879 36.8258 16.8587C37.4762 16.5838 38.1519 16.3613 38.8228 16.679Z" fill="#EC6A23"/>
<path d="M25.815 10.1751C26.0512 10.3993 26.1905 10.5867 26.2392 10.9133C26.2398 11.3576 26.2402 11.6656 25.9188 12.0043C25.6661 12.1759 25.4377 12.2659 25.1417 12.3377C25.062 12.3579 24.9823 12.3781 24.9002 12.3988C24.7352 12.4394 24.5702 12.4797 24.4051 12.5197C23.5797 12.7297 22.7924 13.0013 22.3056 13.7387C22.1723 13.9793 22.0888 14.1816 22.0888 14.4614C22.1795 14.4826 22.1795 14.4826 22.272 14.5043C23.2417 14.7534 24.0702 15.1843 24.8349 15.8344C24.8938 15.8797 24.9528 15.925 25.0135 15.9716C25.9422 16.7438 26.6565 18.0363 26.786 19.2309C26.7497 19.2468 26.7134 19.2627 26.676 19.2791C24.0469 20.4448 22.3499 22.4381 21.3142 25.1081C20.0483 28.5627 20.2905 32.7221 21.7791 36.0592C21.872 36.2856 21.872 36.2856 21.872 36.5024C21.6934 36.5916 21.5475 36.5993 21.3486 36.619C20.171 36.7235 20.171 36.7235 19.0536 37.0805C18.9561 37.1235 18.9561 37.1235 18.8566 37.1675C17.689 37.7397 16.9414 38.7336 16.5108 39.9406C16.4914 39.9984 16.472 40.0562 16.452 40.1157C16.1115 40.0173 15.8295 39.8711 15.5352 39.6776C15.491 39.6487 15.4468 39.6198 15.4012 39.59C13.544 38.3555 12.1873 36.6135 11.4702 34.5015C11.4507 34.4442 11.4312 34.3868 11.411 34.3277C11.1022 33.3581 10.9915 32.402 11.0005 31.3896C11.0008 31.3362 11.001 31.2828 11.0012 31.2277C11.0151 29.1252 11.6572 27.196 12.9065 25.4999C14.0139 23.9867 14.44 22.3713 14.5731 20.5317C14.7096 18.6935 15.2909 17.093 16.6847 15.8364C17.5615 15.0863 18.5907 14.6573 19.704 14.3891C19.719 14.3174 19.734 14.2456 19.7494 14.1717C20.022 12.9415 20.5122 11.8977 21.5979 11.1865C22.631 10.5638 24.6067 9.6028 25.815 10.1751Z" fill="#EC6A23"/>
<path d="M41.9618 37.225C42.0182 37.2557 42.0745 37.2863 42.1326 37.3179C42.8503 37.7509 43.3265 38.3978 43.6239 39.1762C43.6239 39.2716 43.6239 39.367 43.6239 39.4653C44.1321 39.0639 44.6124 38.644 45.0793 38.1956C45.4372 37.8559 45.7058 37.6277 46.221 37.627C46.5925 37.6371 46.8148 37.6841 47.0927 37.9477C47.373 38.3415 47.3744 38.7073 47.3095 39.1762C47.1591 39.5486 46.8349 39.7973 46.534 40.0499C46.343 40.2107 46.1578 40.3773 45.9726 40.5447C45.9107 40.6005 45.8488 40.6563 45.7851 40.7138C45.7397 40.7549 45.6942 40.796 45.6474 40.8383C45.6976 40.839 45.7479 40.8397 45.7997 40.8404C46.029 40.8443 46.2582 40.8503 46.4874 40.8564C46.5665 40.8574 46.6456 40.8584 46.7271 40.8595C47.1671 40.8728 47.4794 40.8844 47.8153 41.1996C48.1085 41.5771 48.0881 41.9695 48.0321 42.4282C47.8739 42.7621 47.7068 42.9133 47.3817 43.0786C47.1815 43.1098 47.1815 43.1098 46.9671 43.1155C46.89 43.1181 46.8129 43.1207 46.7335 43.1233C46.6538 43.1249 46.5741 43.1266 46.492 43.1282C46.4109 43.1307 46.3298 43.1332 46.2462 43.1357C46.0466 43.1417 45.847 43.1467 45.6474 43.1508C45.6805 43.1818 45.7136 43.2127 45.7478 43.2446C45.8995 43.3864 46.0512 43.5283 46.2029 43.6702C46.255 43.7189 46.3071 43.7676 46.3608 43.8177C47.2944 44.6916 47.2944 44.6916 47.3337 45.0086C47.3434 45.7733 47.3434 45.7733 47.0204 46.1137C46.6254 46.3938 46.262 46.4022 45.7919 46.3305C45.5568 46.2292 45.3971 46.0736 45.2138 45.8969C45.1339 45.8225 45.0539 45.7483 44.9738 45.6742C44.8405 45.5506 44.7075 45.4268 44.5752 45.3022C44.273 45.0183 43.9641 44.762 43.6239 44.5239C43.6224 44.5894 43.6209 44.655 43.6194 44.7226C43.5263 45.3675 43.0437 46.0075 42.5399 46.4028C41.8761 46.8689 41.2532 47.0926 40.4422 47.0794C40.3711 47.0788 40.3 47.0781 40.2268 47.0774C39.253 47.0596 38.2838 46.9598 37.315 46.8658C37.0387 46.8392 36.7622 46.8134 36.4858 46.7875C36.0237 46.7441 35.5617 46.7001 35.0996 46.6558C34.5067 46.5988 33.9137 46.5428 33.3206 46.4871C32.8084 46.439 32.2962 46.3905 31.784 46.3418C31.6201 46.3263 31.4562 46.3108 31.2923 46.2953C31.0357 46.2711 30.7792 46.2466 30.5228 46.2218C30.3838 46.2085 30.2448 46.1954 30.1058 46.1823C30.0234 46.1743 29.941 46.1663 29.8561 46.1581C29.7844 46.1512 29.7127 46.1443 29.6388 46.1373C29.4599 46.1137 29.4599 46.1137 29.2431 46.0414C29.2416 45.9762 29.2402 45.911 29.2387 45.8438C29.233 45.5999 29.2268 45.356 29.2201 45.1121C29.2174 45.0069 29.2149 44.9017 29.2126 44.7965C29.2092 44.6445 29.2051 44.4926 29.2007 44.3407C29.1984 44.2495 29.1962 44.1583 29.1938 44.0643C29.1501 43.5648 29.0511 43.2623 28.6649 42.934C28.3959 42.7995 28.0913 42.8311 27.7978 42.8618C27.5571 42.9624 27.4221 43.0386 27.3004 43.2742C27.1136 43.7935 27.1075 44.3061 27.0977 44.8536C27.0952 44.9472 27.0927 45.0407 27.0902 45.1371C27.0843 45.3663 27.0793 45.5954 27.0751 45.8246C26.4479 45.8413 25.8296 45.778 25.2061 45.7191C25.0876 45.7081 24.969 45.6971 24.8505 45.6861C24.6029 45.6631 24.3553 45.6398 24.1076 45.6165C23.7926 45.5867 23.4774 45.5575 23.1623 45.5285C22.9177 45.5059 22.6731 45.483 22.4285 45.4601C22.3125 45.4492 22.1964 45.4384 22.0803 45.4278C19.7232 45.2103 19.7232 45.2103 18.9813 44.4516C18.5902 43.8912 18.3811 43.3992 18.3789 42.7093C18.3785 42.6539 18.378 42.5985 18.3775 42.5414C18.3768 42.4245 18.3764 42.3077 18.3764 42.1908C18.3761 42.0141 18.3735 41.8376 18.3708 41.6609C18.3645 40.7979 18.4853 40.1526 19.0497 39.4684C19.6733 38.8483 20.4212 38.7286 21.2586 38.6509C21.3459 38.6424 21.4332 38.6339 21.5232 38.6252C21.7716 38.6012 22.0199 38.5777 22.2683 38.5544C22.4831 38.5341 22.6978 38.5135 22.9126 38.4929C23.8182 38.4061 24.724 38.3214 25.6298 38.2368C25.6768 38.2324 25.7237 38.228 25.7721 38.2235C29.0969 37.9128 32.4219 37.6046 35.747 37.2973C35.7484 37.3822 35.7498 37.4671 35.7513 37.5546C35.7568 37.8713 35.7632 38.1879 35.7699 38.5045C35.7727 38.6413 35.7752 38.778 35.7775 38.9148C35.7808 39.1119 35.785 39.3091 35.7893 39.5062C35.7906 39.5971 35.7906 39.5971 35.7918 39.6899C35.8033 40.1514 35.8305 40.5405 36.1444 40.9016C36.4386 41.1516 36.6372 41.1478 37.0133 41.1429C37.248 41.1226 37.3767 41.0661 37.5536 40.9106C37.8752 40.4742 37.8551 40.0116 37.863 39.4912C37.865 39.3912 37.865 39.3912 37.867 39.2892C37.8727 39.0045 37.8776 38.7198 37.8826 38.4351C37.8863 38.2271 37.8904 38.0191 37.8946 37.8111C37.8956 37.7462 37.8966 37.6813 37.8976 37.6145C37.9068 37.1609 37.9068 37.1609 37.9872 37.0805C40.9811 36.6679 40.9811 36.6679 41.9618 37.225Z" fill="#EC6A23"/>
</svg>
